<svg xmlns="http://www.w3.org/2000/svg" viewBox="0 0 512.31 841"><defs><style>.cls-1{fill:#ccc;}.cls-2{fill:#d9d9d9;}.cls-3{fill:#e6e6e6;}.cls-4{fill:#f2f2f2;}.cls-5{fill:#fff;}.cls-6{fill:#ffb300;}.cls-7{font-size:32px;font-family:Mukta-Regular, Mukta;}</style></defs><g id="Layer_6" data-name="Layer 6"><rect class="cls-1" width="512.31" height="841"/><path class="cls-2" d="M0,771.05a728,728,0,0,0,512.31-.27V0H0Z"/><path class="cls-3" d="M0,365.57a374.15,374.15,0,0,0,512.31-.67V0H0Z"/><path class="cls-4" d="M68.71,92.49c0,103.33,83.76,187.09,187.09,187.09S442.88,195.82,442.88,92.49A186.29,186.29,0,0,0,418.45,0H93.14A186.29,186.29,0,0,0,68.71,92.49Z"/><circle class="cls-5" cx="256.15" cy="92.49" r="62.36"/></g><g id="Layer_3" data-name="Layer 3"><circle class="cls-6" cx="255.84" cy="92.49" r="7.23"/><circle class="cls-6" cx="255.84" cy="154.86" r="7.23"/><circle class="cls-6" cx="255.84" cy="217.22" r="7.23"/><circle class="cls-6" cx="256.15" cy="279.58" r="7.23"/><circle class="cls-6" cx="255.84" cy="341.94" r="7.23"/><circle class="cls-6" cx="255.84" cy="404.3" r="7.23"/><circle class="cls-6" cx="255.84" cy="466.67" r="7.23"/><circle class="cls-6" cx="255.8" cy="529.03" r="7.23"/><circle class="cls-6" cx="255.8" cy="591.39" r="7.23"/><circle class="cls-6" cx="193.79" cy="591.39" r="7.23"/><circle class="cls-6" cx="131.43" cy="591.39" r="7.23"/><circle class="cls-6" cx="318.52" cy="591.39" r="7.23"/><circle class="cls-6" cx="380.88" cy="591.39" r="7.23"/><circle class="cls-6" cx="255.84" cy="653.75" r="7.23"/><circle class="cls-6" cx="318.52" cy="653.75" r="7.23"/><circle class="cls-6" cx="318.52" cy="716.12" r="7.23"/><circle class="cls-6" cx="380.88" cy="653.75" r="7.23"/><circle class="cls-6" cx="380.88" cy="716.12" r="7.23"/><circle class="cls-6" cx="318.52" cy="778.48" r="7.23"/><circle class="cls-6" cx="380.88" cy="778.48" r="7.23"/><circle class="cls-6" cx="193.79" cy="653.75" r="7.23"/><circle class="cls-6" cx="131.43" cy="653.75" r="7.23"/><circle class="cls-6" cx="193.79" cy="716.12" r="7.23"/><circle class="cls-6" cx="131.43" cy="716.12" r="7.23"/><circle class="cls-6" cx="193.79" cy="778.48" r="7.23"/><circle class="cls-6" cx="131.43" cy="778.48" r="7.23"/><circle class="cls-6" cx="255.8" cy="716.12" r="7.23"/><circle class="cls-6" cx="255.8" cy="778.48" r="7.23"/><circle class="cls-6" cx="318.52" cy="529.03" r="7.23"/><circle class="cls-6" cx="193.79" cy="529.03" r="7.23"/><circle class="cls-6" cx="131.43" cy="341.96" r="7.23"/><circle class="cls-6" cx="318.52" cy="341.96" r="7.23"/><circle class="cls-6" cx="380.88" cy="341.94" r="7.23"/><circle class="cls-6" cx="193.79" cy="341.94" r="7.23"/><circle class="cls-6" cx="193.79" cy="217.22" r="7.23"/><circle class="cls-6" cx="318.52" cy="217.22" r="7.23"/></g><g id="Layer_5" data-name="Layer 5"><text class="cls-7" transform="translate(233.21 79.47)">शशव</text><text class="cls-7" transform="translate(227.35 139.99)">शकक</text><text class="cls-7" transform="translate(210.63 202)">सददशशव</text><text class="cls-7" transform="translate(141.14 202)">ईशर</text><text class="cls-7" transform="translate(314.88 202)">सदददद</text><text class="cls-7" transform="translate(230.6 263.73)">ममयय</text><text class="cls-7" transform="translate(229.27 326.41)">कलल</text><text class="cls-7" transform="translate(155.58 326.41)">ववदद</text><text class="cls-7" transform="translate(302.01 326.41)">ररग</text><text class="cls-7" transform="translate(88.54 326.41)">ककल</text><text class="cls-7" transform="translate(357.14 326.41)">ननयतत</text><text class="cls-7" transform="translate(229.03 385.97)">पपरष</text><text class="cls-7" transform="translate(223.42 448.95)">पककतत</text><text class="cls-7" transform="translate(232.02 510.12)">बबदद</text><text class="cls-7" transform="translate(125.74 510.12)">अहहककर</text><text class="cls-7" transform="translate(300.07 510.12)">मनसस</text><text class="cls-7" transform="translate(369.92 759.28)">पपथथवव</text><text class="cls-7" transform="translate(292.6 759.28)">आपसस</text><text class="cls-7" transform="translate(232.38 759.28)">अगग</text><text class="cls-7" transform="translate(163.17 759.28)">ववयय</text><text class="cls-7" transform="translate(49.41 759.28)">आककश</text><text class="cls-7" transform="translate(376.42 699.93)">गन</text><text class="cls-7" transform="translate(308.85 699.93)">रस</text><text class="cls-7" transform="translate(236.68 699.93)">रप</text><text class="cls-7" transform="translate(156.06 699.93)">सरर</text><text class="cls-7" transform="translate(85.76 699.93)">शब</text><text class="cls-7" transform="translate(376.87 636.54)">पपयय</text><text class="cls-7" transform="translate(293.79 636.54)">उपस</text><text class="cls-7" transform="translate(235.86 636.54)">पपद</text><text class="cls-7" transform="translate(157.58 636.54)">पपणण</text><text class="cls-7" transform="translate(82.31 636.54)">ववकक</text><text class="cls-7" transform="translate(378.48 571.1)">घघण</text><text class="cls-7" transform="translate(301.16 571.1)">जजहह</text><text class="cls-7" transform="translate(224.5 571.1)">चकसस</text><text class="cls-7" transform="translate(153.01 571.1)">तकक</text><text class="cls-7" transform="translate(85.84 571.1)">शशत</text></g></svg>