<?xml version="1.0" encoding="utf-8"?>
<!-- Generator: Adobe Illustrator 24.0.1, SVG Export Plug-In . SVG Version: 6.00 Build 0)  -->
<svg version="1.1" id="Layer_1" xmlns="http://www.w3.org/2000/svg" xmlns:xlink="http://www.w3.org/1999/xlink" x="0px" y="0px"
	 viewBox="0 0 2000 2000" style="enable-background:new 0 0 2000 2000;" xml:space="preserve">
<style type="text/css">
	.st0{clip-path:url(#FRAME_1_);fill:#231F20;}
	.st1{clip-path:url(#FRAME_1_);}
	.st2{fill:#F6901E;}
	.st3{fill:#FFD400;}
	.st4{fill:#FFF100;}
	.st5{fill:#FFF799;}
	.st6{fill:#F9FDFF;}
	.st7{opacity:0.2;clip-path:url(#FRAME_1_);fill:#FFF799;}
	.st8{opacity:0.5;clip-path:url(#FRAME_1_);}
	.st9{fill:#83469A;}
	.st10{fill:#63489D;}
	.st11{fill:#685BA7;}
	.st12{fill:#6085C4;}
	.st13{fill:#57C9E8;}
	.st14{fill:#70C8B9;}
	.st15{fill:#70C38D;}
	.st16{fill:#70C05C;}
	.st17{fill:#F15D22;}
	.st18{fill:#F6851F;}
	.st19{fill:#F8971D;}
	.st20{fill:#FFCE06;}
	.st21{fill:#3ABFEF;}
	.st22{fill:#91CF75;}
	.st23{fill:#FEE600;}
	.st24{fill:#C9EAF8;}
	.st25{fill:#F8ECF1;}
	.st26{fill:#ADAFB3;}
	.st27{fill:#E6DABC;}
	.st28{fill:#5C6169;}
	.st29{fill:#FFFACD;}
	.st30{opacity:0.5;fill:#FFFFFF;}
	.st31{opacity:0.5;fill:#FFB194;}
	.st32{fill:none;stroke:#384A9F;stroke-miterlimit:10;}
	.st33{fill:#384A9F;}
	.st34{fill:#0C8899;}
	.st35{fill:#4BAB4D;}
	.st36{fill:#9CA839;}
	.st37{fill:#6D421F;}
	.st38{fill:#994422;}
	.st39{fill:#CB3D27;}
	.st40{fill:#D92529;}
	.st41{fill:#F78F1E;}
	.st42{fill:#F51319;}
	.st43{opacity:0.49;fill:#808080;}
</style>
<g>
	<defs>
		<rect id="FRAME" x="-70.2" y="-70.2" width="2140.4" height="2140.4"/>
	</defs>
	<clipPath id="FRAME_1_">
		<use xlink:href="#FRAME"  style="overflow:visible;"/>
	</clipPath>
	<polygon id="maya" class="st0" points="2070,2070 -70,2070 -70,-70 2070.93,-58.09 	"/>
	<g id="shanta" class="st1">
		<path id="sadakhya" class="st2" d="M472.25-79.95H26.35C10.82-10,2.61,62.72,2.61,137.36c0,551.12,446.77,997.89,997.89,997.89
			s997.89-446.77,997.89-997.89c0-74.64-8.21-147.35-23.75-217.31h-445.9H472.25z"/>
		<path id="ishvara_1_" class="st3" d="M731.92-79.95H472.25c-27.59,66.99-42.81,140.37-42.81,217.31
			c0,315.39,255.67,571.06,571.06,571.06s571.06-255.67,571.06-571.06c0-76.94-15.22-150.32-42.81-217.31h-259.67H731.92z"/>
		<path id="sadashiva" class="st4" d="M1000.5,482.86c190.81,0,345.5-154.69,345.5-345.5c0-82.35-28.83-157.95-76.92-217.31H731.92
			C683.83-20.59,655,55.01,655,137.36C655,328.17,809.69,482.86,1000.5,482.86z"/>
		<circle id="shakti" class="st5" cx="1000.5" cy="137.36" r="137.36"/>
		<path id="shiva" class="st6" d="M1068.57,256.38l-68.4-118.44l-68.4,118.66c20.1,11.68,43.57,18.12,68.49,18.12
			C1025.15,274.71,1048.49,268.04,1068.57,256.38z"/>
	</g>
	<path id="om" class="st7" d="M1068.39,256.48c-20.04,11.59-43.31,18.23-68.13,18.23c-24.92,0-48.39-6.44-68.49-18.12L-50.71,1957.9
		h2101.42L1068.39,256.48z"/>
	<g id="anava" class="st8">
		<g id="left">
			<g>
				<g>
					<path id="akasha_1_" class="st9" d="M500.68,999.44L3.63,135.99l-116.34,0.26c0.31,15.58,1.09,31.17,2.71,46.75c1,14,0,29,3,44
						c2,9,1,17,2,26c1,2,3,5,3,7c1,11,2,23-1,34c-11,38-17,75-9,112c6,35,14,69,21,102c-1,0-3,0-4,0c-0.05-0.09-0.07-0.19-0.11-0.29
						c-0.88,6.76-3.89,13.53-6.89,20.29c-1,3,1,7-1,10c-6,8-2,19-6,26c-8,11-6,26-7,38c-6,88,1,176-4,264c-4,79,1,159-2,238
						c0,2-3,5-3,7c0,8-2,15-2,23c-3,107-2,215-1,322c0,2,3,4,3,6c2,37-2,73,2,111c3,22,2,44,3,67c0.1,2.52,0.18,5.05,0.27,7.58
						L0.21,1859.01c78.95-132.26,157.22-264.91,234.81-397.94C324.46,1307.73,413.02,1153.85,500.68,999.44z"/>
					<path id="shabda_1_" class="st10" d="M3.82,135.99c0,0-47.84-51.46-117.01-46.53c0.35,14.61,1.66,78.94,3.19,93.54
						c1,14,0,29,3,44c2,9,1,17,2,26c1,2,3,5,3,7c1,11,2,23-1,34c-11,38-17,75-9,112c6,35,14,69,21,102c-1,0-3,0-4,0
						c-0.05-0.09-0.07-0.19-0.11-0.29c-0.88,6.76-3.89,13.53-6.89,20.29c-1,3,1,7-1,10c-6,8-2,19-6,26c-8,11-6,26-7,38
						c-6,88,1,176-4,264c-4,79,1,159-2,238c0,2-3,5-3,7c0,8-2,15-2,23c-2.45,87.31-2.23,175.29-1.53,262.85
						c41.06,19.2,84.35,30.89,129.19,31.43c275.77,3.3,503.1-426.2,503.1-426.2L3.82,135.99z"/>
					<path id="vaak_1_" class="st11" d="M3.82,135.99c-38.71,0.12-77.65,4.17-116.19,12.27c0.43,11.58,1.16,23.16,2.37,34.74
						c1,14,0,29,3,44c2,9,1,17,2,26c1,2,3,5,3,7c1,11,2,23-1,34c-11,38-17,75-9,112c6,35,14,69,21,102c-1,0-3,0-4,0
						c-0.05-0.09-0.07-0.19-0.11-0.29c-0.88,6.76-3.89,13.53-6.89,20.29c-1,3,1,7-1,10c-6,8-2,19-6,26c-8,11-6,26-7,38
						c-6,88,1,176-4,264c-4,79,1,159-2,238c0,2-3,5-3,7c0,8-2,15-2,23c-1.28,45.81-1.83,91.8-1.96,137.81
						c138.64,33.56,289.89,15.98,423.15-60.96c90.08-52.01,160.77-124.86,209.57-208.77L3.82,135.99z"/>
					<path id="shrotra_1_" class="st12" d="M3.82,135.99c0,0-45.87,15.98-113.14,66.4c0.23,8.09,0.67,16.35,2.32,24.61
						c2,9,1,17,2,26c1,2,3,5,3,7c1,11,2,23-1,34c-11,38-17,75-9,112c6,35,14,69,21,102c-1,0-3,0-4,0c-0.05-0.09-0.07-0.19-0.11-0.29
						c-0.88,6.76-3.89,13.53-6.89,20.29c-1,3,1,7-1,10c-6,8-2,19-6,26c-8,11-6,26-7,38c-6,88,1,176-4,264c-4,79,1,159-2,238
						c0,2-3,5-3,7c0,7.96-1.97,14.93-2,22.87c41.52,4.6,86.68,6.99,135.58,6.28c340.98-4.91,495.17-138.07,495.17-138.07
						L3.82,135.99z"/>
				</g>
				<g>
					<path id="vayu_2_" class="st13" d="M3.79,713.41C-30.2,654.55-66.9,598.57-106.12,545.47c-1.24,6.52-0.03,13.54-2.88,18.53
						c-8,11-6,26-7,38c-6,88,1,176-4,264c-4,79,1,159-2,238c0,2-3,5-3,7c0,8-2,15-2,23c-3,107-2,215-1,322c0,2,3,4,3,6
						c2,37-2,73,2,111c3,22,2,44,3,67c3.69,95.32,3.57,191.18,2.84,286.79l5.08,8.79l112.29-76.57l232.09-392.33
						c-1.73-31.33-4.95-72.86-11.36-121.42c-4.67-35.34-17.12-120.45-47.21-228.18C173.72,1117.08,114.81,905.7,3.79,713.41z"/>
					<path id="sparsha_2_" class="st14" d="M220.94,1345.26C191.07,1128.6,119.72,914.21,3.79,713.41
						c-33.84-58.61-70.6-114.49-109.96-167.61c-1.14,6.43-0.02,13.3-2.82,18.2c-8,11-6,26-7,38c-6,88,1,176-4,264c-4,79,1,159-2,238
						c0,2-3,5-3,7c0,8-2,15-2,23c-2.45,87.31-2.23,175.3-1.53,262.85c41.06,19.2,84.35,30.89,129.19,31.43
						C79.43,1429.22,154.24,1394.85,220.94,1345.26z"/>
					<path id="pani_2_" class="st15" d="M205.57,1252.49c-35.82-184.93-102.43-367-201.78-539.08
						c-33.84-58.62-70.59-114.52-109.96-167.64c-1.15,6.43-0.02,13.32-2.83,18.23c-8,11-6,26-7,38c-6,88,1,176-4,264
						c-4,79,1,159-2,238c0,2-3,5-3,7c0,8-2,15-2,23c-1.28,45.8-1.83,91.79-1.96,137.8C-20.29,1298.11,96.13,1292.99,205.57,1252.49z
						"/>
					<path id="vak_1_" class="st16" d="M3.79,713.41c-33.84-58.62-70.59-114.52-109.96-167.65c-1.15,6.44-0.02,13.32-2.83,18.24
						c-8,11-6,26-7,38c-6,88,1,176-4,264c-4,79,1,159-2,238c0,2-3,5-3,7c0,8-2,15-2,23c-0.05,1.64-0.08,3.29-0.13,4.93
						c39.26,4.23,81.86,6.39,127.92,5.73c65.24-0.94,123.92-6.74,176.17-15.5C138.38,986.78,80.96,847.08,3.79,713.41z"/>
				</g>
				<g>
					<path id="agni_2_" class="st17" d="M-117.66,783.52c-0.13-0.23-0.27-0.46-0.41-0.69c0.03,27.72-0.36,55.45-1.93,83.17
						c-4,79,1,159-2,238c0,2-3,5-3,7c0,8-2,15-2,23c-3,107-2,215-1,322c0,2,3,4,3,6c2,37-2,73,2,111c3,22,2,44,3,67
						c4.9,126.37,3.08,253.69,2.06,380.09l57.95-31.01l9.67-8.92l50.52-121.15c35.43-106.67,70.24-257.29,65.24-437.74
						c-4.73-170.59-43.1-297.84-62.28-359.88C3.17,1061.39-42.79,913.18-117.66,783.52z"/>
					<path id="rupa_2_" class="st18" d="M-117.66,783.52c-0.14-0.23-0.27-0.47-0.41-0.7c0.03,27.73-0.36,55.45-1.93,83.18
						c-4,79,1,159-2,238c0,2-3,5-3,7c0,8-2,15-2,23c-2.45,87.31-2.23,175.3-1.53,262.85c41.06,19.2,84.35,30.89,129.19,31.43
						c21.93,0.26,43.56-2.22,64.79-7C57.96,1203.61-1.4,984.89-117.66,783.52z"/>
					<path id="pada_2_" class="st19" d="M54.08,1286.1C30.94,1113.78-25.47,943.2-117.66,783.52c-0.13-0.23-0.27-0.46-0.41-0.7
						c0.03,27.72-0.36,55.45-1.93,83.17c-4,79,1,159-2,238c0,2-3,5-3,7c0,8-2,15-2,23c-1.28,45.8-1.83,91.78-1.96,137.78
						C-69.46,1286.19-7.64,1291.19,54.08,1286.1z"/>
					<path id="cakshus_2_" class="st20" d="M-117.66,783.52c-0.13-0.23-0.27-0.46-0.41-0.7c0.03,27.73-0.36,55.45-1.93,83.18
						c-4,79,1,159-2,238c0,2-3,5-3,7c0,7.96-1.97,14.93-2,22.87c41.52,4.6,86.68,6.99,135.58,6.28c5.94-0.09,11.81-0.21,17.64-0.38
						C-4.03,1017.68-51.68,897.81-117.66,783.52z"/>
				</g>
				<g>
					<path id="vishuddhi_2_" class="st21" d="M3.89,135.88l-117.23,204.08c-3.23,22.15-3.41,44.09,1.34,66.03c6,35,14,69,21,102
						c-1,0-3,0-4,0c-0.05-0.09-0.07-0.19-0.11-0.29c-0.88,6.76-3.89,13.53-6.89,20.29c-1,3,1,7-1,10c-6,8-2,19-6,26c-8,11-6,26-7,38
						c-6,88,1,176-4,264c-2.24,44.25-1.66,88.81-1.24,133.33l622.69,2.75L3.89,135.88z"/>
					<path id="anahata_2_" class="st22" d="M3.79,713.41c-33.84-58.62-70.59-114.52-109.96-167.64c-1.15,6.43-0.02,13.32-2.83,18.23
						c-8,11-6,26-7,38c-6,88,1,176-4,264c-2.26,44.7-1.65,89.73-1.23,134.71l258.15,0.57C101.98,903.14,57.71,806.8,3.79,713.41z"/>
					<path id="manipura_2_" class="st23" d="M-118.07,784.83c0,27.06-0.4,54.11-1.93,81.17c-2.26,44.7-1.65,89.73-1.23,134.71
						l103.66,0.23C-44.2,927.3-77.62,854.99-118.07,784.83z"/>
				</g>
				<g id="eye_154_">
					<path id="kaala_2_" class="st24" d="M3.64,136.09c-99.59,172.84-107.12,392.34-0.21,577.51l501.18-289.35
						C397.7,239.08,203.12,136.26,3.64,136.09z"/>
					<path id="niyati_2_" class="st25" d="M504.61,424.25C504.61,424.25,504.61,424.25,504.61,424.25L3.44,713.61c0,0,0,0,0,0
						c106.91,185.18,300.66,288.41,500.14,288.58C603.17,829.35,611.53,609.43,504.61,424.25z"/>
					<circle id="raga_2_" class="st26" cx="253.72" cy="569.11" r="133.81"/>
					<path id="vidya_2_" class="st27" d="M369.5,502.02c91.12,157.82,134.29,330.16,134.07,500.16
						c99.4-172.78,107.88-392.88,1.04-577.93C397.77,239.2,202.98,136.4,3.64,136.09C150.98,220.9,278.39,344.21,369.5,502.02z"/>
					<path id="kalaa_2_" class="st28" d="M137.84,636.01C46.72,478.19,3.42,306.1,3.64,136.09
						c-99.59,172.84-107.12,392.34-0.21,577.51c106.91,185.18,300.66,288.41,500.14,288.58
						C356.23,917.38,228.96,793.83,137.84,636.01z"/>
					<path id="purusha_2_" class="st29" d="M212.8,498.69c38.96-22.49,88.77-9.14,111.26,29.82c22.49,38.96,9.15,88.76-29.81,111.25
						c-38.96,22.49-88.77,9.15-111.26-29.8C160.49,571,173.84,521.18,212.8,498.69z"/>
				</g>
				<path id="buddhi" class="st30" d="M137.84,636.02l-255.59,0.66c-2.62,76.44,2.09,152.88-2.26,229.32
					c-0.88,17.42-1.31,34.9-1.5,52.4l47.52,82.3L137.84,636.02z"/>
				<path id="ahankara_1_" class="st31" d="M-118.47,722.76c0.36,47.75,1.18,95.5-1.53,143.24c-0.47,9.25-0.8,18.51-1.05,27.78
					l128-182.19L-118.47,722.76z"/>
			</g>
		</g>
		<g id="topleft">
			<path class="st11" d="M0,138.96c-33.18-18.88-51.78-57.24-90.32-49.14c0.43,11.58-27.1,21.61-25.89,33.19"/>
			<path class="st32" d="M450.94-70.2C339.33,65.8,173.35,140.08,3.83,140.3l-0.06,0.11c0,0-28.69-9.99-73.97-39.1v1968.9h2140.4
				V-70.2H450.94z"/>
			<path class="st12" d="M3.83,140.3c-0.05,0-0.1,0-0.15,0c-0.03,0-0.06,0-0.09,0c0,0,0,0,0,0h0c0,0,0,0,0,0c0,0,0,0,0,0
				c-2.02-3.51-3.99-7.04-5.93-10.58L-70.2,10.97v90.33c45.28,29.11,73.97,39.1,73.97,39.1L3.83,140.3z"/>
			<path class="st21" d="M-60.17-23.83c-1.34-6.04-2.59-12.11-3.74-18.19c-1.76-9.35-3.29-18.74-4.6-28.17h-1.7v81.17l67.86,118.74
				C-25.86,86.85-43.81,41.3-55.86-5.77C-57.39-11.77-58.83-17.79-60.17-23.83z"/>
			<path class="st25" d="M125.39-70.2h-1.71H25.91C11.1-1.64,3.76,67.7,3.6,136.72c0,1.19-0.01,2.38-0.01,3.58c0,0,0,0,0,0h0
				c0.12-0.07,0.24-0.14,0.36-0.21c94.61-54.51,181.09-125,254.98-210.29H125.39z"/>
			<path class="st27" d="M3.95,140.09l-0.12,0.21c169.38-0.33,335.48-74.61,447.09-210.5H258.93
				C185.04,15.08,98.56,85.58,3.95,140.09z"/>
			<path class="st28" d="M-68.5-68.2c1.3,9.43,2.83,18.83,4.6,28.17c1.15,6.08,2.39,12.15,3.74,18.19
				c1.34,6.04,2.78,12.06,4.31,18.06c12.04,47.07,30,92.63,53.51,135.49l4.97,8.69l0.98-1.68C3.76,69.7,11.1,0.36,25.91-68.2H-68.5z
				"/>
		</g>
		<g id="topright">
			<path class="st12" d="M2001.93,130.47c-1.83,3.32-3.68,6.63-5.57,9.92v0l0,0v0c-0.04,0-0.08,0-0.13,0l-0.06,0.1l0,0.01
				c0,0,28.51,25.75,73.82-3.39l0.2-125.49L2001.93,130.47z"/>
			<path class="st21" d="M2068.47-70.2c-9.7,70.19-32.22,138.31-66.54,200.67l68.27-118.85V-70.2H2068.47z"/>
			<path class="st24" d="M1996.36,140.17c0.08-70.15-7.27-140.66-22.31-210.37h-94.32h-4.7h-134.03
				c73.82,85.27,160.56,156.15,255.18,210.7l-0.18-0.32c0.09,0.05,0.18,0.11,0.27,0.16L1996.36,140.17z"/>
			<path class="st27" d="M1740.99-70.2h-191.92c111.57,135.88,277.58,210.22,446.91,210.59l-0.18-0.32
				C1901.18,85.52,1814.81,15.06,1740.99-70.2z"/>
			<path class="st28" d="M2001.93,130.47c34.32-62.37,56.85-130.48,66.54-200.67h-94.43c15.05,69.71,22.39,140.22,22.31,210.37
				L2001.93,130.47z"/>
		</g>
		<g id="right">
			<g>
				<g>
					<path id="akasha_2_" class="st9" d="M2138.22,1549.23c-4-57,0-114-1-171c0-2-4-4-4-6c-1-82-1-163,0-245c1-9,4-18,4-27
						c0-81,7-160,27-241c1-6-1-11,0-17c3-12,9-22,9-33c1-49-21-92-31-141c-15-70-25-135-25-204c0-7-3-13-4-20c0-21-4-43-5-64
						c-3.01-80.39-2.06-160.78-1.4-241.17l-112.28,0.25l-500.08,866.17l519.82,867.94l130.24-256.1c-0.25-4.35-0.99-8.6-2.3-12.09
						C2136.22,1588.23,2140.22,1568.23,2138.22,1549.23z"/>
					<path id="shabda_2_" class="st10" d="M2135,1369c-1-82-1-163,0-245c1-9,4-18,4-27c0-81,7-160,27-241c1-6-1-11,0-17
						c3-12,9-22,9-33c1-49-21-92-31-141c-15-70-25-135-25-204c0-7-3-13-4-20c0-21-4-43-5-64c-2.97-79.34-0.97-186.37-0.31-265.72
						c-66.92-4.56-113.46,24.8-113.46,24.8l-500.09,866c0,0,227.43,429.5,503.2,426.2c48.72-0.58,95.61-14.34,139.81-36.59
						c-0.01-5.56-0.05-11.13-0.15-16.69C2139,1373,2135,1371,2135,1369z"/>
					<path id="vaak_2_" class="st11" d="M2135,1124c1-9,4-18,4-27c0-81,7-160,27-241c1-6-1-11,0-17c3-12,9-22,9-33
						c1-49-21-92-31-141c-15-70-25-135-25-204c0-7-3-13-4-20c0-21-4-43-5-64c-2.86-76.49-2.14-152.99-1.5-229.48
						c-37.26-7.55-74.86-11.32-112.27-11.43l-500.09,866c48.8,83.91,119.6,156.76,209.67,208.77
						c134.97,77.92,288.39,94.96,428.48,59.64C2134.17,1221.73,2134.4,1173.04,2135,1124z"/>
					<path id="shrotra_2_" class="st12" d="M2139,1097c0-81,7-160,27-241c1-6-1-11,0-17c3-12,9-22,9-33c1-49-21-92-31-141
						c-15-70-25-135-25-204c0-7-3-13-4-20c0-21-4-43-5-64c-2.19-58.5-2.28-117.01-1.91-175.51
						c-66.58-49.65-111.86-65.41-111.86-65.41l-500.09,866c0,0,154.3,133.16,495.28,138.07c52.02,0.75,99.82-2,143.49-7.19
						c0.03-2.99,0.06-5.97,0.1-8.96C2136,1115,2139,1106,2139,1097z"/>
				</g>
				<g id="yam_1_">
					<path id="vayu_1_" class="st13" d="M2134.32,1840.12c1-10,1-20,2-30c1-2,3-5,3-7c0-8,2-15,3-20c5-38,16-72,27-107
						c2-8,2-20-1-28c-5.1-13.61-3.27-29.3-3.78-43.55c-2.16-61.21-1.22-122.22-1.22-183.45c0-2-4-4-4-6c-1-82-1-163,0-245
						c1-9,4-18,4-27c0-81,7-160,27-241c1-6-1-11,0-17c3-12,9-22,9-33c0-40.65-31-141-31-141c-18.4-39.97-39.16-100.11-46.52-186.07
						c-64.94,84.77-110.68,159.93-140.73,213.61c-165.89,296.43-196.15,551.23-202.01,606.62c-5.58,52.78-7.15,96.09-7.64,123.25
						c77.64,134.9,155.28,269.81,232.93,404.71l127.88,105.48C2131.66,1932.46,2131.69,1886.07,2134.32,1840.12z"/>
					<path id="sparsha_1_" class="st14" d="M2135,1369c-1-82-1-163,0-245c1-9,4-18,4-27c0-81,7-160,27-241c1-6-1-11,0-17
						c3-12,9-22,9-33c1-49-21-92-31-141c-10.29-48.04-18.23-93.72-22.2-139.95c-45.3,59.26-87.31,122.06-125.59,188.36
						c-115.93,200.8-187.29,415.2-217.15,631.87c66.7,49.57,141.52,83.94,220.28,83c48.72-0.58,95.61-14.34,139.81-36.59
						c-0.01-5.56-0.05-11.13-0.15-16.69C2139,1373,2135,1371,2135,1369z"/>
					<path id="pani_1_" class="st15" d="M2135,1124c1-9,4-18,4-27c0-81,7-160,27-241c1-6-1-11,0-17c3-12,9-22,9-33
						c1-49-21-92-31-141c-10.29-48.04-18.23-93.73-22.2-139.97c-45.3,59.26-87.31,122.07-125.58,188.38
						c-99.35,172.09-165.96,354.16-201.78,539.08c111.22,41.16,229.66,45.78,339.85,18C2134.17,1221.73,2134.4,1173.04,2135,1124z"
						/>
					<path id="tvak_1_" class="st16" d="M2139,1097c0-81,7-160,27-241c1-6-1-11,0-17c3-12,9-22,9-33c1-49-21-92-31-141
						c-10.3-48.05-18.24-93.74-22.2-139.99c-45.3,59.26-87.3,122.09-125.58,188.4c-77.18,133.68-134.6,273.38-173.17,415.76
						c52.25,8.75,110.93,14.55,176.17,15.49c49.09,0.71,94.26-1.8,135.64-6.59c0.05-4.69,0.09-9.37,0.15-14.06
						C2136,1115,2139,1106,2139,1097z"/>
				</g>
				<g id="ram_1_">
					<path id="agni_1_" class="st17" d="M2000,1861.54l47.88,116.88l22.32,13.03V873.16c-52.5,106.35-129.57,298.12-135.65,548.11
						C1930,1608.45,1966.87,1760.98,2000,1861.54z"/>
					<path id="rupa_1_" class="st18" d="M2135,1369c-1-82-1-163,0-245c1-9,4-18,4-27c0-81,7-160,27-241c1-6-1-11,0-17
						c3-12,9-22,9-33c0.63-30.87-7.87-59.36-16.75-88.47c-14.06,21.49-27.6,43.49-40.59,65.99
						c-93.9,162.63-142.13,349.26-142.13,349.26c-21.7,83.91-29.94,147.64-32.36,167.6c-5.76,47.41-7.92,88.55-8.62,120.89
						c18.12,4.06,40,7.3,64.79,7c48.72-0.58,95.61-14.34,139.81-36.59c-0.01-5.56-0.05-11.13-0.15-16.69
						C2139,1373,2135,1371,2135,1369z"/>
					<path id="pada_1_" class="st19" d="M2135,1124c1-9,4-18,4-27c0-81,7-160,27-241c1-6-1-11,0-17c3-12,9-22,9-33
						c0.63-30.86-7.86-59.35-16.74-88.45c-10.06,15.38-24.43,38-40.6,65.97c-90.6,156.68-129.11,293.16-143.14,348.38
						c-9.82,38.63-21.26,90.98-29.56,154.17c27.24,2.26,59.69,3,96.06-0.04c35.73-2.99,67.11-8.96,93.27-15.55
						C2134.17,1221.73,2134.4,1173.04,2135,1124z"/>
					<path id="cakshus_1_" class="st20" d="M2139,1097c0-81,7-160,27-241c1-6-1-11,0-17c3-12,9-22,9-33
						c0.63-30.87-7.87-59.36-16.74-88.46c-10.4,15.91-24.65,38.42-40.6,65.99c-56.08,96.96-88.27,179.04-103,219.3
						c-13.44,36.72-29.06,84.33-43.14,141.13c6.55,0.59,13.21,1.06,19.98,1.4c52.62,2.67,100.84-2.9,143.41-12.39
						c0.03-2.99,0.06-5.97,0.1-8.96C2136,1115,2139,1106,2139,1097z"/>
				</g>
				<g id="sukshma">
					<path id="vishuddhi_1_" class="st21" d="M2166,839c3-12,9-22,9-33c1-49-21-92-31-141c-15-70-25-135-25-204c0-7-3-13-4-20
						c0-21-4-43-5-64c-0.55-14.69-0.96-29.38-1.27-44.06l-111.36-194.86l-501.36,864l646.72-1.42c3.93-48.07,11.25-96,23.26-144.65
						C2167,850,2165,845,2166,839z"/>
					<path id="anahata_1_" class="st22" d="M2166,839c3-12,9-22,9-33c1-49-21-92-31-141c-10.29-48.04-18.23-93.72-22.2-139.96
						c-45.3,59.25-87.31,122.06-125.59,188.36c-53.92,93.39-98.19,189.73-133.14,287.87l279.66-0.62
						c3.93-48.08,11.25-96.01,23.26-144.66C2167,850,2165,845,2166,839z"/>
					<path id="manipura_1_" class="st23" d="M2166,839c3-12,9-22,9-33c0.62-30.42-7.62-58.52-16.35-87.18
						c-13.9,21.23-27.28,42.96-40.12,65.2c-40.66,70.42-76.34,143-103.08,216.92l127.29-0.28c3.93-48.08,11.25-96.01,23.26-144.66
						C2167,850,2165,845,2166,839z"/>
				</g>
				<g id="eye_66_">
					<path id="kaala_1_" class="st24" d="M1496.32,1002.19c199.48-0.17,393.33-103.4,500.24-288.58l-501.18-289.35
						C1388.47,609.43,1396.73,829.35,1496.32,1002.19z"/>
					<path id="niyati_1_" class="st25" d="M1495.39,424.25C1495.39,424.25,1495.39,424.25,1495.39,424.25l501.18,289.35c0,0,0,0,0,0
						c106.91-185.18,99.44-404.58-0.15-577.42C1796.93,136.36,1602.3,239.08,1495.39,424.25z"/>
					<circle id="raga_1_" class="st26" cx="1746.28" cy="569.11" r="133.81"/>
					<path id="vidya_1_" class="st27" d="M1630.29,502.38c91.12-157.82,218.78-281.38,366.12-366.19
						c-199.34,0.31-394.18,103.02-501.02,288.07c-106.84,185.05-98.47,405.15,0.93,577.93
						C1496.1,832.18,1539.18,660.19,1630.29,502.38z"/>
					<path id="kalaa_1_" class="st28" d="M1862.16,636.01c-91.12,157.82-218.5,281.37-365.84,366.18
						c199.48-0.17,393.33-103.4,500.25-288.58c106.91-185.18,99.44-404.58-0.15-577.42
						C1996.63,306.19,1953.28,478.19,1862.16,636.01z"/>
					<path id="purusha_1_" class="st29" d="M1705.76,639.76c-38.96-22.49-52.3-72.3-29.8-111.26
						c22.49-38.96,72.29-52.3,111.25-29.81c38.96,22.49,52.31,72.3,29.82,111.26C1794.53,648.9,1744.71,662.25,1705.76,639.76z"/>
				</g>
				<path class="st30" d="M2175,806c1-49-21-92-31-141c-2.04-9.51-3.98-18.92-5.82-28.27l-276.02-0.72l211.82,364.69l91.75-158.92
					c0.03-0.91,0.11-1.83,0.27-2.78C2169,827,2175,817,2175,806z"/>
				<path class="st31" d="M2166,839c3-12,9-22,9-33c0.56-27.68-6.21-53.45-14.02-79.46l-167.92-14.96l157.22,223.8
					c3.98-26.34,9.14-52.75,15.72-79.38C2167,850,2165,845,2166,839z"/>
			</g>
		</g>
	</g>
	<g id="jiva" class="st1">
		<g id="ham">
			<polygon id="akasha" class="st9" points="2000,1861.54 1500.03,1000 499.86,1000 0.04,1870.16 			"/>
			<path id="shabda" class="st10" d="M1499.99,999.92c0,0,258.29,411.61,117.55,648.79S1000,1861.54,1000,1861.54
				c0,0-476.79,24.36-617.53-212.82s117.5-648.89,117.5-648.89L1499.99,999.92z"/>
			<path id="vaak" class="st11" d="M499.96,999.83C451.69,1084.04,424,1181.78,424,1285.8c0,317.97,257.88,575.74,576,575.74
				s576-257.77,576-575.74c0-104.01-27.74-201.66-76.01-285.87L499.96,999.83z"/>
			<path id="shrotra" class="st12" d="M1499.99,999.92c0,0,38.23,200.12-128.01,497.87S1000,1861.54,1000,1861.54h0
				c0,0-205.73-66-371.97-363.75S499.96,999.83,499.96,999.83L1499.99,999.92z"/>
		</g>
		<g id="yam">
			<path id="vayu" class="st13" d="M231.2,1467.71L0.21,1859.01c-0.24,0.41-0.36,0.87-0.36,1.34L0,1997.38
				c0,1.45,1.18,2.62,2.62,2.62h1995.24c1.45,0,2.63-1.18,2.62-2.63l-0.49-135.13c0-0.46-0.12-0.91-0.35-1.31l-227.12-391.37
				c-0.26-0.45-0.65-0.81-1.11-1.04c-232.78-115.24-494.6-179.95-771.42-179.95c-276.87,0-534.9,62.84-767.7,178.11
				C231.84,1466.91,231.46,1467.27,231.2,1467.71z"/>
			<path id="sparsha" class="st14" d="M344.21,1416.45c-9.58,82.55-1.94,164.53,38.26,232.27
				C523.21,1885.89,1000,1861.54,1000,1861.54c0,0,476.79,24.36,617.54-212.82c40.2-67.75,47.84-149.72,38.24-232.27
				c-202.57-82.46-423.91-127.87-655.78-127.87C768.13,1288.57,546.78,1333.98,344.21,1416.45z"/>
			<path id="pani" class="st15" d="M1000,1288.57c-198.71,0-389.69,33.35-567.75,94.79c46.37,271.5,282.91,478.17,567.75,478.17
				s521.38-206.67,567.75-478.17C1389.69,1321.92,1198.71,1288.57,1000,1288.57z"/>
			<path id="tvak" class="st16" d="M1000,1861.54c0,0,205.73-57,371.97-354.75c31.81-56.97,56.12-110.68,74.66-160.31
				c-142.59-37.78-292.28-57.9-446.63-57.9c-154.35,0-304.05,20.12-446.64,57.91c18.55,49.63,42.87,103.34,74.67,160.31
				C794.27,1804.54,1000,1861.54,1000,1861.54z"/>
		</g>
		<g id="ram">
			<path id="agni" class="st17" d="M2000,1861.54c-251.48-265.69-607.01-432.73-1000-432.73c-393.09,0-750.48,166.92-1001.98,432.73
				l-67.72,104.28l-0.3,64.55V2070l2140,0.89l2.89-89.25l-2.89-12.84L2000,1861.54z"/>
			<path id="rupa" class="st18" d="M1000,1428.8c-232.52,0-451.62,57.95-643.87,160.3c6.48,20.78,15.14,40.75,26.33,59.61
				C523.21,1885.89,1000,1861.54,1000,1861.54c0,0,476.79,24.36,617.54-212.82c11.19-18.86,19.85-38.83,26.33-59.61
				C1451.62,1486.75,1232.52,1428.8,1000,1428.8z"/>
			<path id="pada" class="st19" d="M1000,1428.8c-184.38,0-360.31,36.44-521.12,102.56c92.2,195.15,290.88,330.17,521.12,330.17
				s428.91-135.03,521.12-330.17C1360.31,1465.24,1184.38,1428.8,1000,1428.8z"/>
			<path id="cakshus" class="st20" d="M1000,1428.8c-131.96,0-259.6,18.67-380.47,53.52c2.77,5.12,5.6,10.28,8.49,15.46
				c166.23,297.74,371.96,363.74,371.97,363.75c0.02-0.01,205.74-66.01,371.97-363.75c2.89-5.18,5.72-10.34,8.49-15.46
				C1259.6,1447.47,1131.96,1428.8,1000,1428.8z"/>
		</g>
		<g id="vam">
			<path id="apas" class="st33" d="M200.3,2000l-47.17,70h249.34l237.77,11.91h708.28l128.93-11.61l366.29-0.32L1799.7,2000
				c-173.24-258.79-466.76-428.96-799.7-428.96S373.54,1741.21,200.3,2000z"/>
			<path id="rasa" class="st34" d="M1537.7,1736.16c-153.61-104.27-338.61-165.13-537.7-165.13s-384.09,60.86-537.7,165.13
				c189.02,143.18,537.7,125.37,537.7,125.37C1000,1861.54,1348.68,1879.34,1537.7,1736.16z"/>
			<path id="upastha" class="st35" d="M999,1571.04c-153.26,0-298.17,36.07-426.83,100.23
				c105.42,116.83,258.04,190.27,427.83,190.27c169.46,0,321.82-73.15,427.22-189.58C1298.21,1607.36,1152.81,1571.04,999,1571.04z"
				/>
			<path id="jihva" class="st36" d="M999,1571.04c-102.54,0-201.33,16.16-294.02,46.05c146.58,196.81,295.01,244.44,295.02,244.45
				c0.01,0,148.18-47.55,294.64-243.93C1201.47,1587.38,1102.13,1571.04,999,1571.04z"/>
		</g>
		<g id="lam">
			<path id="prithivi" class="st37" d="M506.15,2000l-38.99,69.82l1061.07-1.03l-34.39-68.79
				c-98.47-171.99-282.75-287.73-493.85-287.73S604.62,1828.01,506.15,2000z"/>
			<path id="gandha" class="st38" d="M1340.2,1825.87c-94.95-71.36-212.68-113.6-340.2-113.6s-245.25,42.24-340.2,113.6
				c167.98,44.47,340.2,35.67,340.2,35.67C1000,1861.54,1172.22,1870.33,1340.2,1825.87z"/>
			<path id="payu" class="st39" d="M1282.41,1787.69c-83.25-47.99-179.65-75.42-282.41-75.42s-199.16,27.43-282.41,75.42
				c83.45,47.01,179.79,73.84,282.41,73.84S1198.96,1834.71,1282.41,1787.69z"/>
			<path id="ghrana" class="st40" d="M1000,1712.27c-63.88,0-125.31,10.6-182.65,30.15c101.52,93.08,182.64,119.11,182.65,119.12
				c0.01,0,81.13-26.04,182.65-119.12C1125.31,1722.87,1063.88,1712.27,1000,1712.27z"/>
		</g>
		<g id="chrakras">
			<polygon id="vishuddhi" class="st21" points="998.73,1859.34 1498.83,1001.91 499.9,999.72 			"/>
			<path id="anahata" class="st22" d="M1000,1861.54l315.87-544.33c-102.46-18.8-208.03-28.63-315.87-28.63
				s-213.41,9.83-315.87,28.63L1000,1861.54z"/>
			<path id="manipura" class="st23" d="M1000,1861.54l238.33-410.71c-77.38-13.81-157.02-21.02-238.33-21.02
				s-160.95,7.22-238.33,21.02L1000,1861.54z"/>
			<path id="svadhisthana" class="st41" d="M1000,1861.54l160.76-277.04c-52.28-8.85-105.99-13.46-160.76-13.46
				s-108.48,4.62-160.76,13.46L1000,1861.54z"/>
			<path id="muladhara" class="st42" d="M1000,1712.27c-28.22,0-55.97,2.08-83.09,6.08l83.09,143.19l83.09-143.19
				C1055.97,1714.35,1028.22,1712.27,1000,1712.27z"/>
		</g>
		<g id="eye_44_">
			<path id="niyati" class="st24" d="M499.96,1000.04c99.89,172.67,286.22,288.93,500.04,288.94V710.26
				C786.18,710.26,599.85,827.37,499.96,1000.04z"/>
			<path id="kaala" class="st25" d="M1000,710.26C1000,710.26,1000,710.26,1000,710.26l0,578.71c0,0,0,0,0,0
				c213.82,0,400.1-116.18,499.98-288.84C1400.1,827.46,1213.82,710.26,1000,710.26z"/>
			<circle id="raga" class="st26" cx="1000" cy="999.97" r="133.81"/>
			<path id="vidya" class="st27" d="M999.8,866.16c182.23,0,353.07,48.78,500.19,133.97c-99.94-172.47-286.31-289.87-499.98-289.87
				c-213.68,0-400.1,117.3-500.04,289.77C647.08,914.84,817.56,866.16,999.8,866.16z"/>
			<path id="kalaa" class="st28" d="M1000,1133.78c-182.24,0-352.92-48.55-500.04-133.74c99.89,172.67,286.22,288.94,500.04,288.94
				c213.82,0,400.1-116.18,499.98-288.84C1352.87,1085.33,1182.24,1133.78,1000,1133.78z"/>
			<path id="purusha" class="st29" d="M918.55,1000.2c0-44.99,36.47-81.44,81.45-81.44c44.98,0,81.44,36.45,81.44,81.44
				c0,44.99-36.46,81.45-81.44,81.45C955.02,1081.66,918.55,1045.19,918.55,1000.2z"/>
		</g>
		<g id="antahkarana">
			<polygon id="buddhi_2_" class="st30" points="1000.01,1133.78 790.08,1499.57 1209.92,1499.57 			"/>
			<polygon id="manas_2_" class="st43" points="1000.01,1767.1 1109.94,1611.25 890.06,1611.23 			"/>
			<polygon id="ahankara" class="st31" points="862.7,1580.57 1000.01,1284.93 1137.3,1580.57 			"/>
		</g>
	</g>
</g>
<path id="shiva_1_" class="st6" d="M1068.57,256.38l-68.4-118.44l-68.4,118.66c20.1,11.68,43.57,18.12,68.49,18.12
	C1025.15,274.71,1048.49,268.04,1068.57,256.38z"/>
</svg>
