<svg xmlns="http://www.w3.org/2000/svg" viewBox="0 0 400 400"><defs><style>.a{font-size:16px;font-family:Fira Sans;}</style></defs><title>Five_Elements_and_Pentagram</title><path d="M199.594,113.219l-1.875,5.875L177.906,181l-65.719,1.094-6.094.125,4.969,3.531,53.187,37.875-19.875,62.062-1.906,5.938,5-3.719,52.375-38.937,52.656,37.5,4.938,3.5-1.875-5.781-20.156-61.625,53.5-39.781,5-3.719-6.219.094-66.125,1.094-20.031-61.187Zm0.063,12.969,17.688,54.156-35.219.594Zm81.906,57.063-47.469,35.281-11.25-34.281Zm-62.906,1.063,12.031,36.75-30.875,22.969-30.844-21.969,11.875-37.125Zm-42.031.719-11.094,34.594L118.313,186ZM232,225.063l17.875,54.594-46.656-33.187Zm-64.344,1,28.781,20.469-46.344,34.437Z"/><text class="a" transform="translate(142.185 57.96)">ПРОСТРАНСТВО</text><text class="a" transform="translate(97.893 354.801)">ВОДА</text><text class="a" transform="translate(256.643 354.801)">ЗЕМЛЯ</text><text class="a" transform="translate(50.662 138.46)">ВОЗДУХ</text><text class="a" transform="translate(294.207 138.46)">ОГОНЬ</text><path d="M100.687,182.625L80.875,148.313l-1.719-3.031-1.75,3.031L57.594,182.625l-1.719,3h46.562Zm-37.906-1,16.375-28.344L95.5,181.625H62.781Z"/><path d="M138.156,294.762H95.031l1.75,3,19.813,34.344,1.719,3,1.75-3,19.813-34.344,1.719-3h-3.437Zm-19.844,32.344-16.344-28.344h32.719Z"/><path d="M301.375,294.478H258.281l1.719,3,19.812,34.344,1.75,3,1.719-3,19.813-34.344,1.75-3h-3.469Zm-19.813,32.344-8.281-14.312h16.531Zm10.563-18.312H270.969l-5.781-10.031h32.719Z"/><path d="M340.665,182.469l-19.812-34.344-1.75-3-1.719,3L297.54,182.469l-1.719,3h46.563ZM319.1,153.125l8.281,14.313H310.853Zm-16.344,28.344,5.781-10.031H329.7l5.781,10.031H302.759Z"/><path d="M199.984,65.656a19.531,19.531,0,1,0,19.531,19.531A19.542,19.542,0,0,0,199.984,65.656Zm0,35.063a15.531,15.531,0,1,1,15.531-15.531A15.481,15.481,0,0,1,199.984,100.719Z"/></svg>