<svg xmlns="http://www.w3.org/2000/svg" viewBox="0 0 381.739 272.667"><defs><style>.a{fill:#95c11f;}.b{fill:#fff;}.c{fill:#009a93;}.d{fill:#0069b4;}.e{fill:#312783;}.f{fill:#e6007e;}.g{fill:#e30613;}.h{font-size:17.005px;fill:#1d1d1b;font-family:Helvetica Neue;}</style></defs><title>Atma-shatakam</title><circle class="a" cx="297.76" cy="107.484" r="7.025"/><path class="b" d="M298.883,106.2a1.138,1.138,0,0,0-.251-0.284,1.159,1.159,0,0,0-.341-0.19,1.176,1.176,0,0,0-.4-0.068,1.319,1.319,0,0,0-.646.147,1.222,1.222,0,0,0-.431.395,1.726,1.726,0,0,0-.24.563,2.8,2.8,0,0,0-.075.653,2.605,2.605,0,0,0,.075.628,1.69,1.69,0,0,0,.24.549,1.231,1.231,0,0,0,.431.391,1.314,1.314,0,0,0,.646.147,1.042,1.042,0,0,0,.807-0.316,1.46,1.46,0,0,0,.355-0.832h1.091a2.612,2.612,0,0,1-.223.868,2.077,2.077,0,0,1-.474.66,2.014,2.014,0,0,1-.689.416,2.526,2.526,0,0,1-.868.144,2.626,2.626,0,0,1-1.059-.2,2.265,2.265,0,0,1-.793-0.563,2.489,2.489,0,0,1-.5-0.844,3.093,3.093,0,0,1-.172-1.044,3.205,3.205,0,0,1,.172-1.066,2.562,2.562,0,0,1,.5-0.858,2.26,2.26,0,0,1,.793-0.574,2.747,2.747,0,0,1,1.859-.086,2.163,2.163,0,0,1,.675.355,1.927,1.927,0,0,1,.492.578,2.065,2.065,0,0,1,.244.79h-1.091A0.919,0.919,0,0,0,298.883,106.2Z"/><circle class="c" cx="66.277" cy="68.291" r="7.025"/><path class="b" d="M66.524,65.729a2.641,2.641,0,0,1,.922.158,2,2,0,0,1,.739.474,2.189,2.189,0,0,1,.488.789,3.194,3.194,0,0,1,.176,1.113,3.548,3.548,0,0,1-.143,1.033,2.278,2.278,0,0,1-.434.818,2.034,2.034,0,0,1-.725.542,2.448,2.448,0,0,1-1.023.2H64.314V65.729h2.211Zm-0.079,4.177a1.457,1.457,0,0,0,.474-0.079,1.045,1.045,0,0,0,.409-0.262,1.315,1.315,0,0,0,.287-0.477,2.1,2.1,0,0,0,.108-0.718,2.981,2.981,0,0,0-.075-0.7,1.394,1.394,0,0,0-.248-0.535,1.1,1.1,0,0,0-.456-0.341,1.815,1.815,0,0,0-.7-0.118h-0.8v3.23h1Z"/><circle class="d" cx="80.328" cy="68.291" r="7.025"/><path class="b" d="M82.1,65.612V66.56H79.39v1.1h2.483v0.876H79.39v1.256h2.763v0.947h-3.89V65.612H82.1Z"/><circle class="c" cx="115.144" cy="68.291" r="7.025"/><path class="b" d="M115.392,65.729a2.641,2.641,0,0,1,.922.158,2,2,0,0,1,.739.474,2.189,2.189,0,0,1,.488.789,3.194,3.194,0,0,1,.176,1.113,3.548,3.548,0,0,1-.143,1.033,2.278,2.278,0,0,1-.434.818,2.034,2.034,0,0,1-.725.542,2.448,2.448,0,0,1-1.023.2h-2.211V65.729h2.211Zm-0.079,4.177a1.457,1.457,0,0,0,.474-0.079,1.045,1.045,0,0,0,.409-0.262,1.315,1.315,0,0,0,.287-0.477,2.1,2.1,0,0,0,.108-0.718,2.981,2.981,0,0,0-.075-0.7,1.394,1.394,0,0,0-.248-0.535,1.1,1.1,0,0,0-.456-0.341,1.815,1.815,0,0,0-.7-0.118h-0.8v3.23h1Z"/><circle class="d" cx="129.195" cy="68.291" r="7.025"/><path class="b" d="M130.963,65.612V66.56h-2.706v1.1h2.483v0.876h-2.483v1.256h2.763v0.947h-3.89V65.612h3.833Z"/><circle class="c" cx="192.113" cy="68.291" r="7.025"/><path class="b" d="M192.36,65.729a2.641,2.641,0,0,1,.922.158,2,2,0,0,1,.739.474,2.189,2.189,0,0,1,.488.789,3.194,3.194,0,0,1,.176,1.113,3.548,3.548,0,0,1-.143,1.033,2.278,2.278,0,0,1-.434.818,2.034,2.034,0,0,1-.725.542,2.448,2.448,0,0,1-1.023.2H190.15V65.729h2.211Zm-0.079,4.177a1.457,1.457,0,0,0,.474-0.079,1.045,1.045,0,0,0,.409-0.262,1.315,1.315,0,0,0,.287-0.477,2.1,2.1,0,0,0,.108-0.718,2.981,2.981,0,0,0-.075-0.7,1.394,1.394,0,0,0-.248-0.535,1.1,1.1,0,0,0-.456-0.341,1.815,1.815,0,0,0-.7-0.118h-0.8v3.23h1Z"/><circle class="c" cx="277.545" cy="68.291" r="7.025"/><path class="b" d="M277.792,65.729a2.641,2.641,0,0,1,.922.158,2,2,0,0,1,.739.474,2.189,2.189,0,0,1,.488.789,3.194,3.194,0,0,1,.176,1.113,3.548,3.548,0,0,1-.143,1.033,2.278,2.278,0,0,1-.434.818,2.034,2.034,0,0,1-.725.542,2.448,2.448,0,0,1-1.023.2h-2.211V65.729h2.211Zm-0.079,4.177a1.457,1.457,0,0,0,.474-0.079,1.045,1.045,0,0,0,.409-0.262,1.315,1.315,0,0,0,.287-0.477,2.1,2.1,0,0,0,.108-0.718,2.981,2.981,0,0,0-.075-0.7,1.394,1.394,0,0,0-.248-0.535,1.1,1.1,0,0,0-.456-0.341,1.815,1.815,0,0,0-.7-0.118h-0.8v3.23h1Z"/><circle class="c" cx="232.012" cy="107.484" r="7.025"/><path class="b" d="M232.26,104.921a2.641,2.641,0,0,1,.922.158,2,2,0,0,1,.739.474,2.189,2.189,0,0,1,.488.789,3.194,3.194,0,0,1,.176,1.113,3.548,3.548,0,0,1-.143,1.033,2.278,2.278,0,0,1-.434.818,2.034,2.034,0,0,1-.725.542,2.448,2.448,0,0,1-1.023.2h-2.211v-5.124h2.211Zm-0.079,4.177a1.457,1.457,0,0,0,.474-0.079,1.045,1.045,0,0,0,.409-0.262,1.315,1.315,0,0,0,.287-0.477,2.1,2.1,0,0,0,.108-0.718,2.981,2.981,0,0,0-.075-0.7,1.394,1.394,0,0,0-.248-0.535,1.1,1.1,0,0,0-.456-0.341,1.815,1.815,0,0,0-.7-0.118h-0.8v3.23h1Z"/><circle class="d" cx="206.164" cy="68.291" r="7.025"/><path class="b" d="M207.932,65.612V66.56h-2.706v1.1h2.483v0.876h-2.483v1.256h2.763v0.947H204.1V65.612h3.833Z"/><circle class="d" cx="261.804" cy="68.291" r="7.025"/><path class="b" d="M263.572,65.612V66.56h-2.706v1.1h2.483v0.876h-2.483v1.256h2.763v0.947h-3.89V65.612h3.833Z"/><circle class="d" cx="215.575" cy="107.484" r="7.025"/><path class="b" d="M217.343,104.805v0.947h-2.706v1.1h2.483v0.876h-2.483v1.256H217.4v0.947h-3.89v-5.124h3.833Z"/><circle class="c" cx="281.323" cy="107.484" r="7.025"/><path class="b" d="M281.57,104.921a2.641,2.641,0,0,1,.922.158,2,2,0,0,1,.739.474,2.189,2.189,0,0,1,.488.789,3.194,3.194,0,0,1,.176,1.113,3.548,3.548,0,0,1-.143,1.033,2.278,2.278,0,0,1-.434.818,2.034,2.034,0,0,1-.725.542,2.448,2.448,0,0,1-1.023.2h-2.211v-5.124h2.211Zm-0.079,4.177a1.457,1.457,0,0,0,.474-0.079,1.045,1.045,0,0,0,.409-0.262,1.315,1.315,0,0,0,.287-0.477,2.1,2.1,0,0,0,.108-0.718,2.981,2.981,0,0,0-.075-0.7,1.394,1.394,0,0,0-.248-0.535,1.1,1.1,0,0,0-.456-0.341,1.815,1.815,0,0,0-.7-0.118h-0.8v3.23h1Z"/><circle class="d" cx="264.886" cy="107.484" r="7.025"/><path class="b" d="M266.654,104.805v0.947h-2.706v1.1h2.483v0.876h-2.483v1.256h2.763v0.947h-3.89v-5.124h3.833Z"/><circle class="e" cx="136.22" cy="107.484" r="7.025"/><path class="b" d="M138.022,104.805v0.947h-2.476v1.184h2.146v0.876h-2.146v2.117h-1.127v-5.124h3.6Z"/><circle class="e" cx="199.138" cy="107.484" r="7.025"/><path class="b" d="M200.94,104.805v0.947h-2.476v1.184h2.146v0.876h-2.146v2.117h-1.127v-5.124h3.6Z"/><circle class="e" cx="246.063" cy="68.175" r="7.025"/><path class="b" d="M247.865,65.5v0.947h-2.476v1.184h2.146V68.5h-2.146V70.62h-1.127V65.5h3.6Z"/><circle class="f" cx="117.717" cy="107.367" r="7.025"/><path class="b" d="M118.357,109.777a1.884,1.884,0,0,1-.739.155,2.626,2.626,0,0,1-1.059-.2,2.265,2.265,0,0,1-.793-0.563,2.489,2.489,0,0,1-.5-0.844,3.093,3.093,0,0,1-.172-1.044,3.205,3.205,0,0,1,.172-1.066,2.562,2.562,0,0,1,.5-0.858,2.26,2.26,0,0,1,.793-0.574,2.585,2.585,0,0,1,1.059-.208,2.483,2.483,0,0,1,.764.118,2.165,2.165,0,0,1,.668.348,1.883,1.883,0,0,1,.729,1.342H118.7a1.079,1.079,0,0,0-.388-0.646,1.128,1.128,0,0,0-.7-0.215,1.319,1.319,0,0,0-.646.147,1.222,1.222,0,0,0-.431.395,1.726,1.726,0,0,0-.24.563,2.8,2.8,0,0,0-.075.653,2.605,2.605,0,0,0,.075.628,1.69,1.69,0,0,0,.24.549,1.231,1.231,0,0,0,.431.391,1.314,1.314,0,0,0,.646.147,1.1,1.1,0,0,0,1.22-1.105H117.7v-0.839h2.153v2.77h-0.718l-0.115-.581A1.684,1.684,0,0,1,118.357,109.777Z"/><circle class="f" cx="152.155" cy="106.903" r="7.025"/><path class="b" d="M152.8,109.312a1.884,1.884,0,0,1-.739.155,2.626,2.626,0,0,1-1.059-.2,2.265,2.265,0,0,1-.793-0.563,2.489,2.489,0,0,1-.5-0.844,3.093,3.093,0,0,1-.172-1.044,3.205,3.205,0,0,1,.172-1.066,2.562,2.562,0,0,1,.5-0.858,2.26,2.26,0,0,1,.793-0.574,2.585,2.585,0,0,1,1.059-.208,2.483,2.483,0,0,1,.764.118,2.165,2.165,0,0,1,.668.348,1.883,1.883,0,0,1,.729,1.342H153.14a1.079,1.079,0,0,0-.388-0.646,1.128,1.128,0,0,0-.7-0.215,1.319,1.319,0,0,0-.646.147,1.222,1.222,0,0,0-.431.395,1.726,1.726,0,0,0-.24.563,2.8,2.8,0,0,0-.075.653,2.605,2.605,0,0,0,.075.628,1.69,1.69,0,0,0,.24.549,1.231,1.231,0,0,0,.431.391,1.314,1.314,0,0,0,.646.147,1.1,1.1,0,0,0,1.22-1.105h-1.134v-0.839H154.3v2.77h-0.718l-0.115-.581A1.684,1.684,0,0,1,152.8,109.312Z"/><circle class="g" cx="66.277" cy="106.903" r="7.025"/><path class="b" d="M66.866,104.34l1.916,5.124h-1.17l-0.388-1.141H65.308l-0.4,1.141H63.772l1.938-5.124h1.156Zm0.065,3.143-0.646-1.88H66.27l-0.668,1.88H66.93Z"/><circle class="a" cx="297.76" cy="180.115" r="7.025"/><path class="b" d="M298.883,178.836a1.138,1.138,0,0,0-.251-0.284,1.159,1.159,0,0,0-.341-0.19,1.176,1.176,0,0,0-.4-0.068,1.319,1.319,0,0,0-.646.147,1.222,1.222,0,0,0-.431.395,1.726,1.726,0,0,0-.24.563,2.8,2.8,0,0,0-.075.653,2.605,2.605,0,0,0,.075.628,1.69,1.69,0,0,0,.24.549,1.231,1.231,0,0,0,.431.391,1.314,1.314,0,0,0,.646.147,1.042,1.042,0,0,0,.807-0.316,1.46,1.46,0,0,0,.355-0.832h1.091a2.612,2.612,0,0,1-.223.868,2.077,2.077,0,0,1-.474.66,2.014,2.014,0,0,1-.689.416,2.526,2.526,0,0,1-.868.144,2.626,2.626,0,0,1-1.059-.2,2.265,2.265,0,0,1-.793-0.563,2.489,2.489,0,0,1-.5-0.844,3.093,3.093,0,0,1-.172-1.044,3.205,3.205,0,0,1,.172-1.066,2.562,2.562,0,0,1,.5-0.858,2.26,2.26,0,0,1,.793-0.574,2.747,2.747,0,0,1,1.859-.086,2.163,2.163,0,0,1,.675.355,1.927,1.927,0,0,1,.492.578,2.065,2.065,0,0,1,.244.79h-1.091A0.919,0.919,0,0,0,298.883,178.836Z"/><circle class="c" cx="66.277" cy="143.633" r="7.025"/><path class="b" d="M66.524,141.071a2.641,2.641,0,0,1,.922.158,2,2,0,0,1,.739.474,2.189,2.189,0,0,1,.488.789,3.194,3.194,0,0,1,.176,1.113,3.548,3.548,0,0,1-.143,1.033,2.278,2.278,0,0,1-.434.818,2.034,2.034,0,0,1-.725.542,2.448,2.448,0,0,1-1.023.2H64.314v-5.124h2.211Zm-0.079,4.177a1.457,1.457,0,0,0,.474-0.079,1.045,1.045,0,0,0,.409-0.262,1.315,1.315,0,0,0,.287-0.477,2.1,2.1,0,0,0,.108-0.718,2.981,2.981,0,0,0-.075-0.7,1.394,1.394,0,0,0-.248-0.535,1.1,1.1,0,0,0-.456-0.341,1.815,1.815,0,0,0-.7-0.118h-0.8v3.23h1Z"/><circle class="d" cx="80.328" cy="143.633" r="7.025"/><path class="b" d="M82.1,140.955V141.9H79.39V143h2.483v0.876H79.39v1.256h2.763v0.947h-3.89v-5.124H82.1Z"/><circle class="c" cx="115.144" cy="143.633" r="7.025"/><path class="b" d="M115.392,141.071a2.641,2.641,0,0,1,.922.158,2,2,0,0,1,.739.474,2.189,2.189,0,0,1,.488.789,3.194,3.194,0,0,1,.176,1.113,3.548,3.548,0,0,1-.143,1.033,2.278,2.278,0,0,1-.434.818,2.034,2.034,0,0,1-.725.542,2.448,2.448,0,0,1-1.023.2h-2.211v-5.124h2.211Zm-0.079,4.177a1.457,1.457,0,0,0,.474-0.079,1.045,1.045,0,0,0,.409-0.262,1.315,1.315,0,0,0,.287-0.477,2.1,2.1,0,0,0,.108-0.718,2.981,2.981,0,0,0-.075-0.7,1.394,1.394,0,0,0-.248-0.535,1.1,1.1,0,0,0-.456-0.341,1.815,1.815,0,0,0-.7-0.118h-0.8v3.23h1Z"/><circle class="d" cx="129.195" cy="143.633" r="7.025"/><path class="b" d="M130.963,140.955V141.9h-2.706V143h2.483v0.876h-2.483v1.256h2.763v0.947h-3.89v-5.124h3.833Z"/><circle class="c" cx="192.113" cy="143.633" r="7.025"/><path class="b" d="M192.36,141.071a2.641,2.641,0,0,1,.922.158,2,2,0,0,1,.739.474,2.189,2.189,0,0,1,.488.789,3.194,3.194,0,0,1,.176,1.113,3.548,3.548,0,0,1-.143,1.033,2.278,2.278,0,0,1-.434.818,2.034,2.034,0,0,1-.725.542,2.448,2.448,0,0,1-1.023.2H190.15v-5.124h2.211Zm-0.079,4.177a1.457,1.457,0,0,0,.474-0.079,1.045,1.045,0,0,0,.409-0.262,1.315,1.315,0,0,0,.287-0.477,2.1,2.1,0,0,0,.108-0.718,2.981,2.981,0,0,0-.075-0.7,1.394,1.394,0,0,0-.248-0.535,1.1,1.1,0,0,0-.456-0.341,1.815,1.815,0,0,0-.7-0.118h-0.8v3.23h1Z"/><circle class="c" cx="277.545" cy="143.633" r="7.025"/><path class="b" d="M277.792,141.071a2.641,2.641,0,0,1,.922.158,2,2,0,0,1,.739.474,2.189,2.189,0,0,1,.488.789,3.194,3.194,0,0,1,.176,1.113,3.548,3.548,0,0,1-.143,1.033,2.278,2.278,0,0,1-.434.818,2.034,2.034,0,0,1-.725.542,2.448,2.448,0,0,1-1.023.2h-2.211v-5.124h2.211Zm-0.079,4.177a1.457,1.457,0,0,0,.474-0.079,1.045,1.045,0,0,0,.409-0.262,1.315,1.315,0,0,0,.287-0.477,2.1,2.1,0,0,0,.108-0.718,2.981,2.981,0,0,0-.075-0.7,1.394,1.394,0,0,0-.248-0.535,1.1,1.1,0,0,0-.456-0.341,1.815,1.815,0,0,0-.7-0.118h-0.8v3.23h1Z"/><circle class="c" cx="232.012" cy="180.115" r="7.025"/><path class="b" d="M232.26,177.552a2.641,2.641,0,0,1,.922.158,2,2,0,0,1,.739.474,2.189,2.189,0,0,1,.488.789,3.194,3.194,0,0,1,.176,1.113,3.548,3.548,0,0,1-.143,1.033,2.278,2.278,0,0,1-.434.818,2.034,2.034,0,0,1-.725.542,2.448,2.448,0,0,1-1.023.2h-2.211v-5.124h2.211Zm-0.079,4.177a1.457,1.457,0,0,0,.474-0.079,1.045,1.045,0,0,0,.409-0.262,1.315,1.315,0,0,0,.287-0.477,2.1,2.1,0,0,0,.108-0.718,2.981,2.981,0,0,0-.075-0.7,1.394,1.394,0,0,0-.248-0.535,1.1,1.1,0,0,0-.456-0.341,1.815,1.815,0,0,0-.7-0.118h-0.8v3.23h1Z"/><circle class="d" cx="206.164" cy="143.633" r="7.025"/><path class="b" d="M207.932,140.955V141.9h-2.706V143h2.483v0.876h-2.483v1.256h2.763v0.947H204.1v-5.124h3.833Z"/><circle class="d" cx="261.804" cy="143.633" r="7.025"/><path class="b" d="M263.572,140.955V141.9h-2.706V143h2.483v0.876h-2.483v1.256h2.763v0.947h-3.89v-5.124h3.833Z"/><circle class="d" cx="215.575" cy="180.115" r="7.025"/><path class="b" d="M217.343,177.436v0.947h-2.706v1.1h2.483v0.876h-2.483v1.256H217.4v0.947h-3.89v-5.124h3.833Z"/><circle class="c" cx="281.323" cy="180.115" r="7.025"/><path class="b" d="M281.57,177.552a2.641,2.641,0,0,1,.922.158,2,2,0,0,1,.739.474,2.189,2.189,0,0,1,.488.789,3.194,3.194,0,0,1,.176,1.113,3.548,3.548,0,0,1-.143,1.033,2.278,2.278,0,0,1-.434.818,2.034,2.034,0,0,1-.725.542,2.448,2.448,0,0,1-1.023.2h-2.211v-5.124h2.211Zm-0.079,4.177a1.457,1.457,0,0,0,.474-0.079,1.045,1.045,0,0,0,.409-0.262,1.315,1.315,0,0,0,.287-0.477,2.1,2.1,0,0,0,.108-0.718,2.981,2.981,0,0,0-.075-0.7,1.394,1.394,0,0,0-.248-0.535,1.1,1.1,0,0,0-.456-0.341,1.815,1.815,0,0,0-.7-0.118h-0.8v3.23h1Z"/><circle class="d" cx="264.886" cy="180.115" r="7.025"/><path class="b" d="M266.654,177.436v0.947h-2.706v1.1h2.483v0.876h-2.483v1.256h2.763v0.947h-3.89v-5.124h3.833Z"/><circle class="e" cx="163.551" cy="180.115" r="7.025"/><path class="b" d="M165.352,177.436v0.947h-2.476v1.184h2.146v0.876h-2.146v2.117h-1.127v-5.124h3.6Z"/><circle class="e" cx="199.138" cy="180.115" r="7.025"/><path class="b" d="M200.94,177.436v0.947h-2.476v1.184h2.146v0.876h-2.146v2.117h-1.127v-5.124h3.6Z"/><circle class="e" cx="246.063" cy="143.517" r="7.025"/><path class="b" d="M247.865,140.838v0.947h-2.476v1.184h2.146v0.876h-2.146v2.117h-1.127v-5.124h3.6Z"/><circle class="f" cx="145.047" cy="179.998" r="7.025"/><path class="b" d="M145.687,182.408a1.884,1.884,0,0,1-.739.155,2.626,2.626,0,0,1-1.059-.2,2.265,2.265,0,0,1-.793-0.563,2.489,2.489,0,0,1-.5-0.844,3.093,3.093,0,0,1-.172-1.044,3.205,3.205,0,0,1,.172-1.066,2.562,2.562,0,0,1,.5-0.858,2.26,2.26,0,0,1,.793-0.574,2.585,2.585,0,0,1,1.059-.208,2.483,2.483,0,0,1,.764.118,2.165,2.165,0,0,1,.668.348,1.883,1.883,0,0,1,.729,1.342h-1.077a1.079,1.079,0,0,0-.388-0.646,1.128,1.128,0,0,0-.7-0.215,1.319,1.319,0,0,0-.646.147,1.222,1.222,0,0,0-.431.395,1.726,1.726,0,0,0-.24.563,2.8,2.8,0,0,0-.075.653,2.605,2.605,0,0,0,.075.628,1.69,1.69,0,0,0,.24.549,1.231,1.231,0,0,0,.431.391,1.314,1.314,0,0,0,.646.147,1.1,1.1,0,0,0,1.22-1.105h-1.134v-0.839h2.153v2.77h-0.718l-0.115-.581A1.684,1.684,0,0,1,145.687,182.408Z"/><circle class="f" cx="179.486" cy="179.533" r="7.025"/><path class="b" d="M180.126,181.943a1.884,1.884,0,0,1-.739.155,2.626,2.626,0,0,1-1.059-.2,2.265,2.265,0,0,1-.793-0.563,2.489,2.489,0,0,1-.5-0.844,3.093,3.093,0,0,1-.172-1.044,3.205,3.205,0,0,1,.172-1.066,2.562,2.562,0,0,1,.5-0.858,2.26,2.26,0,0,1,.793-0.574,2.585,2.585,0,0,1,1.059-.208,2.483,2.483,0,0,1,.764.118,2.165,2.165,0,0,1,.668.348,1.883,1.883,0,0,1,.729,1.342H180.47a1.079,1.079,0,0,0-.388-0.646,1.128,1.128,0,0,0-.7-0.215,1.319,1.319,0,0,0-.646.147,1.222,1.222,0,0,0-.431.395,1.726,1.726,0,0,0-.24.563,2.8,2.8,0,0,0-.075.653,2.605,2.605,0,0,0,.075.628,1.69,1.69,0,0,0,.24.549,1.231,1.231,0,0,0,.431.391,1.314,1.314,0,0,0,.646.147,1.1,1.1,0,0,0,1.22-1.105h-1.134v-0.839h2.153v2.77h-0.718l-0.115-.581A1.684,1.684,0,0,1,180.126,181.943Z"/><circle class="g" cx="66.277" cy="179.533" r="7.025"/><path class="b" d="M66.866,176.971l1.916,5.124h-1.17l-0.388-1.141H65.308l-0.4,1.141H63.772l1.938-5.124h1.156Zm0.065,3.143-0.646-1.88H66.27l-0.668,1.88H66.93Z"/><text class="h" transform="translate(59.251 91.094)">karpūragauraṃ karuṇāvatāram |<tspan x="0" y="37.197">saṃsārasāraṃ bhujagendrahāram ||</tspan><tspan x="0" y="74.396">sadā vasantaṃ hṛdayāravinde |</tspan><tspan x="0" y="111.593">bhavaṃ bhavāni sahitaṃ namāmi ||</tspan></text></svg>