<svg id="Layer_1" data-name="Layer 1" xmlns="http://www.w3.org/2000/svg" viewBox="0 0 841.89 595.28">
  <defs>
    <style>
      .cls-1 {
        fill: #68c073;
      }

      .cls-2 {
        fill: #fff;
      }

      .cls-3 {
        font-size: 50px;
        fill: #231f20;
        font-family: Helvetica-Light, Helvetica;
      }

      .cls-4 {
        fill: #3976bb;
      }

      .cls-5 {
        fill: #2356a7;
      }

      .cls-6 {
        fill: #9f59a3;
      }
    </style>
  </defs>
  <title>108</title>
  <g>
    <circle class="cls-1" cx="174.34" cy="118.44" r="21.02"/>
    <path class="cls-2" d="M175.08,110.77a7.9,7.9,0,0,1,2.76.47,6,6,0,0,1,2.21,1.42,6.55,6.55,0,0,1,1.46,2.36,9.56,9.56,0,0,1,.53,3.33,10.62,10.62,0,0,1-.43,3.09,6.81,6.81,0,0,1-1.3,2.45,6.09,6.09,0,0,1-2.17,1.62,7.32,7.32,0,0,1-3.06.59h-6.61V110.77Zm-.24,12.5a4.36,4.36,0,0,0,1.42-.24,3.13,3.13,0,0,0,1.22-.78,3.94,3.94,0,0,0,.86-1.43,6.29,6.29,0,0,0,.32-2.15,8.92,8.92,0,0,0-.23-2.09,4.17,4.17,0,0,0-.74-1.6,3.28,3.28,0,0,0-1.36-1,5.43,5.43,0,0,0-2.09-.35h-2.41v9.66Z"/>
  </g>
  <text class="cls-3" transform="translate(153.52 184.5)">śivo maheśvaraśśambhuḥ <tspan x="0" y="100">pinākī śaśiśekharaḥ</tspan><tspan x="0" y="200">vāmadevo virūpākṣaḥ </tspan><tspan x="0" y="300">kapardī nīlalohitaḥ</tspan></text>
  <g>
    <circle class="cls-4" cx="558.71" cy="126.11" r="22.16"/>
    <path class="cls-2" d="M564.29,117.66v3h-8.53v3.46h7.83v2.76h-7.83v4h8.72v3H552.2V117.66Z"/>
  </g>
  <g>
    <circle class="cls-4" cx="174.71" cy="418.31" r="22.16"/>
    <path class="cls-2" d="M180.29,409.86v3h-8.53v3.46h7.83v2.76h-7.83v4h8.72v3H168.2V409.86Z"/>
  </g>
  <g>
    <circle class="cls-5" cx="174.34" cy="218.83" r="22.16"/>
    <path class="cls-2" d="M180,210.39v3h-7.81v3.73H179v2.76h-6.77v6.68h-3.55V210.39Z"/>
  </g>
  <g>
    <circle class="cls-5" cx="411.52" cy="323.6" r="22.16"/>
    <path class="cls-2" d="M417.21,315.15v3H409.4v3.73h6.77v2.76H409.4v6.68h-3.55V315.15Z"/>
  </g>
  <g>
    <circle class="cls-6" cx="175.47" cy="323.6" r="22.16"/>
    <path class="cls-2" d="M177.49,331.2a5.94,5.94,0,0,1-2.33.49,8.28,8.28,0,0,1-3.34-.65,7.14,7.14,0,0,1-2.5-1.78,7.85,7.85,0,0,1-1.56-2.66,9.76,9.76,0,0,1-.54-3.29,10.11,10.11,0,0,1,.54-3.36,8.08,8.08,0,0,1,1.56-2.7,7.13,7.13,0,0,1,2.5-1.81,8.15,8.15,0,0,1,3.34-.66,7.83,7.83,0,0,1,2.41.37,6.83,6.83,0,0,1,2.11,1.1,5.94,5.94,0,0,1,2.3,4.23h-3.4a3.4,3.4,0,0,0-1.22-2,3.56,3.56,0,0,0-2.2-.68,4.16,4.16,0,0,0-2,.46,3.85,3.85,0,0,0-1.36,1.25,5.44,5.44,0,0,0-.76,1.78,8.84,8.84,0,0,0-.24,2.06,8.22,8.22,0,0,0,.24,2,5.33,5.33,0,0,0,.76,1.73,3.88,3.88,0,0,0,1.36,1.23,4.15,4.15,0,0,0,2,.46,3.47,3.47,0,0,0,3.85-3.49h-3.58v-2.65h6.79v8.74H180l-.36-1.83A5.31,5.31,0,0,1,177.49,331.2Z"/>
  </g>
</svg>
