<svg xmlns="http://www.w3.org/2000/svg" viewBox="0 0 512.31 841"><defs><style>.cls-1{fill:#fff714;stroke:#d1d1d1;stroke-miterlimit:10;stroke-width:0.92px;opacity:0.3;}.cls-2{fill:#ccc;}.cls-3{fill:#d9d9d9;}.cls-4{fill:#e6e6e6;}.cls-5{fill:#f2f2f2;}.cls-6{fill:#fff;}.cls-7{fill:#ececec;}.cls-8{fill:#b1b1b1;}.cls-9{fill:#9c9b9b;}.cls-10{fill:#c6c6c5;}.cls-11{fill:#ffb300;}</style></defs><g id="Layer_4" data-name="Layer 4"><rect class="cls-1" x="256.47" y="92.49" width="62.36" height="62.36"/><rect class="cls-1" x="256.47" y="154.86" width="62.36" height="62.36"/><rect class="cls-1" x="256.47" y="217.22" width="62.36" height="62.36"/><rect class="cls-1" x="256.47" y="279.58" width="62.36" height="62.36"/><rect class="cls-1" x="256.47" y="341.94" width="62.36" height="62.36"/><rect class="cls-1" x="256.47" y="404.3" width="62.36" height="62.36"/><rect class="cls-1" x="256.47" y="466.67" width="62.36" height="62.36"/><rect class="cls-1" x="256.47" y="529.03" width="62.36" height="62.36"/><rect class="cls-1" x="256.47" y="591.39" width="62.36" height="62.36"/><rect class="cls-1" x="256.47" y="653.75" width="62.36" height="62.36"/><rect class="cls-1" x="256.47" y="716.12" width="62.36" height="62.36"/><rect class="cls-1" x="194.11" y="466.67" width="62.36" height="62.36"/><rect class="cls-1" x="194.11" y="529.03" width="62.36" height="62.36"/><rect class="cls-1" x="194.11" y="591.39" width="62.36" height="62.36"/><rect class="cls-1" x="194.11" y="653.75" width="62.36" height="62.36"/><rect class="cls-1" x="194.11" y="716.12" width="62.36" height="62.36"/><rect class="cls-1" x="131.74" y="466.67" width="62.36" height="62.36"/><rect class="cls-1" x="131.74" y="529.03" width="62.36" height="62.36"/><rect class="cls-1" x="131.74" y="591.39" width="62.36" height="62.36"/><rect class="cls-1" x="131.74" y="653.75" width="62.36" height="62.36"/><rect class="cls-1" x="131.74" y="716.12" width="62.36" height="62.36"/><rect class="cls-1" x="318.83" y="466.67" width="62.36" height="62.36"/><rect class="cls-1" x="194.11" y="404.3" width="62.36" height="62.36"/><rect class="cls-1" x="131.74" y="404.3" width="62.36" height="62.36"/><rect class="cls-1" x="318.83" y="404.3" width="62.36" height="62.36"/><rect class="cls-1" x="194.11" y="341.94" width="62.36" height="62.36"/><rect class="cls-1" x="131.74" y="341.94" width="62.36" height="62.36"/><rect class="cls-1" x="318.83" y="341.94" width="62.36" height="62.36"/><rect class="cls-1" x="194.11" y="279.58" width="62.36" height="62.36"/><rect class="cls-1" x="131.74" y="279.58" width="62.36" height="62.36"/><rect class="cls-1" x="318.83" y="279.58" width="62.36" height="62.36"/><rect class="cls-1" x="194.11" y="217.22" width="62.36" height="62.36"/><rect class="cls-1" x="131.74" y="217.22" width="62.36" height="62.36"/><rect class="cls-1" x="318.83" y="217.22" width="62.36" height="62.36"/><rect class="cls-1" x="194.11" y="154.86" width="62.36" height="62.36"/><rect class="cls-1" x="131.74" y="154.86" width="62.36" height="62.36"/><rect class="cls-1" x="318.83" y="154.86" width="62.36" height="62.36"/><rect class="cls-1" x="194.11" y="92.49" width="62.36" height="62.36"/><rect class="cls-1" x="131.74" y="92.49" width="62.36" height="62.36"/><rect class="cls-1" x="318.83" y="92.49" width="62.36" height="62.36"/><rect class="cls-1" x="318.83" y="529.03" width="62.36" height="62.36"/><rect class="cls-1" x="318.83" y="591.39" width="62.36" height="62.36"/><rect class="cls-1" x="318.83" y="653.75" width="62.36" height="62.36"/><rect class="cls-1" x="318.83" y="716.12" width="62.36" height="62.36"/></g><g id="Layer_6" data-name="Layer 6"><rect class="cls-2" width="512.31" height="841"/><path class="cls-3" d="M0,771.05a728,728,0,0,0,512.31-.27V0H0Z"/><path class="cls-4" d="M0,365.57a374.15,374.15,0,0,0,512.31-.67V0H0Z"/><path class="cls-5" d="M68.71,92.49c0,103.33,83.76,187.09,187.09,187.09S442.88,195.82,442.88,92.49A186.29,186.29,0,0,0,418.45,0H93.14A186.29,186.29,0,0,0,68.71,92.49Z"/><circle class="cls-6" cx="256.15" cy="92.49" r="62.36"/></g><g id="Layer_7" data-name="Layer 7"><path class="cls-7" d="M256.46,92.49c30.7,81.78,30.63,81.18,30.51,81.3C248.19,194,270.9,436.08,275.36,479c-14.69,5.16-23,5.21-37.78,0C242,436.08,264.74,194,226,173.79,225.85,173.68,225.61,174.69,256.46,92.49Z"/><path class="cls-8" d="M141.24,353.56c-44.88-36.23-6.85-103.64.07-133,6.82-29-40.4-62.8-41.77-63.78,1.49,1.32,50.07,44.87,14.44,97.68C84.59,298,92.63,354.05,133.18,381.15c68.32,45.65,95.08,7.78,95.08,39.94C231.34,365,173,379.21,141.24,353.56Z"/><path class="cls-3" d="M226,173.79l11.51,33.43s6,121.21-16.48,135.53c-14.54,9.28-38.68,5-55.58-4.09-56.87-30.49-3.18-93.45-8.65-125.68C152,184.66,128.85,163,99.51,156.71c.75.76,48.67,34.61,41.8,63.81-6.92,29.4-44.95,96.81-.07,133,41,33.11,110,.18,79.48,112-1.3,4.8,6.92,9.94,16.86,13.42C242,436.07,264.74,194,226,173.79Z"/><path class="cls-9" d="M399,254.42c-36.19-53.63,14.47-97.71,14.47-97.71s-48.73,34.41-41.81,63.81,45,96.81.07,133c-31.78,25.65-90.09,11.42-87,67.53,0-32.16,26.77,5.7,95.07-39.94C420.3,354.05,428.35,298,399,254.42Z"/><path class="cls-10" d="M371.69,353.56c44.89-36.23,6.85-103.64-.07-133s41.81-63.81,41.81-63.81C384.09,163,361,184.66,356.16,213c-5.47,32.23,48.23,95.19-8.65,125.68-16.9,9.06-41,13.37-55.57,4.09-22.46-14.32-16.49-135.53-16.49-135.53L287,173.79C248.19,194,270.9,436.08,275.36,479c9.94-3.48,18.16-8.62,16.86-13.42C261.72,353.69,330.71,386.63,371.69,353.56Z"/><polygon class="cls-6" points="256.47 140.22 269.77 163.25 243.17 163.25 256.47 140.22"/></g><g id="Layer_3" data-name="Layer 3"><circle class="cls-11" cx="256.47" cy="92.49" r="7.23"/><circle class="cls-11" cx="256.47" cy="154.86" r="7.23"/><circle class="cls-11" cx="256.47" cy="217.22" r="7.23"/><circle class="cls-11" cx="256.78" cy="279.58" r="7.23"/><circle class="cls-11" cx="256.47" cy="341.94" r="7.23"/><circle class="cls-11" cx="256.47" cy="404.3" r="7.23"/><circle class="cls-11" cx="256.47" cy="466.67" r="7.23"/><circle class="cls-11" cx="256.42" cy="529.03" r="7.23"/><circle class="cls-11" cx="256.42" cy="591.39" r="7.23"/><circle class="cls-11" cx="194.42" cy="591.39" r="7.23"/><circle class="cls-11" cx="132.06" cy="591.39" r="7.23"/><circle class="cls-11" cx="319.14" cy="591.39" r="7.23"/><circle class="cls-11" cx="381.51" cy="591.39" r="7.23"/><circle class="cls-11" cx="256.47" cy="653.75" r="7.23"/><circle class="cls-11" cx="319.14" cy="653.75" r="7.23"/><circle class="cls-11" cx="319.14" cy="716.12" r="7.23"/><circle class="cls-11" cx="381.51" cy="653.75" r="7.23"/><circle class="cls-11" cx="381.51" cy="716.12" r="7.23"/><circle class="cls-11" cx="319.14" cy="778.48" r="7.23"/><circle class="cls-11" cx="381.51" cy="778.48" r="7.23"/><circle class="cls-11" cx="194.42" cy="653.75" r="7.23"/><circle class="cls-11" cx="132.06" cy="653.75" r="7.23"/><circle class="cls-11" cx="194.42" cy="716.12" r="7.23"/><circle class="cls-11" cx="132.06" cy="716.12" r="7.23"/><circle class="cls-11" cx="194.42" cy="778.48" r="7.23"/><circle class="cls-11" cx="132.06" cy="778.48" r="7.23"/><circle class="cls-11" cx="256.42" cy="716.12" r="7.23"/><circle class="cls-11" cx="256.42" cy="778.48" r="7.23"/><circle class="cls-11" cx="319.14" cy="529.03" r="7.23"/><circle class="cls-11" cx="194.42" cy="529.03" r="7.23"/><circle class="cls-11" cx="132.06" cy="341.96" r="7.23"/><circle class="cls-11" cx="319.14" cy="341.96" r="7.23"/><circle class="cls-11" cx="381.51" cy="341.94" r="7.23"/><circle class="cls-11" cx="194.42" cy="341.94" r="7.23"/><circle class="cls-11" cx="194.42" cy="217.22" r="7.23"/><circle class="cls-11" cx="319.14" cy="217.22" r="7.23"/></g><g id="Layer_5" data-name="Layer 5"><path d="M235.58,59.31a3.47,3.47,0,0,1-.34-.83,4.12,4.12,0,0,1-.14-1.15,4,4,0,0,1,.54-2,5,5,0,0,1,1.6-1.65,8.26,8.26,0,0,1,2.58-1.09,13.88,13.88,0,0,1,3.44-.38,20.64,20.64,0,0,1,5.58.7,21.25,21.25,0,0,1,4.48,1.78A18.19,18.19,0,0,1,256.74,57a21.2,21.2,0,0,1,2.42,2.43l.45.54-1.7,1.19-.51-.58a18.77,18.77,0,0,0-5.94-4.53,18.14,18.14,0,0,0-8.11-1.71,9.92,9.92,0,0,0-2.54.29,5.33,5.33,0,0,0-1.78.8,3.36,3.36,0,0,0-1,1.17,3.09,3.09,0,0,0-.33,1.42,2.5,2.5,0,0,0,.28,1.28h3.2v2h-2.88V79.47h-2.49V61.36h-2.88v-2Z"/><path d="M247.7,58.93a6.14,6.14,0,0,1,2.37.43,4.91,4.91,0,0,1,1.79,1.22A5.43,5.43,0,0,1,253,62.45a6.88,6.88,0,0,1,.4,2.43,8.84,8.84,0,0,1-.5,3,8.16,8.16,0,0,1-1.39,2.46,8.76,8.76,0,0,1-2.14,1.87,11.88,11.88,0,0,1-2.72,1.27l5.44,4.7-1.92,1.7-5.7-5.63a4.67,4.67,0,0,1-2.09-.74,2,2,0,0,1-.92-1.76,1.84,1.84,0,0,1,.56-1.43,1.77,1.77,0,0,1,1.17-.49l1.76,1.7a8.06,8.06,0,0,0,2.16-.76A7.1,7.1,0,0,0,249,69.41a6.73,6.73,0,0,0,1.31-2,6.5,6.5,0,0,0,.5-2.59,4.92,4.92,0,0,0-.26-1.67,3.67,3.67,0,0,0-.67-1.17,2.5,2.5,0,0,0-1-.67,3.13,3.13,0,0,0-1.12-.21,2.25,2.25,0,0,0-1.68.64,2.12,2.12,0,0,0-.63,1.54,2,2,0,0,0,.71,1.63,3.76,3.76,0,0,0,1.92.8l-.61,1.89a7.41,7.41,0,0,1-1.74-.46,5.42,5.42,0,0,1-1.46-.9,4.05,4.05,0,0,1-1-1.34,4.33,4.33,0,0,1-.37-1.81,3.76,3.76,0,0,1,.36-1.65,4,4,0,0,1,1-1.31,4.37,4.37,0,0,1,1.52-.88A5.62,5.62,0,0,1,247.7,58.93Zm9,2.43h-1.64v-2h7v2h-2.85V79.47H256.7Z"/><path d="M269.24,64.43a6.19,6.19,0,0,1,2.9.61,6,6,0,0,1,1.8,1.34v-5H261.4v-2h17.92v2h-2.88V79.47h-2.5v-5a7,7,0,0,1-1.64,1.15,6.22,6.22,0,0,1-2.9.58,7.55,7.55,0,0,1-2.46-.4,6.12,6.12,0,0,1-2-1.19,5.65,5.65,0,0,1-1.39-1.92A6.41,6.41,0,0,1,263,70a5.82,5.82,0,0,1,.46-2.41,4.69,4.69,0,0,1,1.32-1.75,5.73,5.73,0,0,1,2-1.07A7.87,7.87,0,0,1,269.24,64.43Zm4.7,4.51a5.28,5.28,0,0,0-1.66-1.63,4.56,4.56,0,0,0-2.56-.73,4.67,4.67,0,0,0-3,.88,3.14,3.14,0,0,0-1.14,2.67,3.54,3.54,0,0,0,1.16,3,5.07,5.07,0,0,0,3.1.86,4.5,4.5,0,0,0,1.57-.27,4.31,4.31,0,0,0,1.29-.74,3.32,3.32,0,0,0,.88-1.1,3,3,0,0,0,.32-1.38Z"/><path d="M234.23,119.45a6.14,6.14,0,0,1,2.37.43,5,5,0,0,1,1.79,1.22,5.43,5.43,0,0,1,1.14,1.87,7.12,7.12,0,0,1,.4,2.43,8.84,8.84,0,0,1-.5,3,8,8,0,0,1-1.39,2.46,8.76,8.76,0,0,1-2.14,1.87,12.08,12.08,0,0,1-2.72,1.27l5.44,4.7-1.92,1.7-5.7-5.63a4.64,4.64,0,0,1-2.1-.74,2,2,0,0,1-.91-1.76,1.8,1.8,0,0,1,.56-1.42,1.77,1.77,0,0,1,1.17-.5l1.76,1.7a8.06,8.06,0,0,0,2.16-.76,7.1,7.1,0,0,0,1.86-1.37,6.73,6.73,0,0,0,1.31-2,6.5,6.5,0,0,0,.49-2.59,4.93,4.93,0,0,0-.25-1.67,3.67,3.67,0,0,0-.67-1.17,2.61,2.61,0,0,0-1-.67,3.13,3.13,0,0,0-1.12-.21,2.25,2.25,0,0,0-1.68.64,2.12,2.12,0,0,0-.63,1.54,2,2,0,0,0,.71,1.63,3.76,3.76,0,0,0,1.92.8l-.61,1.89a7.15,7.15,0,0,1-1.75-.46,5.36,5.36,0,0,1-1.45-.9,3.92,3.92,0,0,1-1-1.34,4.18,4.18,0,0,1-.37-1.81,3.9,3.9,0,0,1,.35-1.65,4.06,4.06,0,0,1,1-1.31,4.54,4.54,0,0,1,1.52-.88A5.86,5.86,0,0,1,234.23,119.45Zm9,2.43h-1.63v-2h7v2h-2.85V140h-2.5Z"/><path d="M250.81,121.88h-2.88v-2h2.65a4.5,4.5,0,0,1-.36-.81,3.65,3.65,0,0,1-.18-1.24,4,4,0,0,1,.59-2.12,5.13,5.13,0,0,1,1.62-1.59,8.81,8.81,0,0,1,2.41-1,12.46,12.46,0,0,1,3-.35,14.93,14.93,0,0,1,4.59.67,16.65,16.65,0,0,1,3.79,1.73,15,15,0,0,1,3,2.37,19.93,19.93,0,0,1,2.13,2.59l.19.29-1.82,1.12-.61-.77a20.69,20.69,0,0,0-2.15-2.26,14.21,14.21,0,0,0-2.57-1.85,13.63,13.63,0,0,0-3-1.25,12.27,12.27,0,0,0-3.41-.47,6.54,6.54,0,0,0-3.77.92,2.87,2.87,0,0,0-1.32,2.51,4.22,4.22,0,0,0,.07.77,4.81,4.81,0,0,0,.22.73h3.23v2H253.3V140h-2.49Z"/><path d="M265.11,128.6a3.54,3.54,0,0,0-2.81,1,3.7,3.7,0,0,0-.87,2.53,8.38,8.38,0,0,0,.72,3.38,23.73,23.73,0,0,0,2.07,3.66l-2.15,1.12a23.26,23.26,0,0,1-2.32-4,10.34,10.34,0,0,1-.88-4.28,5.79,5.79,0,0,1,1-3.45h-3.65v-2.15h12.9v-4.54H255.22v-2h29.64v2H271.58v5.66a5,5,0,0,1,1.8-1.44,6.68,6.68,0,0,1,3-.6,7.31,7.31,0,0,1,2.8.51,5.9,5.9,0,0,1,2.06,1.39,5.81,5.81,0,0,1,1.26,2.06,7.31,7.31,0,0,1,.44,2.53,6.86,6.86,0,0,1-.56,2.8,6.1,6.1,0,0,1-1.59,2.16,7.2,7.2,0,0,1-2.46,1.39,9.55,9.55,0,0,1-3.2.5l-.1-2.11a7.09,7.09,0,0,0,1.81-.31,5.43,5.43,0,0,0,1.73-.83,4.49,4.49,0,0,0,1.29-1.44,4.05,4.05,0,0,0,.52-2.13,4.52,4.52,0,0,0-1.12-3.26,4.1,4.1,0,0,0-3.08-1.15,5.08,5.08,0,0,0-1.61.27,4.27,4.27,0,0,0-1.49.85,4.21,4.21,0,0,0-1.09,1.49,5.35,5.35,0,0,0-.41,2.19V140h-2.5V128.6Z"/><path d="M220.81,200.88l-2.18,1.44-6.17-9.06a8.35,8.35,0,0,1-.69-1.13,1.87,1.87,0,0,1-.18-.76,1.15,1.15,0,0,1,.52-1,2.05,2.05,0,0,1,1.18-.35l.67.86a2.25,2.25,0,0,0,.8.71,2.68,2.68,0,0,0,1.06.19,2.74,2.74,0,0,0,2.11-1,3.91,3.91,0,0,0,.86-2.69,6.38,6.38,0,0,0-.45-2.5,6.6,6.6,0,0,0-1-1.72h-7v-2h22v2h-2.88V202h-2.5v-8.29a8.1,8.1,0,0,1-3.58.64,7,7,0,0,1-2.24-.38,8.06,8.06,0,0,1-1.95-1,5.23,5.23,0,0,1-3,.86h-.26l-.25,0Zm2.21-8.77a7.6,7.6,0,0,0,2.32-.32,5,5,0,0,0,1.58-.8v-7.1h-7.1a6.63,6.63,0,0,1,1,1.74,6.47,6.47,0,0,1,.51,2.61,6.19,6.19,0,0,1-.89,3.36,5.6,5.6,0,0,0,1.18.38A6.41,6.41,0,0,0,223,192.11Z"/><path d="M246.57,196a2.61,2.61,0,0,1-.32,1.3,4.29,4.29,0,0,1-.67.91l2.17,5-2.3.84-1.67-4.77a8.65,8.65,0,0,1-6.08.33,6.47,6.47,0,0,1-2.24-1.23,6.29,6.29,0,0,1-1.6-2.08,6.78,6.78,0,0,1-.6-3,6.53,6.53,0,0,1,.57-2.85,5.7,5.7,0,0,1,1.52-1.95,6.22,6.22,0,0,1,2.16-1.14A8.46,8.46,0,0,1,240,187h2.49v-3.13H231.66v-2h17.15v2H245v5.24h-4.1a7.5,7.5,0,0,0-1.93.24,4.36,4.36,0,0,0-1.59.77,3.88,3.88,0,0,0-1.07,1.33,4.19,4.19,0,0,0-.4,1.92,4.92,4.92,0,0,0,.37,2,3.83,3.83,0,0,0,1,1.39,3.74,3.74,0,0,0,1.34.8,4.71,4.71,0,0,0,1.52.26,4.86,4.86,0,0,0,2.88-.74l-.83-2.62a2.53,2.53,0,0,1,2-.93,2.25,2.25,0,0,1,1.77.69A2.52,2.52,0,0,1,246.57,196Z"/><path d="M250.73,183.89h-2.88v-2h8.25v2h-2.88V202h-2.49Z"/><path d="M258.15,181.84a3.26,3.26,0,0,1-.33-.83,4.18,4.18,0,0,1-.15-1.16,3.94,3.94,0,0,1,.55-2,4.92,4.92,0,0,1,1.6-1.65,8.06,8.06,0,0,1,2.57-1.08,13.85,13.85,0,0,1,3.44-.39,20.7,20.7,0,0,1,5.59.71,22,22,0,0,1,4.48,1.77,19.18,19.18,0,0,1,3.42,2.35,23,23,0,0,1,2.42,2.44l.44.54-1.69,1.18-.51-.57a19,19,0,0,0-5.94-4.53,18.14,18.14,0,0,0-8.11-1.71,9.62,9.62,0,0,0-2.55.29,5.17,5.17,0,0,0-1.77.8,3.32,3.32,0,0,0-1,1.16,3,3,0,0,0-.34,1.43,2.5,2.5,0,0,0,.29,1.28h3.2v2h-2.88V202h-2.5V183.89h-2.88v-2Z"/><path d="M270.28,181.45a6.21,6.21,0,0,1,2.37.44,5,5,0,0,1,1.79,1.21,5.35,5.35,0,0,1,1.13,1.87,7,7,0,0,1,.41,2.44,8.78,8.78,0,0,1-.5,3,8.43,8.43,0,0,1-1.39,2.47,9,9,0,0,1-2.15,1.87,12.29,12.29,0,0,1-2.72,1.26l5.44,4.71-1.92,1.69-5.69-5.63a4.63,4.63,0,0,1-2.1-.73,2,2,0,0,1-.91-1.76,1.82,1.82,0,0,1,.56-1.43,1.73,1.73,0,0,1,1.17-.49l1.76,1.69a8.66,8.66,0,0,0,2.16-.75,6.72,6.72,0,0,0,1.85-1.38,6.63,6.63,0,0,0,1.32-2,6.47,6.47,0,0,0,.49-2.59,4.87,4.87,0,0,0-.25-1.66,3.68,3.68,0,0,0-.68-1.17,2.36,2.36,0,0,0-1-.67,3.05,3.05,0,0,0-1.12-.21,2.24,2.24,0,0,0-1.68.64,2.15,2.15,0,0,0-.62,1.54,2,2,0,0,0,.7,1.63,3.85,3.85,0,0,0,1.92.8l-.6,1.89a7.16,7.16,0,0,1-1.75-.47,5.1,5.1,0,0,1-1.45-.89,4.06,4.06,0,0,1-1-1.35,4.12,4.12,0,0,1-.37-1.81,3.89,3.89,0,0,1,.35-1.64,4.1,4.1,0,0,1,1-1.32,4.61,4.61,0,0,1,1.52-.88A5.78,5.78,0,0,1,270.28,181.45Zm9,2.44h-1.63v-2h7v2h-2.84V202h-2.5Z"/><path d="M291.82,187a6.15,6.15,0,0,1,2.89.61,6,6,0,0,1,1.81,1.34v-5H284v-2H301.9v2H299V202h-2.5v-5a6.9,6.9,0,0,1-1.65,1.16,6.18,6.18,0,0,1-2.89.57,7.4,7.4,0,0,1-2.47-.4,5.89,5.89,0,0,1-2-1.18,5.52,5.52,0,0,1-1.39-1.92,6.41,6.41,0,0,1-.51-2.64,5.87,5.87,0,0,1,.46-2.42,4.82,4.82,0,0,1,1.31-1.74,5.87,5.87,0,0,1,2-1.07A7.82,7.82,0,0,1,291.82,187Zm4.7,4.51a5.28,5.28,0,0,0-1.66-1.63,4.57,4.57,0,0,0-2.56-.74,4.72,4.72,0,0,0-3,.88,3.17,3.17,0,0,0-1.14,2.67,3.52,3.52,0,0,0,1.15,3,5,5,0,0,0,3.11.87,4.27,4.27,0,0,0,1.56-.28,4.34,4.34,0,0,0,1.3-.73,3.38,3.38,0,0,0,.88-1.11,3,3,0,0,0,.32-1.37Z"/><path d="M153.31,201.93a4.81,4.81,0,0,1-2.48-1,2.22,2.22,0,0,1-1-1.71,1.46,1.46,0,0,1,.55-1.11,2,2,0,0,1,1.44-.49l2.3,2.3a19.62,19.62,0,0,0,2.34-.14,8,8,0,0,0,2-.5,3.69,3.69,0,0,0,1.36-.91,2,2,0,0,0,.52-1.39c0-1.39-1.09-2.08-3.27-2.08a14.27,14.27,0,0,0-2,.16,18.45,18.45,0,0,0-2.47.51c-.38-.3-.76-.63-1.13-1a7.57,7.57,0,0,1-1-1.13,6,6,0,0,1-.68-1.3,4.28,4.28,0,0,1-.26-1.49,3.3,3.3,0,0,1,.35-1.49,3.58,3.58,0,0,1,1-1.18,4.73,4.73,0,0,1,1.5-.78,6,6,0,0,1,1.94-.29h4.35v-3.07H147.9v-2h9.82v-.13a9.17,9.17,0,0,1-.62-.69,6.3,6.3,0,0,1-.62-.91A4.91,4.91,0,0,1,156,179a4.38,4.38,0,0,1-.2-1.34,4.48,4.48,0,0,1,.37-1.84,4.11,4.11,0,0,1,1-1.4,4.69,4.69,0,0,1,1.52-.89,5.1,5.1,0,0,1,1.85-.32,8.22,8.22,0,0,1,1.78.19,4.48,4.48,0,0,1,1.42.54l-.64,2a4.63,4.63,0,0,0-2.14-.52,2.62,2.62,0,0,0-1.91.71,2.74,2.74,0,0,0-.72,2,3.75,3.75,0,0,0,.18,1.16,5.44,5.44,0,0,0,.45,1,6.3,6.3,0,0,0,.59.87c.21.25.41.47.58.64h4.38v2h-3.46v5.18h-6a4.69,4.69,0,0,0-2.16.43,1.59,1.59,0,0,0-.85,1.55,3,3,0,0,0,1.09,2.18,20.6,20.6,0,0,1,2-.4,14.7,14.7,0,0,1,2.14-.14,7.39,7.39,0,0,1,2.4.35,5.35,5.35,0,0,1,1.76.94,3.94,3.94,0,0,1,1.07,1.38,4,4,0,0,1-.21,3.73,4.88,4.88,0,0,1-1.56,1.5,8.7,8.7,0,0,1-2.37,1,16.72,16.72,0,0,1-3,.45l3.68,3.29-2,1.54Z"/><path d="M177.76,186.19a5.16,5.16,0,0,1-.74,2.74,6,6,0,0,1-1.86,1.93,8.36,8.36,0,0,0,1,.59c.4.21.83.41,1.29.61s.93.39,1.41.56,1,.32,1.39.45V181.84h5.19v2h-2.88v20h-2.15V200.4h-.12a3.71,3.71,0,0,1-1.54,1.39,5.64,5.64,0,0,1-2.53.5,7.44,7.44,0,0,1-2-.28,5.21,5.21,0,0,1-1.74-.84,4.28,4.28,0,0,1-1.23-1.49,4.71,4.71,0,0,1-.47-2.16,3.57,3.57,0,0,1,.36-1.62,3.81,3.81,0,0,1,.94-1.23,5.49,5.49,0,0,1,1.36-.85,7.4,7.4,0,0,1,1.6-.49v-.13l-1-.53c-.32-.18-.63-.37-.93-.56-.4.17-.89.37-1.47.59s-1.19.45-1.84.67-1.3.44-2,.64-1.26.37-1.81.5l-1.28-2.37a44.07,44.07,0,0,0,6.43-2,7.57,7.57,0,0,0,3-1.91,3.37,3.37,0,0,0,.91-2.22,2.58,2.58,0,0,0-.6-1.79,2.1,2.1,0,0,0-1.64-.67,2.88,2.88,0,0,0-1.69.54,1.87,1.87,0,0,0-.77,1.63,3.35,3.35,0,0,0,.38,1.6,4.47,4.47,0,0,0,.93,1.19l-1.92,1.05a5.38,5.38,0,0,1-1.39-1.68,4.94,4.94,0,0,1-.5-2.32,3.44,3.44,0,0,1,.36-1.53,4.16,4.16,0,0,1,1-1.32,5,5,0,0,1,1.53-.92,5.39,5.39,0,0,1,2-.36,5.31,5.31,0,0,1,2.1.39,4.42,4.42,0,0,1,2.48,2.56A5.15,5.15,0,0,1,177.76,186.19Zm-.48,8.42a4.76,4.76,0,0,0-2.79.76,2.59,2.59,0,0,0-1.09,2.24,2.31,2.31,0,0,0,.9,2.08,3.75,3.75,0,0,0,2.18.61,4.15,4.15,0,0,0,1.36-.24,3.72,3.72,0,0,0,1.23-.72,3.55,3.55,0,0,0,.88-1.25,4.59,4.59,0,0,0,.33-1.82v-1.12a13.21,13.21,0,0,0-1.44-.38A7.11,7.11,0,0,0,177.28,194.61Z"/><path d="M195.32,200.88l-2.17,1.44L187,193.26a8.35,8.35,0,0,1-.69-1.13,2,2,0,0,1-.17-.76,1.16,1.16,0,0,1,.51-1,2.07,2.07,0,0,1,1.18-.35l.68.86a2.17,2.17,0,0,0,.8.71,2.59,2.59,0,0,0,1.05.19,2.72,2.72,0,0,0,2.11-1,3.87,3.87,0,0,0,.87-2.69,6.38,6.38,0,0,0-.45-2.5,7.22,7.22,0,0,0-1-1.72h-7v-2h13.76v2h-4.26a6.9,6.9,0,0,1,1,1.74,6.47,6.47,0,0,1,.51,2.61,6.6,6.6,0,0,1-.39,2.32,5.09,5.09,0,0,1-1.07,1.77,4.78,4.78,0,0,1-1.65,1.14,5.36,5.36,0,0,1-2.11.4h-.25l-.26,0Z"/><path d="M324.4,200.88l-2.18,1.44-6.17-9.06a7.41,7.41,0,0,1-.69-1.13,1.87,1.87,0,0,1-.18-.76,1.16,1.16,0,0,1,.51-1,2.11,2.11,0,0,1,1.19-.35l.67.86a2.25,2.25,0,0,0,.8.71,2.68,2.68,0,0,0,1.06.19,2.74,2.74,0,0,0,2.11-1,3.91,3.91,0,0,0,.86-2.69,6.38,6.38,0,0,0-.45-2.5,6.6,6.6,0,0,0-1-1.72h-7v-2h22v2H333V202h-2.5v-8.29a8.1,8.1,0,0,1-3.58.64,7,7,0,0,1-2.24-.38,8.32,8.32,0,0,1-2-1,5.17,5.17,0,0,1-3,.86h-.26l-.26,0Zm2.21-8.77a7.6,7.6,0,0,0,2.32-.32,5,5,0,0,0,1.58-.8v-7.1h-7.1a6.63,6.63,0,0,1,1,1.74,6.47,6.47,0,0,1,.51,2.61,6.19,6.19,0,0,1-.89,3.36,5.42,5.42,0,0,0,1.18.38A6.41,6.41,0,0,0,326.61,192.11Z"/><path d="M338.13,183.89h-2.88v-2h2.65a3.88,3.88,0,0,1-.35-.77,4.48,4.48,0,0,1-.19-1.47,4.55,4.55,0,0,1,.4-1.89,4.06,4.06,0,0,1,1.23-1.55,6.07,6.07,0,0,1,2.1-1,10.06,10.06,0,0,1,3-.39,10,10,0,0,1,4,.76,13.89,13.89,0,0,1,3.17,1.85,15.48,15.48,0,0,1,2.41,2.37,21.91,21.91,0,0,1,1.67,2.29l.32.51-2,1-.51-.76a21,21,0,0,0-1.71-2.23,12.16,12.16,0,0,0-2.07-1.87,10.25,10.25,0,0,0-2.4-1.28,7.76,7.76,0,0,0-2.75-.48,6.41,6.41,0,0,0-1.92.26,3.74,3.74,0,0,0-1.29.68,2.62,2.62,0,0,0-.72,1,3.43,3.43,0,0,0-.23,1.25,4.38,4.38,0,0,0,.32,1.73h3.2v2h-2.88V202h-2.49Z"/><path d="M357.42,196a2.53,2.53,0,0,1-.32,1.3,4.29,4.29,0,0,1-.67.91l3.46,6.75-2.37,1-1.41-3.29a4.77,4.77,0,0,1-2,3.05,6.52,6.52,0,0,1-3.88,1.14,7.18,7.18,0,0,1-2.28-.34,5.29,5.29,0,0,1-1.78-.94,4.33,4.33,0,0,1-1.15-1.49,4.59,4.59,0,0,1-.42-2,3.74,3.74,0,0,1,.55-1.95,3.63,3.63,0,0,1,1.56-1.44,6.77,6.77,0,0,1-1.85-2.14,6.58,6.58,0,0,1-.74-3.24,6.29,6.29,0,0,1,.58-2.81,5.58,5.58,0,0,1,1.52-1.95,6.22,6.22,0,0,1,2.14-1.14,8.28,8.28,0,0,1,2.48-.37h2.5v-3.13H342.54v-2h17.35v2h-4.07v5.24h-4.06a7.58,7.58,0,0,0-1.94.24,4.32,4.32,0,0,0-1.58.77,3.77,3.77,0,0,0-1.07,1.33,4.12,4.12,0,0,0-.4,1.89,5.1,5.1,0,0,0,.36,2,4.19,4.19,0,0,0,1,1.39,3.87,3.87,0,0,0,1.35.8,4.71,4.71,0,0,0,1.52.26,4.85,4.85,0,0,0,2.85-.74l-.83-2.62a2.51,2.51,0,0,1,2-.93,2.28,2.28,0,0,1,1.78.69A2.55,2.55,0,0,1,357.42,196Zm-10.3,6.11A2.38,2.38,0,0,0,348,204a3.44,3.44,0,0,0,2.27.69,4.38,4.38,0,0,0,3.31-1.28,5.17,5.17,0,0,0,1.4-3.3l-.26-.86a8.71,8.71,0,0,1-3.61.7,8.41,8.41,0,0,1-1,0,5.64,5.64,0,0,1-1-.17,2.26,2.26,0,0,0-1.55.86A2.53,2.53,0,0,0,347.12,202.09Z"/><path d="M374.35,199.18a7.59,7.59,0,0,1-2.45,1.47,9.36,9.36,0,0,1-3.53.61,10.84,10.84,0,0,1-2.76-.32,6,6,0,0,1-2.12-1,4.38,4.38,0,0,1-1.36-1.55,4.52,4.52,0,0,1-.48-2.13,2.94,2.94,0,0,1,.49-1.73,3.54,3.54,0,0,1,1.3-1.12,3.84,3.84,0,0,1-.69-.36,3.34,3.34,0,0,1-.69-.63,3.19,3.19,0,0,1-.53-.93,3.78,3.78,0,0,1-.2-1.28,3.48,3.48,0,0,1,.33-1.56,3.2,3.2,0,0,1,.91-1.11,4,4,0,0,1,1.33-.64,5.87,5.87,0,0,1,1.59-.21h2.81v-2.84h-8.7v-2h20.09v2h-2.87v18.4h-2.47Zm-3.62-15.29v5H366a2.56,2.56,0,0,0-1.57.43,1.52,1.52,0,0,0-.57,1.29,1.66,1.66,0,0,0,.6,1.38,2.42,2.42,0,0,0,1.54.48h4.45v2.08h-3.81a2.68,2.68,0,0,0-1.81.53,1.86,1.86,0,0,0-.59,1.45,2.07,2.07,0,0,0,1.12,2,8.47,8.47,0,0,0,6.59-.18,6.71,6.71,0,0,0,2.34-2V183.89Z"/><path d="M381.93,183.89h-2.88v-2h8.26v2h-2.88V202h-2.5Z"/><path d="M236.65,257.94a1.93,1.93,0,0,1-.59.38,2.46,2.46,0,0,1-1,.19,3,3,0,0,1-1.2-.24,3.71,3.71,0,0,1-1-.65,3,3,0,0,1-.7-1,3,3,0,0,1-.26-1.24,1.8,1.8,0,0,1,.5-1.33,1.92,1.92,0,0,1,1.42-.5h.38v-7.93h-3.9v-2.05h18.37v2.05h-2.88v18.11h-2.5v-8.1h-6.62Zm0-12.32v7.93h6.62v-7.93Z"/><path d="M250.89,245.62H248v-2.05h8.25v2.05h-2.88v18.11h-2.49Z"/><path d="M271.43,245.62v18.11h-2.49v-5.67a5.75,5.75,0,0,1-1.57.9,7.39,7.39,0,0,1-2.75.42,7.83,7.83,0,0,1-2.72-.48,6.64,6.64,0,0,1-2.34-1.46A7.37,7.37,0,0,1,257.9,255a8.62,8.62,0,0,1-.68-3.38l.93,0a6,6,0,0,0,3.35-.78,2.57,2.57,0,0,0,.94-2.16,3.64,3.64,0,0,0-.38-1.65,5.83,5.83,0,0,0-1-1.39h-5.44v-2.05h18.69v2.05Zm-2.49,0h-5.38a5.7,5.7,0,0,1,1,1.39,4,4,0,0,1,.45,1.93,4.12,4.12,0,0,1-1.38,3.28,6.34,6.34,0,0,1-3.9,1.36,4.25,4.25,0,0,0,1.6,2.63,5.38,5.38,0,0,0,3.39,1,6.3,6.3,0,0,0,2.48-.48,4.36,4.36,0,0,0,1.75-1.25Z"/><path d="M276.55,245.62h-2.88v-2.05h8.26v2.05h-2.88v18.11h-2.5Z"/><path d="M242.55,326.41h-2.43v-5.25a3.53,3.53,0,0,1-1.55,1.25,5.42,5.42,0,0,1-2.23.45,6.38,6.38,0,0,1-2.16-.38,5.35,5.35,0,0,1-1.85-1.16,5.5,5.5,0,0,1-1.3-1.88,6.67,6.67,0,0,1-.48-2.63,5.57,5.57,0,0,1,.47-2.35,5,5,0,0,1,1.23-1.68,5.17,5.17,0,0,1,1.79-1,6.94,6.94,0,0,1,2.14-.33,5,5,0,0,1,3.94,1.66v-4.8H229v-2.05h25v2.05H242.55v5.22a4,4,0,0,1,1.68-1.41,5.8,5.8,0,0,1,2.51-.55,6.52,6.52,0,0,1,2.08.34,4.84,4.84,0,0,1,1.75,1,5,5,0,0,1,1.2,1.66,5.44,5.44,0,0,1,.45,2.27,6.21,6.21,0,0,1-.48,2.55,5,5,0,0,1-1.3,1.76,5.28,5.28,0,0,1-1.9,1,7.54,7.54,0,0,1-2.28.34,5.44,5.44,0,0,1-.83-.07,3,3,0,0,1-.73-.16l.48-2a5.53,5.53,0,0,0,1,.09,4.46,4.46,0,0,0,1.33-.19,3.07,3.07,0,0,0,1.1-.62,3,3,0,0,0,.75-1.09,4.09,4.09,0,0,0,.28-1.62,3,3,0,0,0-.88-2.29,3.35,3.35,0,0,0-2.36-.81,3.62,3.62,0,0,0-2.89,1.13,4.5,4.5,0,0,0-1,3Zm-2.4-11.26a4.76,4.76,0,0,0-1.65-1.22,5,5,0,0,0-1.9-.35,4.07,4.07,0,0,0-1.3.21,3.12,3.12,0,0,0-1.1.64,3.29,3.29,0,0,0-.78,1.07,3.38,3.38,0,0,0-.31,1.5,3.7,3.7,0,0,0,.95,2.72,3.27,3.27,0,0,0,2.44,1,4.88,4.88,0,0,0,1.4-.2,3.17,3.17,0,0,0,1.16-.68,3.09,3.09,0,0,0,.8-1.16,4.44,4.44,0,0,0,.29-1.73Z"/><path d="M263.77,315.31a3.5,3.5,0,0,0-1.36-.87,4.57,4.57,0,0,0-1.49-.28,3.83,3.83,0,0,0-2.58.86,3.44,3.44,0,0,0-1,2.75,6,6,0,0,0,.43,2.35,7.21,7.21,0,0,0,1.17,1.91,9.91,9.91,0,0,0,1.71,1.57,20.36,20.36,0,0,0,2.06,1.28l-1.53,1.82a17,17,0,0,1-2.48-1.62,11.2,11.2,0,0,1-2-2,9.7,9.7,0,0,1-1.37-2.46,8.27,8.27,0,0,1-.51-2.95,6,6,0,0,1,.48-2.52,4.88,4.88,0,0,1,1.28-1.75,5.1,5.1,0,0,1,1.84-1,6.78,6.78,0,0,1,2.16-.34,5.64,5.64,0,0,1,2.28.47,5.84,5.84,0,0,1,1.88,1.29,3.86,3.86,0,0,1,1.55-1.25,5.09,5.09,0,0,1,2.09-.44,6.79,6.79,0,0,1,1.08.08,2.35,2.35,0,0,1,.84.24v-4.1H253.18v-2.05h22.46v2.05h-2.88v18.11h-2.5v-12a2.66,2.66,0,0,0-.62-.2,3.94,3.94,0,0,0-.91-.08,2.44,2.44,0,0,0-2.35,1.39,9.94,9.94,0,0,0-.82,4.11H263.1a14,14,0,0,1,.2-2.61A11.09,11.09,0,0,1,263.77,315.31Z"/><path d="M277.88,308.3H275v-2.05h8.26v2.05h-2.88v18.11h-2.5Z"/><path d="M158.14,308.3h-2.88v-2.05h2.68a5.13,5.13,0,0,1-.38-.94,4.17,4.17,0,0,1,.35-3.3,4.84,4.84,0,0,1,1.51-1.55,7.32,7.32,0,0,1,2.3-1,12.37,12.37,0,0,1,2.94-.33,12.84,12.84,0,0,1,4.61.78,15.52,15.52,0,0,1,3.62,1.92,16.34,16.34,0,0,1,2.69,2.43c.74.87,1.36,1.64,1.85,2.32l.23.32-1.86,1.19-.45-.58a30,30,0,0,0-2.14-2.45,14.11,14.11,0,0,0-2.43-2,12.15,12.15,0,0,0-2.8-1.32,10.49,10.49,0,0,0-3.22-.48,6,6,0,0,0-3.49.9,2.92,2.92,0,0,0-1.28,2.53,4,4,0,0,0,.08.85,2.69,2.69,0,0,0,.24.65h3.2v2.05h-2.88v18.11h-2.49Z"/><path d="M170.39,311.37a6.19,6.19,0,0,1,2.9.61,6,6,0,0,1,1.81,1.34v-5H162.55v-2.05h17.92v2.05h-2.88v18.11H175.1v-5a7.33,7.33,0,0,1-1.65,1.15,6.22,6.22,0,0,1-2.9.58,7.64,7.64,0,0,1-2.46-.4,6,6,0,0,1-2-1.19,5.54,5.54,0,0,1-1.4-1.92,6.41,6.41,0,0,1-.51-2.64,5.82,5.82,0,0,1,.47-2.41,4.57,4.57,0,0,1,1.31-1.75,5.73,5.73,0,0,1,2-1.07A7.91,7.91,0,0,1,170.39,311.37Zm4.71,4.51a5.43,5.43,0,0,0-1.67-1.63,4.56,4.56,0,0,0-2.56-.73,4.69,4.69,0,0,0-3,.88,3.14,3.14,0,0,0-1.14,2.67,3.54,3.54,0,0,0,1.16,3,5.09,5.09,0,0,0,3.1.86,4.47,4.47,0,0,0,2.87-1,3.42,3.42,0,0,0,.87-1.1,3,3,0,0,0,.33-1.38Z"/><path d="M194.58,323.6a8,8,0,0,1-2.45,1.47,9.56,9.56,0,0,1-3.53.61,10.74,10.74,0,0,1-2.75-.33,6.22,6.22,0,0,1-2.13-1,4.34,4.34,0,0,1-1.84-3.68,2.85,2.85,0,0,1,.5-1.73,3.5,3.5,0,0,1,1.29-1.12,4.76,4.76,0,0,1-.69-.37,3.58,3.58,0,0,1-.69-.62,3.46,3.46,0,0,1-.52-.93,3.58,3.58,0,0,1-.21-1.28,3.52,3.52,0,0,1,.33-1.57,3,3,0,0,1,.92-1.1,3.88,3.88,0,0,1,1.32-.65,6.35,6.35,0,0,1,1.59-.2h2.82V308.3h-8.71v-2.05h20.1v2.05h-2.88v18.4h-2.47ZM191,308.3v5h-4.71a2.51,2.51,0,0,0-1.56.43,1.51,1.51,0,0,0-.58,1.3,1.64,1.64,0,0,0,.61,1.37,2.37,2.37,0,0,0,1.53.48h4.45v2.08H186.9a2.63,2.63,0,0,0-1.8.53,1.84,1.84,0,0,0-.6,1.46,2.07,2.07,0,0,0,1.12,2,7.09,7.09,0,0,0,3.2.58,7.24,7.24,0,0,0,3.39-.75,6.65,6.65,0,0,0,2.34-2V308.3Z"/><path d="M202.17,308.3h-2.88v-2.05h8.25v2.05h-2.88v18.11h-2.49Z"/><path d="M323.52,325.29l-2.18,1.44-6.17-9.05a7.75,7.75,0,0,1-.69-1.14,1.86,1.86,0,0,1-.18-.75,1.17,1.17,0,0,1,.52-1,2.05,2.05,0,0,1,1.18-.35l.67.87a2.22,2.22,0,0,0,.8.7,2.51,2.51,0,0,0,1.06.19,2.74,2.74,0,0,0,2.11-1,3.85,3.85,0,0,0,.86-2.69,6.3,6.3,0,0,0-.44-2.49,7,7,0,0,0-1-1.73h-7v-2.05h13.76v2.05h-4.25a6.81,6.81,0,0,1,1,1.74,6.47,6.47,0,0,1,.51,2.61,6.57,6.57,0,0,1-.38,2.32,5.19,5.19,0,0,1-1.07,1.78,4.63,4.63,0,0,1-1.65,1.13,5.36,5.36,0,0,1-2.11.4h-.26l-.25,0Z"/><path d="M329,308.3h-2.88v-2.05h8.26v2.05h-2.88v18.11H329Z"/><path d="M338.88,316.81a2.32,2.32,0,0,0,.86-1.23,5.49,5.49,0,0,0,.32-1.94,6.76,6.76,0,0,0-.62-2.89,8.76,8.76,0,0,0-1.68-2.45h-4v-2.05h18.59v2.05h-2.88v18.11H347V308.3h-6.63a5.62,5.62,0,0,1,.79.9,7.3,7.3,0,0,1,.73,1.28,8.2,8.2,0,0,1,.55,1.63,9.2,9.2,0,0,1,.2,1.95,8.44,8.44,0,0,1-.36,2.59,5.63,5.63,0,0,1-1,1.87,4.3,4.3,0,0,1-1.4,1.14,3.57,3.57,0,0,1-1.59.38,3,3,0,0,1-1.09-.19,3.14,3.14,0,0,1-.92-.54,2.63,2.63,0,0,1-.66-.83,2.42,2.42,0,0,1-.24-1.09,1.73,1.73,0,0,1,.56-1.36,1.85,1.85,0,0,1,1.26-.5Z"/><path d="M90.79,326.41H88.36v-5.25a3.53,3.53,0,0,1-1.55,1.25,5.37,5.37,0,0,1-2.22.45,6.3,6.3,0,0,1-2.16-.38,5.3,5.3,0,0,1-1.86-1.16,5.64,5.64,0,0,1-1.3-1.88,6.67,6.67,0,0,1-.48-2.63,5.57,5.57,0,0,1,.47-2.35,5,5,0,0,1,1.23-1.68,5.17,5.17,0,0,1,1.79-1,7,7,0,0,1,2.15-.33,5,5,0,0,1,3.93,1.66v-4.8H77.19v-2.05h25v2.05H90.79v5.22a4,4,0,0,1,1.68-1.41,5.82,5.82,0,0,1,2.52-.55,6.62,6.62,0,0,1,2.08.34,4.88,4.88,0,0,1,1.74,1,5,5,0,0,1,1.2,1.66,5.44,5.44,0,0,1,.45,2.27,6.21,6.21,0,0,1-.48,2.55,4.84,4.84,0,0,1-1.3,1.76,5.28,5.28,0,0,1-1.9,1,7.52,7.52,0,0,1-2.27.34,5.46,5.46,0,0,1-.84-.07,3,3,0,0,1-.73-.16l.48-2a5.53,5.53,0,0,0,1,.09,4.46,4.46,0,0,0,1.33-.19,3,3,0,0,0,1.1-.62,3.09,3.09,0,0,0,.76-1.09,4.29,4.29,0,0,0,.27-1.62,3,3,0,0,0-.88-2.29,3.34,3.34,0,0,0-2.35-.81,3.64,3.64,0,0,0-2.9,1.13,4.5,4.5,0,0,0-1,3Zm-2.4-11.26a4.83,4.83,0,0,0-1.64-1.22,5,5,0,0,0-1.91-.35,4,4,0,0,0-1.29.21,3.08,3.08,0,0,0-1.11.64,3.29,3.29,0,0,0-.78,1.07,3.52,3.52,0,0,0-.31,1.5,3.7,3.7,0,0,0,1,2.72,3.28,3.28,0,0,0,2.45,1,4.86,4.86,0,0,0,1.39-.2,3.21,3.21,0,0,0,1.17-.68,3.34,3.34,0,0,0,.8-1.16,4.65,4.65,0,0,0,.28-1.73Z"/><path d="M104.14,308.3h-2.88v-2.05h8.25v2.05h-2.88v18.11h-2.49Z"/><path d="M119.47,315.31a3.5,3.5,0,0,0-1.36-.87,4.57,4.57,0,0,0-1.49-.28A3.79,3.79,0,0,0,114,315a3.44,3.44,0,0,0-1,2.75,6,6,0,0,0,.44,2.35,6.93,6.93,0,0,0,1.16,1.91,9.62,9.62,0,0,0,1.72,1.57,19.3,19.3,0,0,0,2.06,1.28l-1.54,1.82a17.61,17.61,0,0,1-2.48-1.62,11.15,11.15,0,0,1-2-2,9.7,9.7,0,0,1-1.37-2.46,8.06,8.06,0,0,1-.52-2.95,6,6,0,0,1,.48-2.52,5,5,0,0,1,1.28-1.75,5.27,5.27,0,0,1,1.84-1,6.87,6.87,0,0,1,2.16-.34,5.78,5.78,0,0,1,4.16,1.76,3.89,3.89,0,0,1,1.56-1.25,5.05,5.05,0,0,1,2.09-.44,6.67,6.67,0,0,1,1.07.08,2.35,2.35,0,0,1,.85.24v-4.1H108.87v-2.05h22.47v2.05h-2.88v18.11H126v-12a2.82,2.82,0,0,0-.62-.2,4,4,0,0,0-.91-.08,2.46,2.46,0,0,0-2.36,1.39,10,10,0,0,0-.81,4.11h-2.47a13.9,13.9,0,0,1,.21-2.61A10.09,10.09,0,0,1,119.47,315.31Z"/><path d="M384,308.3H381.1v-2.05h2.68a5.13,5.13,0,0,1-.38-.94,4.17,4.17,0,0,1,.35-3.3,4.84,4.84,0,0,1,1.51-1.55,7.32,7.32,0,0,1,2.3-1,12.37,12.37,0,0,1,2.94-.33,12.84,12.84,0,0,1,4.61.78,15.52,15.52,0,0,1,3.62,1.92,16.34,16.34,0,0,1,2.69,2.43c.74.87,1.36,1.64,1.85,2.32l.23.32-1.86,1.19-.45-.58a30,30,0,0,0-2.14-2.45,14.11,14.11,0,0,0-2.43-2,12.15,12.15,0,0,0-2.8-1.32,10.49,10.49,0,0,0-3.22-.48,6,6,0,0,0-3.49.9,2.92,2.92,0,0,0-1.28,2.53,4,4,0,0,0,.08.85,3.91,3.91,0,0,0,.24.65h3.2v2.05h-2.88v18.11H384Z"/><path d="M401,314.51V308.3H388.71v-2.05h17.63v2.05h-2.88v18.11H401v-9.76h-6.31l.16,2.56a1.58,1.58,0,0,1-.51.37,2.12,2.12,0,0,1-1,.21,2.81,2.81,0,0,1-2.13-.91,3.18,3.18,0,0,1-.85-2.26,2.23,2.23,0,0,1,.53-1.47,2,2,0,0,1,1.65-.64Z"/><path d="M421.51,308.3v18.11H419v-5.66a5.51,5.51,0,0,1-1.57.89,7.39,7.39,0,0,1-2.75.42,7.83,7.83,0,0,1-2.72-.48,6.64,6.64,0,0,1-2.34-1.46,7.37,7.37,0,0,1-1.66-2.43,8.59,8.59,0,0,1-.68-3.38l.93,0a6,6,0,0,0,3.35-.78,2.57,2.57,0,0,0,.94-2.16,3.64,3.64,0,0,0-.38-1.65,6,6,0,0,0-1-1.39H405.7v-2.05h18.69v2.05Zm-2.49,0h-5.38a5.9,5.9,0,0,1,1,1.39,4.08,4.08,0,0,1,.45,1.94,4.13,4.13,0,0,1-1.38,3.28,6.4,6.4,0,0,1-3.9,1.36,4.25,4.25,0,0,0,1.6,2.62,5.38,5.38,0,0,0,3.39,1,6.3,6.3,0,0,0,2.48-.48,4.34,4.34,0,0,0,1.75-1.24Z"/><path d="M426.63,308.3h-2.88v-2.05h2.69a4,4,0,0,1-.38-.94,4.07,4.07,0,0,1-.2-1.2,4,4,0,0,1,.55-2.1,4.81,4.81,0,0,1,1.5-1.55,7.38,7.38,0,0,1,2.31-1,12.25,12.25,0,0,1,2.94-.33,12.88,12.88,0,0,1,4.61.78,15.44,15.44,0,0,1,3.61,1.92,16,16,0,0,1,2.69,2.43c.75.87,1.37,1.64,1.86,2.32l.22.32-1.85,1.19-.45-.58a30.12,30.12,0,0,0-2.15-2.45,13.38,13.38,0,0,0-2.43-2,12,12,0,0,0-2.8-1.32,10.38,10.38,0,0,0-3.21-.48,6,6,0,0,0-3.49.9,2.9,2.9,0,0,0-1.28,2.53,3.45,3.45,0,0,0,.08.85,2.69,2.69,0,0,0,.24.65H432v2.05h-2.88v18.11h-2.5Z"/><path d="M439.05,315a3.58,3.58,0,0,0-2.82,1,3.75,3.75,0,0,0-.86,2.53,8.38,8.38,0,0,0,.72,3.38,25,25,0,0,0,2.06,3.66L436,326.7a23,23,0,0,1-2.32-4,10.34,10.34,0,0,1-.88-4.28,5.44,5.44,0,0,1,1.52-4.14,5.87,5.87,0,0,1,4.24-1.46H444V308.3H430.89v-2.05h18.46v2.05h-2.88v18.11H444V315Z"/><path d="M245.7,367.86h-2.88V386h-2.49v-7.71a5.44,5.44,0,0,1-1.54.9,6.33,6.33,0,0,1-2.3.38,6.9,6.9,0,0,1-2.11-.32,4.78,4.78,0,0,1-1.76-1,4.69,4.69,0,0,1-1.22-1.67,5.6,5.6,0,0,1-.45-2.33v-6.37h-2.24v-2.05h17ZM233.45,374a3.56,3.56,0,0,0,.83,2.63,3.3,3.3,0,0,0,2.37.8,4.59,4.59,0,0,0,2.21-.56,3.56,3.56,0,0,0,1.47-1.4v-7.58h-6.88Z"/><path d="M237.7,386.87a4,4,0,0,1,1.52-1,5.72,5.72,0,0,1,2.13-.4,4.55,4.55,0,0,1,3.44,1.25,4.3,4.3,0,0,1,1.2,3.1,4.39,4.39,0,0,1-1.45,3.41,5.93,5.93,0,0,1-4.15,1.33,9.62,9.62,0,0,1-4.51-1.14,11.72,11.72,0,0,1-3.81-3.21l1.7-1.44a13.07,13.07,0,0,0,3.13,2.75,6.45,6.45,0,0,0,3.33.93,3.47,3.47,0,0,0,2.39-.74,2.51,2.51,0,0,0,.81-2,2.33,2.33,0,0,0-.54-1.62,2.18,2.18,0,0,0-1.67-.59,3.06,3.06,0,0,0-1.2.24,4.06,4.06,0,0,0-1.07.69Z"/><path d="M255.88,384.85l-2.18,1.44-6.49-9.05a7.75,7.75,0,0,1-.69-1.14,1.86,1.86,0,0,1-.18-.75,1.17,1.17,0,0,1,.52-1A2.05,2.05,0,0,1,248,374l.67.87a2.22,2.22,0,0,0,.8.7,2.51,2.51,0,0,0,1.06.19,2.74,2.74,0,0,0,2.11-1,3.85,3.85,0,0,0,.86-2.69,6.48,6.48,0,0,0-.44-2.49,7,7,0,0,0-1-1.73h-7v-2.05h22.08v2.05H254.57a6.81,6.81,0,0,1,1,1.74,6.47,6.47,0,0,1,.51,2.61v.31a1.69,1.69,0,0,1,0,.3,8,8,0,0,1,1.57-.62,6.29,6.29,0,0,1,1.76-.24,6.54,6.54,0,0,1,2.32.4,5.64,5.64,0,0,1,1.86,1.12,5,5,0,0,1,1.21,1.72,5.53,5.53,0,0,1,.43,2.2,5.72,5.72,0,0,1-.59,2.72,5.58,5.58,0,0,1-1.55,1.85A6.25,6.25,0,0,1,260.9,383a9.07,9.07,0,0,1-2.49.34l-.16-2.11a7.11,7.11,0,0,0,1.37-.23,4.4,4.4,0,0,0,1.44-.62,3.79,3.79,0,0,0,1.14-1.15,3.35,3.35,0,0,0,.46-1.84,3.15,3.15,0,0,0-.94-2.48,3.51,3.51,0,0,0-2.45-.85,6,6,0,0,0-2.06.42A6.7,6.7,0,0,0,255,376a4.56,4.56,0,0,1-1.73,1.39,5.64,5.64,0,0,1-2.43.49h-.21l-.2,0Z"/><path d="M283.5,367.86h-2.88V386h-2.5v-7.39a5.3,5.3,0,0,1-1.54.9,6.29,6.29,0,0,1-2.3.38,7.62,7.62,0,0,1-2.18-.32,5.34,5.34,0,0,1-1.87-1,5,5,0,0,1-1.31-1.67,5.16,5.16,0,0,1-.5-2.33v-6.69h-2.24v-2.05H283.5Zm-5.38,0h-7.2l7.2,6.91Zm-7.2,6.43a3.2,3.2,0,0,0,1,2.63,3.93,3.93,0,0,0,2.53.8,5.6,5.6,0,0,0,1.81-.31,3.57,3.57,0,0,0,1.42-.85l-6.75-6.46Z"/><path d="M240.09,430.83h-2.88V449h-2.5v-7.4l-8,8-2.36-2,6-4.87a5.58,5.58,0,0,1-2-.4,4.76,4.76,0,0,1-1.6-1,4.63,4.63,0,0,1-1.07-1.63,5.94,5.94,0,0,1-.38-2.24v-6.53H223.1v-2h17Zm-12.26,6.28a3.53,3.53,0,0,0,.83,2.62,3.31,3.31,0,0,0,2.37.8,4.5,4.5,0,0,0,2.11-.48,4.78,4.78,0,0,0,1.57-1.28v-7.94h-6.88Z"/><path d="M253.05,449h-2.43V443.7a3.63,3.63,0,0,1-1.56,1.25,5.53,5.53,0,0,1-2.22.44,6.3,6.3,0,0,1-2.16-.38,5.39,5.39,0,0,1-3.15-3,6.64,6.64,0,0,1-.48-2.63,5.6,5.6,0,0,1,.46-2.35,5,5,0,0,1,1.23-1.68,5.38,5.38,0,0,1,1.8-1,6.89,6.89,0,0,1,2.14-.33,5,5,0,0,1,3.94,1.66v-4.8H239.45v-2h25v2H253.05v5.22a3.84,3.84,0,0,1,1.68-1.41,5.74,5.74,0,0,1,2.51-.54,6.52,6.52,0,0,1,2.08.33,5,5,0,0,1,1.74,1,4.65,4.65,0,0,1,1.2,1.67,5.41,5.41,0,0,1,.45,2.27,6.16,6.16,0,0,1-.48,2.54,4.85,4.85,0,0,1-1.29,1.76,5.5,5.5,0,0,1-1.91,1,7.74,7.74,0,0,1-2.27.33,6.73,6.73,0,0,1-.83-.06,4.52,4.52,0,0,1-.74-.16l.48-2.05a5.54,5.54,0,0,0,1,.1,4.34,4.34,0,0,0,1.32-.2,2.89,2.89,0,0,0,1.11-.62,3,3,0,0,0,.75-1.09,4.25,4.25,0,0,0,.27-1.62,2.93,2.93,0,0,0-.88-2.28,3.28,3.28,0,0,0-2.35-.82,3.61,3.61,0,0,0-2.9,1.14,4.46,4.46,0,0,0-1,3Zm-2.4-11.27a4.42,4.42,0,0,0-3.55-1.57,4.07,4.07,0,0,0-1.3.21,3,3,0,0,0-1.1.64,3.43,3.43,0,0,0-.79,1.07,3.54,3.54,0,0,0-.3,1.51,3.72,3.72,0,0,0,.94,2.72,3.29,3.29,0,0,0,2.45,1,4.54,4.54,0,0,0,1.39-.21,3.11,3.11,0,0,0,1.17-.67,3.17,3.17,0,0,0,.8-1.17,4.63,4.63,0,0,0,.29-1.73Z"/><path d="M253.05,448.3v2.05h-1.73a4.05,4.05,0,0,0-1.42.21,2.61,2.61,0,0,0-.92.56,2,2,0,0,0-.49.8,2.92,2.92,0,0,0-.15.93,2.24,2.24,0,0,0,.72,1.68,3.18,3.18,0,0,0,2.26.69,7.35,7.35,0,0,0,2.22-.35,9.58,9.58,0,0,0,2.45-1.29l1.09,1.8a11,11,0,0,1-2.82,1.49,9,9,0,0,1-2.84.46,6,6,0,0,1-4-1.26,4.26,4.26,0,0,1-1.51-3.45,4.1,4.1,0,0,1,1.27-3.08,5.18,5.18,0,0,1,3.76-1.24Z"/><path d="M266.39,430.83h-2.88v-2h2.69a4.12,4.12,0,0,1-.38-1,4.06,4.06,0,0,1,.35-3.3,4.91,4.91,0,0,1,1.5-1.55,7.38,7.38,0,0,1,2.31-1,11.75,11.75,0,0,1,2.94-.34,12.88,12.88,0,0,1,4.61.78,16.22,16.22,0,0,1,3.61,1.92,15.21,15.21,0,0,1,2.69,2.44c.75.86,1.37,1.63,1.86,2.32l.22.32-1.85,1.18-.45-.57a26.9,26.9,0,0,0-2.15-2.45,13,13,0,0,0-2.43-2,11.93,11.93,0,0,0-2.8-1.31,10.38,10.38,0,0,0-3.21-.48,6,6,0,0,0-3.49.89,2.92,2.92,0,0,0-1.28,2.53,3.4,3.4,0,0,0,.08.85,2.92,2.92,0,0,0,.24.66h3.2v2h-2.88V449h-2.5Z"/><path d="M278.81,437.55a3.58,3.58,0,0,0-2.82,1,3.77,3.77,0,0,0-.86,2.53,8.38,8.38,0,0,0,.72,3.38,24.46,24.46,0,0,0,2.06,3.66l-2.14,1.12a22.62,22.62,0,0,1-2.32-4,10.3,10.3,0,0,1-.88-4.27,5.46,5.46,0,0,1,1.52-4.15,5.86,5.86,0,0,1,4.24-1.45h5.4v-4.55H270.65v-2h18.46v2h-2.88V449h-2.5v-11.4Z"/><path d="M239.7,495.08a7.22,7.22,0,0,1,2.77.45,7.83,7.83,0,0,1,1.94,1.15V492H231.7V490h18.08V492H246.9v18.11h-2.49v-4.86a6,6,0,0,1-1.7,1.06,7.14,7.14,0,0,1-2.88.51,7.52,7.52,0,0,1-2.41-.4,6.13,6.13,0,0,1-2.08-1.19,6,6,0,0,1-1.48-1.92,5.9,5.9,0,0,1-.56-2.64,5.55,5.55,0,0,1,.5-2.41,4.9,4.9,0,0,1,1.36-1.75,6.15,6.15,0,0,1,2-1.07A8.51,8.51,0,0,1,239.7,495.08Zm-3.77,5.7a4.5,4.5,0,0,0,.33,1.81,3.11,3.11,0,0,0,.92,1.2,3.71,3.71,0,0,0,1.32.65,5.86,5.86,0,0,0,3.25,0l-4.67-6.28A3.17,3.17,0,0,0,235.93,500.78Zm8.48-1.54a5.31,5.31,0,0,0-1.79-1.42,5.48,5.48,0,0,0-2.56-.59,5.31,5.31,0,0,0-1.48.19l4.61,6.24a3.62,3.62,0,0,0,.88-1,2.22,2.22,0,0,0,.34-1.22Z"/><path d="M241.78,511a4,4,0,0,1,1.52-1,5.92,5.92,0,0,1,2.13-.4,4.55,4.55,0,0,1,3.44,1.25,4.31,4.31,0,0,1,1.2,3.11,4.39,4.39,0,0,1-1.45,3.4,5.93,5.93,0,0,1-4.15,1.33,9.62,9.62,0,0,1-4.51-1.14,11.6,11.6,0,0,1-3.81-3.21l1.7-1.44a12.86,12.86,0,0,0,3.13,2.75,6.45,6.45,0,0,0,3.33.93,3.47,3.47,0,0,0,2.39-.74,2.51,2.51,0,0,0,.81-2,2.29,2.29,0,0,0-.54-1.61,2.14,2.14,0,0,0-1.67-.6,3.06,3.06,0,0,0-1.2.24,4.06,4.06,0,0,0-1.07.69Z"/><path d="M251.77,490a4.17,4.17,0,0,1-.35-.84,3.5,3.5,0,0,1-.16-1.11,3.59,3.59,0,0,1,.62-2,5.52,5.52,0,0,1,1.79-1.65,9.8,9.8,0,0,1,2.85-1.09,17.42,17.42,0,0,1,3.79-.38,21.37,21.37,0,0,1,6.32.86,24,24,0,0,1,4.82,2,19.75,19.75,0,0,1,3.36,2.39c.87.8,1.52,1.43,1.95,1.9l.35.38-1.57,1.35-.51-.51a31.9,31.9,0,0,0-2.54-2.28,18.51,18.51,0,0,0-3.14-2,18.86,18.86,0,0,0-4-1.42,21.08,21.08,0,0,0-5-.54,13.18,13.18,0,0,0-2.93.28,7.3,7.3,0,0,0-2,.77,3.4,3.4,0,0,0-1.19,1.12,2.71,2.71,0,0,0-.38,1.38,3.07,3.07,0,0,0,.26,1.37h3.26V492h-2.88v18.11H252V492h-2.88V490Z"/><path d="M278.42,504.14a2.53,2.53,0,0,1-.32,1.3,4.21,4.21,0,0,1-.67.91L280.5,513l-2.43.87-2-5.19a10.88,10.88,0,0,1-1.36,2.44,9.88,9.88,0,0,1-1.81,1.84,7.9,7.9,0,0,1-2.13,1.16,6.65,6.65,0,0,1-2.32.42,6.23,6.23,0,0,1-1.89-.29,5.07,5.07,0,0,1-1.58-.83,4,4,0,0,1-1.09-1.34,4.24,4.24,0,0,1-.4-1.86,4.4,4.4,0,0,1,.05-.58,3.37,3.37,0,0,1,.11-.51,1.94,1.94,0,0,1-.75.24,6.39,6.39,0,0,1-.94.08,5.88,5.88,0,0,1-1.68-.24,4.36,4.36,0,0,1-1.46-.73,3.73,3.73,0,0,1-1-1.32,4.37,4.37,0,0,1-.4-2,4.29,4.29,0,0,1,.29-1.59,3.35,3.35,0,0,1,.85-1.25,4.06,4.06,0,0,1,1.32-.83,4.76,4.76,0,0,1,1.73-.3,3.89,3.89,0,0,1,1.17.17,3.8,3.8,0,0,1,.88.43l-.74,1.67a1,1,0,0,0-.52-.22,2.84,2.84,0,0,0-.6-.07,2,2,0,0,0-1.45.56,1.94,1.94,0,0,0-.56,1.46,2.14,2.14,0,0,0,.7,1.76,2.72,2.72,0,0,0,1.76.57,3.48,3.48,0,0,0,1.46-.33,4.53,4.53,0,0,0,1.33-1l1.05-1.15a6.64,6.64,0,0,1-1-3.65,6.38,6.38,0,0,1,.58-2.85,5.58,5.58,0,0,1,1.52-2,6.2,6.2,0,0,1,2.16-1.13,8.39,8.39,0,0,1,2.49-.37h2.5V492H256.44V490H280.5V492h-3.68v5.25h-4.09a7.64,7.64,0,0,0-1.94.24,4.32,4.32,0,0,0-1.58.77,3.69,3.69,0,0,0-1.07,1.33,4.19,4.19,0,0,0-.4,1.92,5.14,5.14,0,0,0,.36,2,4.3,4.3,0,0,0,1,1.39,3.87,3.87,0,0,0,1.35.8,4.7,4.7,0,0,0,1.52.25,4.87,4.87,0,0,0,2.88-.73L274,502.6a2.51,2.51,0,0,1,2-.93,2.32,2.32,0,0,1,1.78.69A2.53,2.53,0,0,1,278.42,504.14Zm-6.36,4a7.9,7.9,0,0,1-2.32-.34,6.65,6.65,0,0,1-2.1-1l-.86,1a5.1,5.1,0,0,0-.66,1,3.15,3.15,0,0,0-.3,1.47,2.21,2.21,0,0,0,.6,1.63,2.62,2.62,0,0,0,1.92.61,4.64,4.64,0,0,0,3.12-1.23,9,9,0,0,0,2.32-3.25A9.41,9.41,0,0,1,272.06,508.14Z"/><path d="M305.13,491a5.54,5.54,0,0,1,2-1,9.23,9.23,0,0,1,2.5-.37,7.65,7.65,0,0,1,2.3.34,5.61,5.61,0,0,1,1.86,1,4.4,4.4,0,0,1,1.25,1.6,5.27,5.27,0,0,1,.44,2.2,4.48,4.48,0,0,1-.7,2.58,5.58,5.58,0,0,1-1.63,1.62,12.12,12.12,0,0,0,1.89.36,14.19,14.19,0,0,0,1.76.12,8.45,8.45,0,0,0,2-.26,4.73,4.73,0,0,0,1.55-.61V492h-2.95V490h8.32V492h-2.88v18.11h-2.49v-9a6.88,6.88,0,0,1-2.79.51,6.46,6.46,0,0,1-1.29-.11,7.86,7.86,0,0,1-1.46-.46l-.06.06a5.67,5.67,0,0,1,.88,1.39,4.26,4.26,0,0,1,.3,1.65,5.07,5.07,0,0,1-1.68,4.05,6.73,6.73,0,0,1-4.56,1.45,9.11,9.11,0,0,1-1.47-.12,10.14,10.14,0,0,1-1.44-.37,9.08,9.08,0,0,1-1.3-.56,4.9,4.9,0,0,1-1-.7l1.05-1.83a5.93,5.93,0,0,0,4,1.44,5.36,5.36,0,0,0,1.46-.19,3.37,3.37,0,0,0,1.21-.61,2.9,2.9,0,0,0,.85-1.09,3.74,3.74,0,0,0,.32-1.6,3.49,3.49,0,0,0-1-2.62,4.55,4.55,0,0,0-3.28-1h-2v-2.08h1.7a4.52,4.52,0,0,0,3-.87,3.07,3.07,0,0,0,1.12-2.56,2.73,2.73,0,0,0-1-2.33,3.85,3.85,0,0,0-2.37-.77,7.45,7.45,0,0,0-1.65.21,5.1,5.1,0,0,0-1.74.78Z"/><path d="M336.13,513.26a14.88,14.88,0,0,1-4-.93,9.25,9.25,0,0,1-2.74-1.63,6,6,0,0,1-1.58-2.16,6.2,6.2,0,0,1-.52-2.51,5.22,5.22,0,0,1,.4-2.13,5.32,5.32,0,0,1,1-1.52,9.39,9.39,0,0,1-1.23-1.59,3.76,3.76,0,0,1-.53-2,3.63,3.63,0,0,1,.34-1.58,3.17,3.17,0,0,1,.9-1.14,3.78,3.78,0,0,1,1.31-.67,5.48,5.48,0,0,1,1.58-.22h4.45V492h-10.5V490h16.84V492h-3.88v5.18h-6a4.09,4.09,0,0,0-1.72.34,1.47,1.47,0,0,0-.72,1.49,2.72,2.72,0,0,0,.26,1.18,4.46,4.46,0,0,0,.61,1,6,6,0,0,1,1.81-.67,10.12,10.12,0,0,1,2-.19,7.25,7.25,0,0,1,2.41.38,5.28,5.28,0,0,1,1.81,1.06,4.9,4.9,0,0,1,1.14,1.55,4.63,4.63,0,0,1,0,3.81,4.75,4.75,0,0,1-1.06,1.52l-1.92-1.38a3.21,3.21,0,0,0,.66-.91,2.57,2.57,0,0,0,.24-1.13,2.87,2.87,0,0,0-.18-1,2.24,2.24,0,0,0-.56-.88,3,3,0,0,0-1-.64,4.26,4.26,0,0,0-1.57-.26,4.62,4.62,0,0,0-3.1,1,3.28,3.28,0,0,0-1.19,2.61,5.22,5.22,0,0,0,.28,1.7,3.47,3.47,0,0,0,1,1.52,6.62,6.62,0,0,0,2.11,1.2,14.2,14.2,0,0,0,3.49.73Z"/><path d="M334.85,485.35a1.67,1.67,0,0,1,.5-1.16,1.63,1.63,0,0,1,1.26-.53,1.58,1.58,0,0,1,1.27.53,1.77,1.77,0,0,1,0,2.4,1.66,1.66,0,0,1-1.25.49,1.7,1.7,0,0,1-1.26-.49A1.68,1.68,0,0,1,334.85,485.35Z"/><path d="M354.25,510.12h-2.44v-5.24a3.58,3.58,0,0,1-1.55,1.24,5.37,5.37,0,0,1-2.22.45,6.3,6.3,0,0,1-2.16-.38A5.52,5.52,0,0,1,344,505a5.76,5.76,0,0,1-1.29-1.89,6.46,6.46,0,0,1-.49-2.63,5.57,5.57,0,0,1,.47-2.35,5,5,0,0,1,1.23-1.68,5.17,5.17,0,0,1,1.79-1,7,7,0,0,1,2.15-.33,5,5,0,0,1,3.93,1.66V492H340.65V490h25V492H354.25v5.22a3.84,3.84,0,0,1,1.68-1.41,5.74,5.74,0,0,1,2.51-.55,6.57,6.57,0,0,1,2.08.34,4.88,4.88,0,0,1,1.74,1,5,5,0,0,1,1.2,1.66,5.44,5.44,0,0,1,.45,2.27,6.21,6.21,0,0,1-.48,2.55,4.84,4.84,0,0,1-1.3,1.76,5.28,5.28,0,0,1-1.9,1,7.47,7.47,0,0,1-2.27.34,6.73,6.73,0,0,1-.83-.06,4.52,4.52,0,0,1-.74-.16l.48-2.05a5.53,5.53,0,0,0,1,.09,4.41,4.41,0,0,0,1.33-.19,3,3,0,0,0,1.11-.62,3,3,0,0,0,.75-1.09,4.29,4.29,0,0,0,.27-1.62,3,3,0,0,0-.88-2.29,3.34,3.34,0,0,0-2.35-.81,3.64,3.64,0,0,0-2.9,1.13,4.5,4.5,0,0,0-1,3Zm-2.4-11.26a5,5,0,0,0-1.65-1.22,5,5,0,0,0-1.91-.35,4,4,0,0,0-1.29.21,3.08,3.08,0,0,0-1.11.64,3.29,3.29,0,0,0-.78,1.07,3.52,3.52,0,0,0-.3,1.5,3.7,3.7,0,0,0,.94,2.72,3.24,3.24,0,0,0,2.45,1,4.54,4.54,0,0,0,1.39-.2,3.13,3.13,0,0,0,1.17-.68,3,3,0,0,0,.8-1.16,4.63,4.63,0,0,0,.29-1.73Z"/><path d="M367.59,492h-2.88V490H373V492h-2.88v18.11h-2.5Z"/><path d="M382.82,509l-2.17,1.44-6.18-9.05a7.75,7.75,0,0,1-.69-1.14,1.84,1.84,0,0,1-.17-.75,1.18,1.18,0,0,1,.51-1,2.05,2.05,0,0,1,1.18-.35l.67.87a2.3,2.3,0,0,0,.8.7,2.51,2.51,0,0,0,1.06.19,2.74,2.74,0,0,0,2.11-1,3.85,3.85,0,0,0,.87-2.69,6.29,6.29,0,0,0-.45-2.49,7.17,7.17,0,0,0-1-1.73h-7V490h13.77V492h-4.26a6.81,6.81,0,0,1,1,1.74,7.09,7.09,0,0,1,.13,4.93,5,5,0,0,1-1.07,1.78,4.63,4.63,0,0,1-1.65,1.13,5.36,5.36,0,0,1-2.11.41h-.26l-.25,0Z"/><path d="M151.26,504.33a1.53,1.53,0,0,1-.59.38,2.46,2.46,0,0,1-1,.2,3,3,0,0,1-1.2-.24,3.52,3.52,0,0,1-1-.66,3,3,0,0,1-.7-1,3.07,3.07,0,0,1-.26-1.25,1.81,1.81,0,0,1,.5-1.33,1.91,1.91,0,0,1,1.42-.49h.39V492h-3.91V490h18.37V492h-2.88v18.11h-2.5V502h-6.62Zm0-12.32V500h6.62V492Z"/><path d="M174.88,498.22V492H162.62V490h17.63V492h-2.88v18.11h-2.49v-9.76h-6.31l.16,2.56a1.58,1.58,0,0,1-.51.37,2.15,2.15,0,0,1-1,.21,2.8,2.8,0,0,1-2.13-.91,3.18,3.18,0,0,1-.85-2.26,2.27,2.27,0,0,1,.53-1.47,2,2,0,0,1,1.65-.64Z"/><path d="M190.11,509l-2.18,1.44-6.17-9.05a6.29,6.29,0,0,1-.69-1.14,1.86,1.86,0,0,1-.18-.75,1.18,1.18,0,0,1,.51-1,2.11,2.11,0,0,1,1.19-.35l.67.87a2.22,2.22,0,0,0,.8.7,2.51,2.51,0,0,0,1.06.19,2.74,2.74,0,0,0,2.11-1,3.9,3.9,0,0,0,.86-2.69,6.29,6.29,0,0,0-.45-2.49,7.51,7.51,0,0,0-1-1.73h-7V490h22V492h-2.88v18.11h-2.5v-8.29a8.1,8.1,0,0,1-3.58.64,6.72,6.72,0,0,1-2.24-.38,8.32,8.32,0,0,1-2-1,5.1,5.1,0,0,1-3,.87h-.26l-.26,0Zm2.21-8.77a7.67,7.67,0,0,0,2.32-.31,5.55,5.55,0,0,0,1.58-.8V492h-7.1a6.81,6.81,0,0,1,1,1.74,6.47,6.47,0,0,1,.51,2.61,6.19,6.19,0,0,1-.89,3.36,6,6,0,0,0,1.18.39A7.09,7.09,0,0,0,192.32,500.23Z"/><path d="M201.79,516.24l-1.06,1.53-6.4-4.26,1.31-1.79Z"/><path d="M397.94,741.17h-2.88v18.11h-2.49v-7.71a5.44,5.44,0,0,1-1.54.9,6.33,6.33,0,0,1-2.3.38,6.61,6.61,0,0,1-2.11-.32,4.84,4.84,0,0,1-3-2.65,5.65,5.65,0,0,1-.45-2.34v-6.37H381v-2h17Zm-12.25,6.11a3.56,3.56,0,0,0,.83,2.63,3.28,3.28,0,0,0,2.37.8,4.59,4.59,0,0,0,2.21-.56,3.61,3.61,0,0,0,1.47-1.39v-7.59h-6.88Z"/><path d="M395.06,758.64v2.05h-1.72a4.15,4.15,0,0,0-1.43.21,2.43,2.43,0,0,0-.91.56,2,2,0,0,0-.5.8,3.22,3.22,0,0,0-.14.93,2.24,2.24,0,0,0,.72,1.68,3.17,3.17,0,0,0,2.26.69,7.16,7.16,0,0,0,2.22-.36,9.36,9.36,0,0,0,2.45-1.28l1.09,1.79a10.72,10.72,0,0,1-2.82,1.49,8.87,8.87,0,0,1-2.85.47,6,6,0,0,1-4-1.27,4.26,4.26,0,0,1-1.5-3.44,4.13,4.13,0,0,1,1.26-3.08,5.15,5.15,0,0,1,3.76-1.24Z"/><path d="M400.18,741.17H397.3v-2H400a4.23,4.23,0,0,1-.37-.86,4.09,4.09,0,0,1-.17-1.28,3.65,3.65,0,0,1,.6-2,5,5,0,0,1,1.67-1.56,8.84,8.84,0,0,1,2.51-1,12.6,12.6,0,0,1,3.15-.37,16.66,16.66,0,0,1,5,.7,20.17,20.17,0,0,1,4.1,1.76,19,19,0,0,1,3.21,2.32,25,25,0,0,1,2.36,2.42l.32.38L420.44,741l-.58-.64a28,28,0,0,0-2.41-2.33,16.45,16.45,0,0,0-2.83-2,15.74,15.74,0,0,0-3.32-1.36,13.89,13.89,0,0,0-3.85-.51,7.18,7.18,0,0,0-4,.94,2.8,2.8,0,0,0-1.42,2.42,5.32,5.32,0,0,0,.06.78,3.5,3.5,0,0,0,.23.78h3.23v2h-2.88v18.11h-2.5Z"/><path d="M407.35,748.37a12,12,0,0,0,2.63-.45,6.94,6.94,0,0,0,2.09-1,4.56,4.56,0,0,0,1.39-1.48,4,4,0,0,0,.52-2,2.24,2.24,0,0,0-2.28-2.56,2.14,2.14,0,0,0-1.52.56,2,2,0,0,0-.59,1.49,2,2,0,0,0,.34,1.22,2.35,2.35,0,0,0,.78.73l-1.28,1.51a3.31,3.31,0,0,1-.85-.5,4,4,0,0,1-.76-.78,3.81,3.81,0,0,1-.55-1,3.9,3.9,0,0,1-.21-1.3,4,4,0,0,1,.32-1.57,3.87,3.87,0,0,1,.92-1.28,4.33,4.33,0,0,1,1.45-.86,5.7,5.7,0,0,1,1.95-.32,5.19,5.19,0,0,1,2,.38,4.72,4.72,0,0,1,1.52,1,4.55,4.55,0,0,1,1,1.57,5.78,5.78,0,0,1,.34,2,6,6,0,0,1-1.81,4.37,9.22,9.22,0,0,1-5.43,2.29,3.87,3.87,0,0,0,1.56,2.16,5.5,5.5,0,0,0,3.21.84,7.93,7.93,0,0,0,3-.57,5,5,0,0,0,2.12-1.57v-12.1h5.38v2h-2.88v18.11h-2.5v-5.15a7.37,7.37,0,0,1-2.05,1,9.4,9.4,0,0,1-3,.44,8.79,8.79,0,0,1-3-.48,6.6,6.6,0,0,1-4-3.66,8.37,8.37,0,0,1-.69-3Z"/><path d="M431.8,744.24a6.24,6.24,0,0,1,2.89.61,6.1,6.1,0,0,1,1.81,1.35v-5H424v-2h17.92v2H439v18.11h-2.5v-5a7,7,0,0,1-1.64,1.15,6.09,6.09,0,0,1-2.9.58,7.66,7.66,0,0,1-2.47-.4,6,6,0,0,1-2-1.19,5.65,5.65,0,0,1-1.39-1.92,6.34,6.34,0,0,1-.51-2.64,5.86,5.86,0,0,1,.46-2.41,4.78,4.78,0,0,1,1.31-1.75,6,6,0,0,1,2-1.07A8.16,8.16,0,0,1,431.8,744.24Zm4.7,4.52a5.2,5.2,0,0,0-1.66-1.64,4.56,4.56,0,0,0-2.56-.73,4.67,4.67,0,0,0-3,.88,3.16,3.16,0,0,0-1.14,2.67,3.56,3.56,0,0,0,1.15,3,5.12,5.12,0,0,0,3.11.86,4.54,4.54,0,0,0,1.57-.27,4.31,4.31,0,0,0,1.29-.74,3.22,3.22,0,0,0,.88-1.1,3,3,0,0,0,.32-1.38Z"/><path d="M444.12,741.17h-2.88v-2H444c-.15-.51-.35-1.09-.59-1.76a9.71,9.71,0,0,0-.93-1.85,5.68,5.68,0,0,0-1.34-1.46,2.93,2.93,0,0,0-1.78-.59c-1.47,0-2.21.78-2.21,2.34a4.83,4.83,0,0,0,.35,1.79,8.77,8.77,0,0,0,.8,1.53l-1.53,1.25-.74-.93a8,8,0,0,1-1-1.77,5.58,5.58,0,0,1-.43-2.23,4,4,0,0,1,1.23-3,4.72,4.72,0,0,1,3.44-1.2,5.72,5.72,0,0,1,2.15.4,6,6,0,0,1,1.69,1.06,8.09,8.09,0,0,1,1.3,1.49,13,13,0,0,1,1,1.69,12.45,12.45,0,0,1,.64,1.72c.16.56.29,1.06.4,1.48h3.16v2h-2.88v18.11h-2.49Z"/><path d="M296.44,740.18a5.71,5.71,0,0,1,2-1,9.27,9.27,0,0,1,2.5-.36,7.65,7.65,0,0,1,2.3.33,5.8,5.8,0,0,1,1.86,1,4.48,4.48,0,0,1,1.25,1.6,5.28,5.28,0,0,1,.44,2.21,4.47,4.47,0,0,1-.7,2.57,5.46,5.46,0,0,1-1.63,1.62,13.43,13.43,0,0,0,1.89.37,16.27,16.27,0,0,0,1.76.11,8.45,8.45,0,0,0,2-.26,4.73,4.73,0,0,0,1.55-.61v-6.59h-2.95v-2h15.94v2h-2.88v18.11h-2.5V741.17h-5.12v18.11h-2.49v-9a6.88,6.88,0,0,1-2.79.51,6.46,6.46,0,0,1-1.29-.11,7.86,7.86,0,0,1-1.46-.46l-.06.06a5.67,5.67,0,0,1,.88,1.39,4.26,4.26,0,0,1,.3,1.65,5.07,5.07,0,0,1-1.68,4,6.73,6.73,0,0,1-4.56,1.46,9.12,9.12,0,0,1-1.47-.13,10.14,10.14,0,0,1-1.44-.37,9.08,9.08,0,0,1-1.3-.56,4.9,4.9,0,0,1-1-.7l1.05-1.83a5.93,5.93,0,0,0,4,1.44,5.36,5.36,0,0,0,1.46-.19,3.37,3.37,0,0,0,1.21-.61,2.82,2.82,0,0,0,.85-1.09,3.57,3.57,0,0,0,.32-1.6,3.49,3.49,0,0,0-1-2.62,4.55,4.55,0,0,0-3.28-1h-2v-2.08h1.7a4.52,4.52,0,0,0,3-.87,3.07,3.07,0,0,0,1.12-2.56,2.73,2.73,0,0,0-1-2.33,3.85,3.85,0,0,0-2.37-.77,7.45,7.45,0,0,0-1.65.21,5.1,5.1,0,0,0-1.74.78Z"/><path d="M340.82,741.17h-2.88v18.11h-2.5v-7.71a5.24,5.24,0,0,1-1.53.9,6.35,6.35,0,0,1-2.31.38,6.66,6.66,0,0,1-2.11-.32,4.86,4.86,0,0,1-1.76-1,4.72,4.72,0,0,1-1.21-1.66,5.65,5.65,0,0,1-.45-2.34v-6.37h-2.24v-2h17Zm-12.26,6.11a3.5,3.5,0,0,0,.84,2.63,3.27,3.27,0,0,0,2.36.8,4.56,4.56,0,0,0,2.21-.56,3.54,3.54,0,0,0,1.47-1.39v-7.59h-6.88Z"/><path d="M350.68,758.16l-2.18,1.44-6.18-9.05a6.73,6.73,0,0,1-.68-1.14,1.82,1.82,0,0,1-.18-.75,1.15,1.15,0,0,1,.51-1,2,2,0,0,1,1.19-.36l.67.87a2.14,2.14,0,0,0,.8.7,2.47,2.47,0,0,0,1.05.19,2.74,2.74,0,0,0,2.12-1,3.89,3.89,0,0,0,.86-2.68,6.34,6.34,0,0,0-.45-2.5,7.51,7.51,0,0,0-1-1.73h-7v-2h22v2h-2.88v18.11h-2.49V751a8.3,8.3,0,0,1-3.59.64,6.82,6.82,0,0,1-2.24-.39,7.71,7.71,0,0,1-1.95-1,5.12,5.12,0,0,1-3,.87h-.25a1,1,0,0,1-.26,0Zm2.2-8.76a7.56,7.56,0,0,0,2.32-.32,5.37,5.37,0,0,0,1.59-.8v-7.11h-7.11a6.88,6.88,0,0,1,1,1.75,6.42,6.42,0,0,1,.51,2.6,6.06,6.06,0,0,1-.9,3.36,6.37,6.37,0,0,0,1.19.39A7,7,0,0,0,352.88,749.4Z"/><path d="M362.36,765.4l-1.06,1.53-6.4-4.25,1.31-1.8Z"/><path d="M233.66,740.18a5.54,5.54,0,0,1,2-1,9.23,9.23,0,0,1,2.5-.37,7.65,7.65,0,0,1,2.3.34,5.8,5.8,0,0,1,1.86,1,4.4,4.4,0,0,1,1.25,1.6A5.28,5.28,0,0,1,244,744a4.47,4.47,0,0,1-.7,2.57,5.58,5.58,0,0,1-1.63,1.62,13.43,13.43,0,0,0,1.89.37,16.27,16.27,0,0,0,1.76.11,8.45,8.45,0,0,0,2-.26,4.73,4.73,0,0,0,1.55-.61v-6.59h-2.95v-2h8.32v2h-2.88v18.11h-2.49v-9a6.88,6.88,0,0,1-2.79.51,6.46,6.46,0,0,1-1.29-.11,7.86,7.86,0,0,1-1.46-.46l-.06.06a5.67,5.67,0,0,1,.88,1.39,4.26,4.26,0,0,1,.3,1.65,5.07,5.07,0,0,1-1.68,4,6.73,6.73,0,0,1-4.56,1.45,9.11,9.11,0,0,1-1.47-.12,10.14,10.14,0,0,1-1.44-.37,9.08,9.08,0,0,1-1.3-.56,4.9,4.9,0,0,1-1-.7l1-1.83a5.93,5.93,0,0,0,4,1.44,5.36,5.36,0,0,0,1.46-.19,3.37,3.37,0,0,0,1.21-.61,2.9,2.9,0,0,0,.85-1.09,3.57,3.57,0,0,0,.32-1.6,3.49,3.49,0,0,0-1-2.62,4.55,4.55,0,0,0-3.28-1h-2v-2.08h1.7a4.52,4.52,0,0,0,3-.87,3.07,3.07,0,0,0,1.12-2.56,2.73,2.73,0,0,0-1-2.33,3.85,3.85,0,0,0-2.37-.77,7.45,7.45,0,0,0-1.65.21,5.1,5.1,0,0,0-1.74.78Z"/><path d="M256.5,741.17h-2.88v-2h2.66a4.46,4.46,0,0,1-.37-.81,3.65,3.65,0,0,1-.17-1.23,3.88,3.88,0,0,1,.59-2.13,5,5,0,0,1,1.61-1.59,8.88,8.88,0,0,1,2.42-1,12.44,12.44,0,0,1,3-.35,14.84,14.84,0,0,1,4.59.67,17.17,17.17,0,0,1,3.8,1.73,15.24,15.24,0,0,1,3,2.37,19,19,0,0,1,2.12,2.59l.2.29-1.83,1.12-.61-.77a20.59,20.59,0,0,0-2.14-2.26,14.28,14.28,0,0,0-2.58-1.85,13.55,13.55,0,0,0-3-1.25,12.32,12.32,0,0,0-3.41-.46,6.6,6.6,0,0,0-3.78.91,2.9,2.9,0,0,0-1.31,2.51,4.3,4.3,0,0,0,.06.77,5,5,0,0,0,.23.73h3.23v2H259v18.11h-2.5Z"/><path d="M266.36,749.68a2.32,2.32,0,0,0,.86-1.23,5.43,5.43,0,0,0,.32-1.93,6.81,6.81,0,0,0-.62-2.9,8.9,8.9,0,0,0-1.68-2.45h-4v-2h18.59v2H277v19.71h-2.49v-7.36L269,757.4l1.85,1.53a1.67,1.67,0,0,1-.75,1.39,2.89,2.89,0,0,1-1.81.56,3.3,3.3,0,0,1-2.08-.64,2,2,0,0,1-.83-1.66,2.05,2.05,0,0,1,.35-1.18,4.81,4.81,0,0,1,1.06-1.06l7.65-5.57v-9.6h-6.63a6.66,6.66,0,0,1,.79.9,7.3,7.3,0,0,1,.73,1.28,8.2,8.2,0,0,1,.55,1.63,9.2,9.2,0,0,1,.2,1.95,8.44,8.44,0,0,1-.36,2.59,5.79,5.79,0,0,1-1,1.88,4.14,4.14,0,0,1-1.4,1.13,3.58,3.58,0,0,1-1.59.39,3.1,3.1,0,0,1-1.09-.2,2.94,2.94,0,0,1-.92-.54,2.53,2.53,0,0,1-.66-.83,2.39,2.39,0,0,1-.24-1.09,1.73,1.73,0,0,1,.56-1.36,1.85,1.85,0,0,1,1.26-.5Z"/><path d="M170.69,744.24a6.07,6.07,0,0,1,4.71,2v-5H162.86v-2h17.91v2H177.9v18.11h-2.5v-5a7.11,7.11,0,0,1-1.65,1.15,6,6,0,0,1-2.89.58,7.66,7.66,0,0,1-2.47-.4,5.91,5.91,0,0,1-2-1.19,5.52,5.52,0,0,1-1.39-1.92,6.34,6.34,0,0,1-.52-2.64,5.85,5.85,0,0,1,.47-2.41,4.86,4.86,0,0,1,1.31-1.75,6.1,6.1,0,0,1,2-1.07A8.21,8.21,0,0,1,170.69,744.24Zm4.71,4.52a5.34,5.34,0,0,0-1.67-1.64,4.54,4.54,0,0,0-2.56-.73,4.69,4.69,0,0,0-3,.88,3.18,3.18,0,0,0-1.13,2.67,3.53,3.53,0,0,0,1.15,3,5.1,5.1,0,0,0,3.11.86,4.49,4.49,0,0,0,1.56-.27,4.36,4.36,0,0,0,1.3-.74,3.25,3.25,0,0,0,.88-1.1,3.11,3.11,0,0,0,.32-1.38Z"/><path d="M183,741.17h-2.88v-2h8.26v2h-2.88v18.11H183Z"/><path d="M203.56,741.17v18.11h-2.5v-5.66a5.46,5.46,0,0,1-1.57.9,7.63,7.63,0,0,1-2.75.41,7.87,7.87,0,0,1-2.72-.48,6.67,6.67,0,0,1-2.33-1.45,7.34,7.34,0,0,1-1.67-2.44,8.76,8.76,0,0,1-.67-3.37l.93,0a6,6,0,0,0,3.34-.79,2.55,2.55,0,0,0,.95-2.16,3.58,3.58,0,0,0-.39-1.65,5.71,5.71,0,0,0-1-1.39h-5.44v-2h18.69v2Zm-2.5,0h-5.37a6.11,6.11,0,0,1,1,1.39,4.52,4.52,0,0,1-.93,5.22,6.43,6.43,0,0,1-3.9,1.36,4.18,4.18,0,0,0,1.6,2.62,5.32,5.32,0,0,0,3.39,1,6.34,6.34,0,0,0,2.48-.48,4.25,4.25,0,0,0,1.74-1.25Z"/><path d="M198.44,760.18a4,4,0,0,1,1.52-1,5.84,5.84,0,0,1,2.13-.4,4.56,4.56,0,0,1,3.44,1.25,4.31,4.31,0,0,1,1.2,3.11,4.4,4.4,0,0,1-1.46,3.4,5.9,5.9,0,0,1-4.14,1.33,9.76,9.76,0,0,1-4.52-1.13,11.62,11.62,0,0,1-3.8-3.22l1.69-1.44a12.89,12.89,0,0,0,3.14,2.75,6.4,6.4,0,0,0,3.33.93,3.4,3.4,0,0,0,2.38-.74,2.51,2.51,0,0,0,.82-1.95,2.25,2.25,0,0,0-.55-1.61,2.12,2.12,0,0,0-1.66-.6,3,3,0,0,0-1.2.24,3.9,3.9,0,0,0-1.07.69Z"/><path d="M50.69,740.18a5.6,5.6,0,0,1,2-1,9.23,9.23,0,0,1,2.5-.37,7.65,7.65,0,0,1,2.3.34,5.9,5.9,0,0,1,1.86,1,4.27,4.27,0,0,1,1.24,1.6,5.13,5.13,0,0,1,.45,2.21,4.47,4.47,0,0,1-.7,2.57,5.7,5.7,0,0,1-1.63,1.62,13,13,0,0,0,1.88.37,16.43,16.43,0,0,0,1.76.11,8.39,8.39,0,0,0,2-.26,4.8,4.8,0,0,0,1.56-.61v-6.59H63v-2H78.92v2H76v18.11h-2.5V741.17H68.42v18.11H65.93v-9a6.88,6.88,0,0,1-2.79.51,6.46,6.46,0,0,1-1.29-.11,7.86,7.86,0,0,1-1.46-.46l-.06.06a5.67,5.67,0,0,1,.88,1.39,4.26,4.26,0,0,1,.3,1.65,5.07,5.07,0,0,1-1.68,4,6.73,6.73,0,0,1-4.56,1.45,9.11,9.11,0,0,1-1.47-.12,10.14,10.14,0,0,1-1.44-.37,9.08,9.08,0,0,1-1.3-.56,5.28,5.28,0,0,1-1-.7l1.06-1.83a6,6,0,0,0,1.81,1.07,6.06,6.06,0,0,0,2.19.37,5.36,5.36,0,0,0,1.46-.19,3.45,3.45,0,0,0,1.21-.61,3,3,0,0,0,.85-1.09,3.71,3.71,0,0,0,.32-1.6,3.53,3.53,0,0,0-1-2.62,4.55,4.55,0,0,0-3.28-1h-2v-2.08h1.69a4.54,4.54,0,0,0,3-.87,3.07,3.07,0,0,0,1.12-2.56,2.73,2.73,0,0,0-1-2.33,3.87,3.87,0,0,0-2.37-.77,7.45,7.45,0,0,0-1.65.21,5,5,0,0,0-1.74.78Z"/><path d="M91.69,759.28H89.25V754a3.51,3.51,0,0,1-1.55,1.24,5.37,5.37,0,0,1-2.22.45,6.3,6.3,0,0,1-2.16-.38,5.52,5.52,0,0,1-1.86-1.15,5.76,5.76,0,0,1-1.29-1.89,6.64,6.64,0,0,1-.48-2.63,5.57,5.57,0,0,1,.46-2.35,5,5,0,0,1,1.23-1.68,5.17,5.17,0,0,1,1.79-1,7,7,0,0,1,2.15-.33A5,5,0,0,1,89.25,746v-4.8H78.09v-2h25v2H91.69v5.22A3.84,3.84,0,0,1,93.37,745a5.74,5.74,0,0,1,2.51-.54,6.56,6.56,0,0,1,2.08.33,5,5,0,0,1,1.74,1,5,5,0,0,1,1.2,1.66,5.46,5.46,0,0,1,.45,2.28,6.19,6.19,0,0,1-.48,2.54,4.84,4.84,0,0,1-1.3,1.76,5.2,5.2,0,0,1-1.9,1,7.47,7.47,0,0,1-2.27.34,6.73,6.73,0,0,1-.83-.06,4.52,4.52,0,0,1-.74-.16l.48-2a5.53,5.53,0,0,0,1,.09,4.41,4.41,0,0,0,1.33-.19,2.89,2.89,0,0,0,1.11-.62,3,3,0,0,0,.75-1.09,4.29,4.29,0,0,0,.27-1.62,2.93,2.93,0,0,0-.88-2.28,3.3,3.3,0,0,0-2.35-.82,3.61,3.61,0,0,0-2.9,1.14,4.46,4.46,0,0,0-1,3ZM89.29,748a5,5,0,0,0-1.65-1.22,5,5,0,0,0-1.91-.35,4,4,0,0,0-1.29.21,3.08,3.08,0,0,0-1.11.64,3.4,3.4,0,0,0-.78,1.07,3.54,3.54,0,0,0-.3,1.51,3.72,3.72,0,0,0,.94,2.72,3.28,3.28,0,0,0,2.45,1,4.54,4.54,0,0,0,1.39-.21,3.11,3.11,0,0,0,1.17-.67,3.17,3.17,0,0,0,.8-1.17,4.63,4.63,0,0,0,.29-1.73Z"/><path d="M105,741.17h-2.88v-2h8.25v2h-2.88v18.11H105Z"/><path d="M117,738.74a6.13,6.13,0,0,1,2.36.43,5.17,5.17,0,0,1,1.8,1.22,5.41,5.41,0,0,1,1.13,1.87,7,7,0,0,1,.4,2.43,8.84,8.84,0,0,1-.49,3,8.28,8.28,0,0,1-1.4,2.46,8.82,8.82,0,0,1-2.14,1.88,12.29,12.29,0,0,1-2.72,1.26l5.44,4.7-1.92,1.7-5.7-5.63a4.6,4.6,0,0,1-2.09-.74,2,2,0,0,1-.91-1.76,1.77,1.77,0,0,1,.56-1.42,1.74,1.74,0,0,1,1.16-.5l1.76,1.7a8.39,8.39,0,0,0,2.16-.75,6.82,6.82,0,0,0,1.86-1.38,6.73,6.73,0,0,0,1.31-2,6.5,6.5,0,0,0,.5-2.59,4.92,4.92,0,0,0-.26-1.67,3.34,3.34,0,0,0-.67-1.16,2.53,2.53,0,0,0-1-.68,3.31,3.31,0,0,0-1.12-.2,2.24,2.24,0,0,0-1.68.64,2.07,2.07,0,0,0-.62,1.53,2,2,0,0,0,.7,1.63,3.68,3.68,0,0,0,1.92.8l-.61,1.89A7,7,0,0,1,115,747a5.42,5.42,0,0,1-1.46-.9,4.05,4.05,0,0,1-1-1.34,4.33,4.33,0,0,1-.36-1.81,3.76,3.76,0,0,1,.35-1.65,4,4,0,0,1,1-1.31,4.64,4.64,0,0,1,1.52-.88A5.88,5.88,0,0,1,117,738.74Zm9,2.43h-1.63v-2h7v2h-2.85v18.11H126Z"/><path d="M385.9,690.33a2.39,2.39,0,0,0,.86-1.24,5.66,5.66,0,0,0,.32-1.93,6.82,6.82,0,0,0-.63-2.9,8.49,8.49,0,0,0-1.68-2.45h-4v-2h18.6v2h-2.88v18.11H394V681.81h-6.62a7.43,7.43,0,0,1,.78.9,7.31,7.31,0,0,1,.74,1.28,8.9,8.9,0,0,1,.54,1.63,8.57,8.57,0,0,1,.21,2,8.24,8.24,0,0,1-.37,2.6,5.72,5.72,0,0,1-1,1.87,4.27,4.27,0,0,1-1.41,1.13,3.51,3.51,0,0,1-1.58.39,3.24,3.24,0,0,1-1.09-.19,3.13,3.13,0,0,1-.93-.55,2.53,2.53,0,0,1-.66-.83,2.39,2.39,0,0,1-.24-1.09,1.72,1.72,0,0,1,.57-1.36,1.85,1.85,0,0,1,1.26-.5Z"/><path d="M398.73,681.81v-2h9v2Zm23.42-2h5.38v2h-2.88v18.11h-2.5v-4.57a7.07,7.07,0,0,1-2.17,1.1,10.05,10.05,0,0,1-3.21.47,8.82,8.82,0,0,1-2.71-.39,6.4,6.4,0,0,1-2.07-1,4.86,4.86,0,0,1-1.31-1.59,4.23,4.23,0,0,1-.46-2,3,3,0,0,1,.44-1.59h-6l.16,2.55a1.85,1.85,0,0,1-.51.37,2.16,2.16,0,0,1-1,.21,2.79,2.79,0,0,1-2.13-.91,3.21,3.21,0,0,1-.84-2.26,2.22,2.22,0,0,1,.53-1.47,2,2,0,0,1,1.64-.64h4.71l1.26,0c.52,0,1.06.06,1.6.12l1.57.17a12.4,12.4,0,0,1,1.23.22v-.12a5.84,5.84,0,0,1-1.1-.69,5.2,5.2,0,0,1-1-1,4.92,4.92,0,0,1-.72-1.34,4.84,4.84,0,0,1-.27-1.65,5,5,0,0,1,.3-1.72,4,4,0,0,1,.91-1.45,4.58,4.58,0,0,1,1.49-1,5.06,5.06,0,0,1,2-.37,5.5,5.5,0,0,1,2,.35,4.46,4.46,0,0,1,1.46.93,4,4,0,0,1,1.18,2.82,3.11,3.11,0,0,1-.59,2,3.38,3.38,0,0,1-1.23,1.06l-1.54-1.35a1.86,1.86,0,0,0,.63-.7,2.13,2.13,0,0,0,.24-1,1.94,1.94,0,0,0-.53-1.41,2,2,0,0,0-1.52-.55,2.16,2.16,0,0,0-1.6.69,2.55,2.55,0,0,0-.67,1.87,3.63,3.63,0,0,0,.38,1.67,4,4,0,0,0,1,1.24,4.44,4.44,0,0,0,1.51.79,6.07,6.07,0,0,0,1.82.27h1.6v2.08h-2.78a3.84,3.84,0,0,0-2.29.56,1.76,1.76,0,0,0-.75,1.49,2.14,2.14,0,0,0,1,1.82,5.14,5.14,0,0,0,3,.71,8.85,8.85,0,0,0,2.92-.48,6,6,0,0,0,2.42-1.57Z"/><path d="M320.44,698.81l-2.17,1.44-6.18-9.06a7.75,7.75,0,0,1-.69-1.14,1.93,1.93,0,0,1-.17-.75,1.15,1.15,0,0,1,.51-1,2,2,0,0,1,1.18-.35l.68.86a2.05,2.05,0,0,0,.8.7,2.42,2.42,0,0,0,1.05.2,2.72,2.72,0,0,0,2.11-1,3.87,3.87,0,0,0,.87-2.69,6.38,6.38,0,0,0-.45-2.5,7.51,7.51,0,0,0-1-1.73h-7v-2h13.76v2h-4.26a7.19,7.19,0,0,1,1,1.75,6.47,6.47,0,0,1,.51,2.61,6.6,6.6,0,0,1-.39,2.32,5.09,5.09,0,0,1-1.07,1.77,4.78,4.78,0,0,1-1.65,1.14,5.36,5.36,0,0,1-2.11.4h-.25l-.26,0Z"/><path d="M333.56,698.81l-2.17,1.44-6.18-9.06a7.75,7.75,0,0,1-.69-1.14,1.77,1.77,0,0,1-.17-.75,1.15,1.15,0,0,1,.51-1,2,2,0,0,1,1.18-.35l.67.86a2.2,2.2,0,0,0,.8.7,2.5,2.5,0,0,0,1.06.2,2.72,2.72,0,0,0,2.11-1,3.87,3.87,0,0,0,.87-2.69,6.38,6.38,0,0,0-.45-2.5,7.51,7.51,0,0,0-1-1.73h-7v-2h22v2h-2.88v18.12h-2.5v-8.29a8.07,8.07,0,0,1-3.58.64,6.77,6.77,0,0,1-2.24-.39,7.39,7.39,0,0,1-2-1,5.14,5.14,0,0,1-3,.87h-.25l-.26,0Zm2.21-8.77a7.56,7.56,0,0,0,2.32-.32,5.18,5.18,0,0,0,1.58-.8v-7.11h-7.1a6.89,6.89,0,0,1,1,1.75,6.3,6.3,0,0,1,.52,2.61,6.11,6.11,0,0,1-.9,3.36,5.5,5.5,0,0,0,1.19.38A6.31,6.31,0,0,0,335.77,690Z"/><path d="M246.38,689.69a4.48,4.48,0,0,1-1.76,1.56,5.31,5.31,0,0,1-2.44.55h-.25l-.26,0,5.83,7-2.18,1.44-6.82-9.06a6.73,6.73,0,0,1-.68-1.14,1.79,1.79,0,0,1-.18-.75,1.15,1.15,0,0,1,.51-1,2,2,0,0,1,1.19-.35l.67.86a2.05,2.05,0,0,0,.8.7,2.49,2.49,0,0,0,1.05.2,2.74,2.74,0,0,0,2.12-1,3.91,3.91,0,0,0,.86-2.69,6.38,6.38,0,0,0-.45-2.5,7.51,7.51,0,0,0-1-1.73h-7v-2H259.5v2H245.86a6.6,6.6,0,0,1,1,1.75,6.47,6.47,0,0,1,.51,2.61c0,.23,0,.43,0,.59a2.85,2.85,0,0,1-.08.53,4.12,4.12,0,0,1,1.57-1.25,5.09,5.09,0,0,1,2.18-.45,4.86,4.86,0,0,1,3.28,1.2,8.33,8.33,0,0,1,2.22,4.11l1.54,5.51-2.27.67-1.76-5.86a8.84,8.84,0,0,0-1.22-2.64,2.26,2.26,0,0,0-1.89-.88,2.08,2.08,0,0,0-1.58.59,2,2,0,0,0-.56,1.46,2.35,2.35,0,0,0,.81,1.86,3.28,3.28,0,0,0,1.84.8l-.6,2a4.31,4.31,0,0,1-1.68-.4,4.51,4.51,0,0,1-1.44-1,4.85,4.85,0,0,1-1-1.47A4.76,4.76,0,0,1,246.38,689.69Z"/><path d="M275.85,681.81H273v18.12h-2.5v-7.72a5,5,0,0,1-1.53.9,6.14,6.14,0,0,1-2.31.38,6.66,6.66,0,0,1-2.11-.32,4.84,4.84,0,0,1-3-2.65,5.78,5.78,0,0,1-.44-2.34v-6.37h-2.24v-2h17Zm-12.26,6.12a3.53,3.53,0,0,0,.83,2.62,3.31,3.31,0,0,0,2.37.8,4.56,4.56,0,0,0,2.21-.56,3.54,3.54,0,0,0,1.47-1.39v-7.59h-6.88Z"/><path d="M188.47,681.81h-2.88v18.12h-2.5v-7.72a5.3,5.3,0,0,1-1.54.9,6.09,6.09,0,0,1-2.3.38,7,7,0,0,1-2.5-.43,4.6,4.6,0,0,1-1.92-1.36,11,11,0,0,1-1.63.42,11.47,11.47,0,0,1-1.89.16,6.58,6.58,0,0,1-2.28-.39,7.77,7.77,0,0,1-1.91-1,5.12,5.12,0,0,1-3,.87h-.25l-.26,0,5.19,7-2.18,1.44-6.18-9.06a6.73,6.73,0,0,1-.68-1.14,1.79,1.79,0,0,1-.18-.75,1.15,1.15,0,0,1,.51-1,2,2,0,0,1,1.19-.35l.67.86a2.05,2.05,0,0,0,.8.7,2.46,2.46,0,0,0,1,.2,2.74,2.74,0,0,0,2.12-1,3.91,3.91,0,0,0,.86-2.69,6.38,6.38,0,0,0-.45-2.5,7.51,7.51,0,0,0-1-1.73h-7v-2h30.18Zm-20.68,0a6.88,6.88,0,0,1,1,1.75,6.47,6.47,0,0,1,.51,2.61,6.11,6.11,0,0,1-.9,3.36,6.64,6.64,0,0,0,1.17.38A6.38,6.38,0,0,0,171,690a7.51,7.51,0,0,0,1.48-.15,7.27,7.27,0,0,0,1.37-.4,5.83,5.83,0,0,1-.13-1.31v-6.37Zm8.42,6.12a3.53,3.53,0,0,0,.83,2.62,3.31,3.31,0,0,0,2.37.8,4.59,4.59,0,0,0,2.21-.56,3.54,3.54,0,0,0,1.47-1.39v-7.59h-6.88Z"/><path d="M195,679.38a6.32,6.32,0,0,1,2.36.43,5.17,5.17,0,0,1,1.8,1.22,5.51,5.51,0,0,1,1.13,1.87,7,7,0,0,1,.4,2.43,8.84,8.84,0,0,1-.49,3,8.46,8.46,0,0,1-1.4,2.47,8.78,8.78,0,0,1-2.14,1.87,12.29,12.29,0,0,1-2.72,1.26l5.44,4.71-1.92,1.69-5.7-5.63a4.6,4.6,0,0,1-2.09-.74,2,2,0,0,1-.91-1.76,1.77,1.77,0,0,1,.56-1.42,1.74,1.74,0,0,1,1.16-.5l1.76,1.7a8.39,8.39,0,0,0,2.16-.75,6.71,6.71,0,0,0,3.17-3.38,6.5,6.5,0,0,0,.5-2.59,4.86,4.86,0,0,0-.26-1.66,3.49,3.49,0,0,0-.67-1.17,2.4,2.4,0,0,0-1-.67,3.09,3.09,0,0,0-1.12-.21,2.24,2.24,0,0,0-1.68.64,2.09,2.09,0,0,0-.62,1.53,2.05,2.05,0,0,0,.7,1.64,3.85,3.85,0,0,0,1.92.8l-.61,1.88a7,7,0,0,1-1.74-.46,5,5,0,0,1-1.46-.9,4.05,4.05,0,0,1-1-1.34,4.3,4.3,0,0,1-.36-1.81,3.79,3.79,0,0,1,.35-1.65,4.14,4.14,0,0,1,1-1.31,4.82,4.82,0,0,1,1.52-.88A5.88,5.88,0,0,1,195,679.38Zm9,2.43h-1.63v-2h7v2h-2.85v18.12H204Z"/><path d="M203.54,679.89v-.25a9.12,9.12,0,0,1-.63-.69,6,6,0,0,1-1.1-2,4.45,4.45,0,0,1-.19-1.35,4.38,4.38,0,0,1,.37-1.84,4,4,0,0,1,1-1.39,4.8,4.8,0,0,1,1.52-.89,5.14,5.14,0,0,1,1.85-.32,8.22,8.22,0,0,1,1.78.19,4.55,4.55,0,0,1,1.43.54l-.64,1.95a4.79,4.79,0,0,0-2.15-.51,2.6,2.6,0,0,0-1.9.71,2.71,2.71,0,0,0-.72,2,4.09,4.09,0,0,0,.17,1.17,5.73,5.73,0,0,0,.45,1,6.3,6.3,0,0,0,.59.87l.58.64Z"/><path d="M92.64,679.38a6.37,6.37,0,0,1,2.37.43A5.13,5.13,0,0,1,96.8,681a5.53,5.53,0,0,1,1.14,1.87,7.2,7.2,0,0,1,.4,2.43,8.84,8.84,0,0,1-.5,3,8.21,8.21,0,0,1-1.39,2.47,8.83,8.83,0,0,1-2.15,1.87,12.22,12.22,0,0,1-2.71,1.26L97,698.65l-1.91,1.69-5.7-5.63a4.64,4.64,0,0,1-2.1-.74,2,2,0,0,1-.91-1.76,1.8,1.8,0,0,1,.56-1.42,1.75,1.75,0,0,1,1.17-.5l1.76,1.7a8.39,8.39,0,0,0,2.16-.75,6.72,6.72,0,0,0,1.85-1.38,6.39,6.39,0,0,0,1.81-4.59,4.87,4.87,0,0,0-.25-1.66,3.5,3.5,0,0,0-.68-1.17,2.27,2.27,0,0,0-1-.67,3.05,3.05,0,0,0-1.12-.21,2.24,2.24,0,0,0-1.68.64,2.13,2.13,0,0,0-.62,1.53,2.06,2.06,0,0,0,.71,1.64,3.77,3.77,0,0,0,1.91.8l-.6,1.88a7.15,7.15,0,0,1-1.75-.46,4.91,4.91,0,0,1-1.45-.9,3.92,3.92,0,0,1-1-1.34,4.15,4.15,0,0,1-.37-1.81,3.94,3.94,0,0,1,.35-1.65,4.17,4.17,0,0,1,1-1.31,4.71,4.71,0,0,1,1.52-.88A5.86,5.86,0,0,1,92.64,679.38Zm9,2.43H100v-2h7v2h-2.85v18.12h-2.5Z"/><path d="M131.07,693.94a2.64,2.64,0,0,1-.32,1.3,4.29,4.29,0,0,1-.67.91l2.18,5L130,702l-1.66-4.76a8.2,8.2,0,0,1-3.58.73,8.52,8.52,0,0,1-3.27-.65,5.69,5.69,0,0,1-2.56-2.13,6,6,0,0,1-1.85,1.05,7.52,7.52,0,0,1-2.63.42,8,8,0,0,1-2.45-.38,6,6,0,0,1-2.06-1.16,5.57,5.57,0,0,1-1.43-1.9,6.25,6.25,0,0,1-.52-2.64,5.4,5.4,0,0,1,1.79-4.08,6,6,0,0,1,2-1.17,7.25,7.25,0,0,1,2.5-.41,6.22,6.22,0,0,1,3,.65,8.08,8.08,0,0,1,2,1.49,5.76,5.76,0,0,1,2.37-1.58,8.56,8.56,0,0,1,2.91-.5H127v-3.14H106.34v-2h27v2h-3.84v5.25h-4.09a7.58,7.58,0,0,0-1.94.24,4.24,4.24,0,0,0-1.58.77,3.69,3.69,0,0,0-1.07,1.33,4.19,4.19,0,0,0-.41,1.92,5.1,5.1,0,0,0,.37,2,4.19,4.19,0,0,0,1,1.39,3.78,3.78,0,0,0,1.35.8,4.67,4.67,0,0,0,1.52.26,4.91,4.91,0,0,0,2.88-.74l-.83-2.62a2.51,2.51,0,0,1,2-.93,2.28,2.28,0,0,1,1.78.69A2.5,2.5,0,0,1,131.07,693.94Zm-20.51-3.29a4,4,0,0,0,.34,1.74,3.3,3.3,0,0,0,.88,1.18,3.35,3.35,0,0,0,1.26.68,5.9,5.9,0,0,0,3.12,0l-4.64-6.14A3.45,3.45,0,0,0,110.56,690.65Zm7.17.6a6.85,6.85,0,0,1,.45-2.52,5,5,0,0,0-1.67-1.24,5.11,5.11,0,0,0-2.21-.46,3.75,3.75,0,0,0-1.37.22l4.67,6.21a3,3,0,0,0,.38-.32c-.08-.3-.14-.6-.19-.89A7.57,7.57,0,0,1,117.73,691.25Z"/><path d="M397.86,618.42H395v18.12h-2.49v-7.71a5.43,5.43,0,0,1-1.54.89,6.12,6.12,0,0,1-2.3.38,6.9,6.9,0,0,1-2.11-.31,5,5,0,0,1-1.76-1,4.75,4.75,0,0,1-1.22-1.66,5.61,5.61,0,0,1-.45-2.34v-6.37h-2.24v-2h17Zm-12.25,6.12a3.49,3.49,0,0,0,.83,2.62,3.28,3.28,0,0,0,2.37.8,4.59,4.59,0,0,0,2.21-.56,3.54,3.54,0,0,0,1.47-1.39v-7.59h-6.88Z"/><path d="M400.1,618.42h-2.88v-2h8.26v2H402.6v18.12h-2.5Z"/><path d="M420.65,618.42v18.12h-2.5v-5.67a5.46,5.46,0,0,1-1.57.9,7.41,7.41,0,0,1-2.75.41,8.06,8.06,0,0,1-2.72-.47,7,7,0,0,1-2.34-1.46,7.53,7.53,0,0,1-1.66-2.43,8.62,8.62,0,0,1-.67-3.38l.93,0a6,6,0,0,0,3.34-.79,2.54,2.54,0,0,0,.94-2.16,3.5,3.5,0,0,0-.38-1.64,6,6,0,0,0-1-1.4h-5.44v-2h18.69v2Zm-2.5,0h-5.38a5.71,5.71,0,0,1,1,1.4,4,4,0,0,1,.44,1.93,4.11,4.11,0,0,1-1.37,3.28,6.37,6.37,0,0,1-3.9,1.36,4.23,4.23,0,0,0,1.59,2.63,5.43,5.43,0,0,0,3.4,1,6.34,6.34,0,0,0,2.48-.48,4.32,4.32,0,0,0,1.74-1.25Z"/><path d="M415.53,637.43a3.91,3.91,0,0,1,1.52-1,5.64,5.64,0,0,1,2.13-.4,4.56,4.56,0,0,1,3.44,1.24,4.33,4.33,0,0,1,1.2,3.11,4.42,4.42,0,0,1-1.46,3.41,6,6,0,0,1-4.14,1.33A9.62,9.62,0,0,1,413.7,644a11.62,11.62,0,0,1-3.8-3.22l1.69-1.44a13,13,0,0,0,3.14,2.76,6.48,6.48,0,0,0,3.33.92,3.44,3.44,0,0,0,2.38-.73,2.52,2.52,0,0,0,.82-2,2.29,2.29,0,0,0-.55-1.61,2.13,2.13,0,0,0-1.66-.59,3,3,0,0,0-1.2.24,3.9,3.9,0,0,0-1.07.69Z"/><path d="M304.25,625.85a5.58,5.58,0,0,1,2.8,1.77,5.07,5.07,0,0,1,1.11,3.41,5.23,5.23,0,0,1-.47,2.2,5.06,5.06,0,0,1-1.31,1.74,6.18,6.18,0,0,1-2,1.15,7.78,7.78,0,0,1-2.62.42,7.09,7.09,0,0,1-2.34-.37,7.91,7.91,0,0,1-3.55-2.42,7.49,7.49,0,0,1-1.09-1.69l1.82-1.22a8.14,8.14,0,0,0,2.16,2.63,4.69,4.69,0,0,0,2.87.92,4.35,4.35,0,0,0,2.84-.89,3.08,3.08,0,0,0,1.09-2.53,3.58,3.58,0,0,0-1.24-2.94,5.45,5.45,0,0,0-3.56-1H299v-2.08h1.53a4.67,4.67,0,0,0,3.06-.91,3.18,3.18,0,0,0,1.1-2.58,3.08,3.08,0,0,0-.8-2.11,2.91,2.91,0,0,0-2.3-.89h-8.13v-2H310.4v2h-4.8a3.44,3.44,0,0,1,1.18,1.31,3.78,3.78,0,0,1,.48,1.88,4,4,0,0,1-.85,2.69A5.53,5.53,0,0,1,304.25,625.85Z"/><path d="M326.75,618.43h-2.88v18.11h-2.5v-7.71a5,5,0,0,1-1.53.89,6.13,6.13,0,0,1-2.31.39,7,7,0,0,1-2.11-.32,5,5,0,0,1-1.76-1,4.78,4.78,0,0,1-1.22-1.66,5.78,5.78,0,0,1-.44-2.34v-6.36h-2.24v-2h17Zm-12.26,6.11a3.53,3.53,0,0,0,.83,2.62,3.27,3.27,0,0,0,2.37.8,4.56,4.56,0,0,0,2.21-.56,3.54,3.54,0,0,0,1.47-1.39v-7.58h-6.88Z"/><path d="M341.82,625.62a12.46,12.46,0,0,0,2.62-.44,7.4,7.4,0,0,0,2.1-1,4.59,4.59,0,0,0,1.39-1.49,4,4,0,0,0,.51-2,2.21,2.21,0,0,0-2.27-2.56,2.1,2.1,0,0,0-1.52.56,2,2,0,0,0-.59,1.49,2,2,0,0,0,.34,1.21,2.38,2.38,0,0,0,.78.74l-1.28,1.5a3.25,3.25,0,0,1-.85-.49,4.38,4.38,0,0,1-.76-.79,3.67,3.67,0,0,1-.55-1,3.79,3.79,0,0,1-.21-1.29,3.93,3.93,0,0,1,.32-1.57,3.77,3.77,0,0,1,.92-1.28,4.34,4.34,0,0,1,1.45-.87,5.7,5.7,0,0,1,1.95-.32,5,5,0,0,1,2,.39,4.4,4.4,0,0,1,2.48,2.61,5.68,5.68,0,0,1,.34,2,6,6,0,0,1-1.81,4.37,9.16,9.16,0,0,1-5.43,2.29,3.83,3.83,0,0,0,1.56,2.16,5.5,5.5,0,0,0,3.21.85,7.75,7.75,0,0,0,3-.58,4.9,4.9,0,0,0,2.12-1.57V616.38h5.38v2h-2.88v18.11h-2.5v-5.15a7.74,7.74,0,0,1-2,1,9.23,9.23,0,0,1-3,.45,8.24,8.24,0,0,1-4.34-1.12,6.55,6.55,0,0,1-2.7-3.24,6.25,6.25,0,0,1-1.13.29,7.35,7.35,0,0,1-1.31.1,6.5,6.5,0,0,1-2.35-.39,8.24,8.24,0,0,1-1.84-1,5.12,5.12,0,0,1-3,.87h-.25l-.26,0,5.51,7-2.18,1.44-6.5-9.06a7.17,7.17,0,0,1-.68-1.13,1.87,1.87,0,0,1-.18-.76,1.16,1.16,0,0,1,.51-1,2.08,2.08,0,0,1,1.19-.35l.67.86a2.17,2.17,0,0,0,.8.71,2.63,2.63,0,0,0,1.05.19,2.76,2.76,0,0,0,2.12-1,3.91,3.91,0,0,0,.86-2.69,6.38,6.38,0,0,0-.45-2.5,7.22,7.22,0,0,0-1-1.72h-7v-2h13.47v2h-4a6.62,6.62,0,0,1,1,1.74,6.47,6.47,0,0,1,.51,2.61,6.11,6.11,0,0,1-.9,3.36,7,7,0,0,0,2.72.51,7.73,7.73,0,0,0,1.08-.08,2.74,2.74,0,0,0,1-.34,1.07,1.07,0,0,1,0-.25v-.29Z"/><path d="M252.54,618.43h-2.88v18.11h-2.5v-7.71a5.08,5.08,0,0,1-1.54.89,6.08,6.08,0,0,1-2.3.39,6.9,6.9,0,0,1-2.11-.32,5,5,0,0,1-1.76-1,4.78,4.78,0,0,1-1.22-1.66,5.61,5.61,0,0,1-.45-2.34v-6.36h-2.24v-2h17Zm-12.26,6.11a3.53,3.53,0,0,0,.83,2.62,3.27,3.27,0,0,0,2.37.8,4.56,4.56,0,0,0,2.21-.56,3.54,3.54,0,0,0,1.47-1.39v-7.58h-6.88Z"/><path d="M254.78,618.43H251.9v-2h8.25v2h-2.88v18.11h-2.49Z"/><path d="M274.42,630.55a2.51,2.51,0,0,1-.32,1.3,4,4,0,0,1-.67.91l2.18,5-2.31.83-1.66-4.76a8.2,8.2,0,0,1-3.58.73,8,8,0,0,1-2.5-.4,6.38,6.38,0,0,1-2.24-1.23,6.16,6.16,0,0,1-1.6-2.08,6.64,6.64,0,0,1-.61-3,6.38,6.38,0,0,1,.58-2.85,5.58,5.58,0,0,1,1.52-1.95,6.06,6.06,0,0,1,2.16-1.14,8.39,8.39,0,0,1,2.49-.37h2.5v-3.13H259.51v-2h17.15v2h-3.84v5.24h-4.09a7.58,7.58,0,0,0-1.94.24,4.32,4.32,0,0,0-1.58.77,3.77,3.77,0,0,0-1.07,1.33,4.19,4.19,0,0,0-.4,1.92,5.1,5.1,0,0,0,.36,2,4.09,4.09,0,0,0,1,1.39,3.87,3.87,0,0,0,1.35.8,4.71,4.71,0,0,0,1.52.26,4.91,4.91,0,0,0,2.88-.74L270,629a2.51,2.51,0,0,1,2-.93,2.28,2.28,0,0,1,1.78.69A2.52,2.52,0,0,1,274.42,630.55Z"/><path d="M173.69,618.43h-2.88v18.11h-2.5v-7.71a5.08,5.08,0,0,1-1.54.89,6.08,6.08,0,0,1-2.3.39,6.9,6.9,0,0,1-2.11-.32,5,5,0,0,1-1.76-1,4.78,4.78,0,0,1-1.22-1.66,5.61,5.61,0,0,1-.45-2.34v-6.36h-2.24v-2h17Zm-12.26,6.11a3.53,3.53,0,0,0,.83,2.62,3.27,3.27,0,0,0,2.37.8,4.59,4.59,0,0,0,2.21-.56,3.54,3.54,0,0,0,1.47-1.39v-7.58h-6.88Z"/><path d="M175.93,618.43h-2.88v-2h8.25v2h-2.88v18.11h-2.49Z"/><path d="M183.29,616.38a5.3,5.3,0,0,1-.36-.85,3.79,3.79,0,0,1-.16-1.1,3.61,3.61,0,0,1,.63-2,5.29,5.29,0,0,1,1.79-1.64,9.52,9.52,0,0,1,2.85-1.09,16.79,16.79,0,0,1,3.79-.39,21.08,21.08,0,0,1,6.32.87,23.34,23.34,0,0,1,4.81,2.05,18.47,18.47,0,0,1,3.36,2.38c.88.8,1.53,1.43,2,1.9l.35.39-1.57,1.34-.51-.51a31.63,31.63,0,0,0-2.54-2.27,17.35,17.35,0,0,0-3.14-2,18.86,18.86,0,0,0-4-1.43,21.08,21.08,0,0,0-5-.54,12.51,12.51,0,0,0-2.93.29,7.51,7.51,0,0,0-2,.76,3.55,3.55,0,0,0-1.18,1.12,2.71,2.71,0,0,0-.38,1.38,3.27,3.27,0,0,0,.25,1.38h3.27v2H186v18.11h-2.5V618.43h-2.88v-2Z"/><path d="M188.28,618.43v-2H211v2h-2.88v18.11h-2.5V618.43H201.3v7.16a6.73,6.73,0,0,1-.4,2.45,5.06,5.06,0,0,1-1.12,1.76,4.47,4.47,0,0,1-1.71,1.07,6.35,6.35,0,0,1-2.18.36,5.3,5.3,0,0,1-3.82-1.43,5.57,5.57,0,0,1-1.49-4.21v-7.16Zm4.8,7.1a4.15,4.15,0,0,0,.72,2.74,2.6,2.6,0,0,0,2.06.81,2.75,2.75,0,0,0,2.19-.85,4,4,0,0,0,.75-2.7v-7.1h-5.72Z"/><path d="M89.83,621.5a6.19,6.19,0,0,1,2.9.61,6,6,0,0,1,1.81,1.34v-5H82v-2H99.91v2H97v18.11H94.54v-5a7.33,7.33,0,0,1-1.65,1.16,6.22,6.22,0,0,1-2.9.57,7.38,7.38,0,0,1-2.46-.4,5.8,5.8,0,0,1-2-1.18,5.54,5.54,0,0,1-1.4-1.92,6.41,6.41,0,0,1-.51-2.64,5.9,5.9,0,0,1,.47-2.42,4.71,4.71,0,0,1,1.31-1.74,5.73,5.73,0,0,1,2-1.07A7.91,7.91,0,0,1,89.83,621.5ZM94.54,626a5.32,5.32,0,0,0-1.67-1.63,4.55,4.55,0,0,0-2.56-.74,4.76,4.76,0,0,0-3,.88,3.16,3.16,0,0,0-1.13,2.67,3.52,3.52,0,0,0,1.15,3,5,5,0,0,0,3.1.87,4.29,4.29,0,0,0,1.57-.28,4.46,4.46,0,0,0,1.3-.73,3.52,3.52,0,0,0,.88-1.11,3,3,0,0,0,.32-1.37Z"/><path d="M102.15,618.43H99.27v-2h8.26v2h-2.88v18.11h-2.5Z"/><path d="M120.49,636.54h-2.43v-5.25a3.63,3.63,0,0,1-1.56,1.25,5.37,5.37,0,0,1-2.22.45,6.08,6.08,0,0,1-2.16-.39,5.46,5.46,0,0,1-1.86-1.15,5.56,5.56,0,0,1-1.29-1.89,6.59,6.59,0,0,1-.48-2.62,5.54,5.54,0,0,1,.46-2.35,4.82,4.82,0,0,1,1.23-1.68,5.06,5.06,0,0,1,1.8-1,6.62,6.62,0,0,1,2.14-.34,5,5,0,0,1,3.94,1.67v-4.8H106.89v-2h25v2H120.49v5.21a4,4,0,0,1,1.68-1.41,5.74,5.74,0,0,1,2.51-.54,6.3,6.3,0,0,1,2.08.34,4.8,4.8,0,0,1,2.94,2.67,5.44,5.44,0,0,1,.45,2.27,6.16,6.16,0,0,1-.48,2.54,4.77,4.77,0,0,1-1.29,1.76,5.5,5.5,0,0,1-1.91,1,7.74,7.74,0,0,1-2.27.33,6.73,6.73,0,0,1-.83-.06,3.66,3.66,0,0,1-.74-.16l.48-2a4.8,4.8,0,0,0,1,.1,4.68,4.68,0,0,0,1.32-.19,2.92,2.92,0,0,0,1.11-.63,3,3,0,0,0,.75-1.09,4.2,4.2,0,0,0,.27-1.61,3,3,0,0,0-.88-2.29,3.34,3.34,0,0,0-2.35-.82,3.61,3.61,0,0,0-2.9,1.14,4.49,4.49,0,0,0-1,3Zm-2.4-11.27a4.91,4.91,0,0,0-1.65-1.21,4.84,4.84,0,0,0-1.9-.35,4.36,4.36,0,0,0-1.3.2,3.18,3.18,0,0,0-1.1.64,3.36,3.36,0,0,0-.79,1.08,3.46,3.46,0,0,0-.3,1.5,3.72,3.72,0,0,0,.94,2.72,3.29,3.29,0,0,0,2.45,1,4.54,4.54,0,0,0,1.39-.21,3.11,3.11,0,0,0,1.17-.67,3.17,3.17,0,0,0,.8-1.17,4.6,4.6,0,0,0,.29-1.73Z"/><path d="M123.56,642.65l-1.06,1.54-6.4-4.26,1.32-1.79Z"/><path d="M394.92,571.1v-4.7l-9.05,5.54L384,569.76l4.51-2.34a6.49,6.49,0,0,1-3.52-1.58,4.26,4.26,0,0,1-1.31-3.25,3.86,3.86,0,0,1,.7-2.4,4.49,4.49,0,0,1,2.15-1.44,4.39,4.39,0,0,1-2.24-1.44,3.48,3.48,0,0,1-.61-2.08,3,3,0,0,1,.32-1.34,2.09,2.09,0,0,1,.74-.9h-3v-2H400.3v2h-2.88V571.1ZM387.47,553a2.2,2.2,0,0,0-.93.93,2.88,2.88,0,0,0-.32,1.34,2.46,2.46,0,0,0,.85,1.94,3.94,3.94,0,0,0,2.67.75h1.7v2.11H390a4.57,4.57,0,0,0-2.93.72,2.37,2.37,0,0,0-.85,1.91,2.8,2.8,0,0,0,.32,1.39,2.39,2.39,0,0,0,.85.88,3.74,3.74,0,0,0,1.23.45,8.91,8.91,0,0,0,1.5.13,8.53,8.53,0,0,0,2.58-.42,5.67,5.67,0,0,0,2.22-1.25V553Z"/><path d="M402.54,553h-2.88v-2h8.25v2H405V571.1h-2.5Z"/><path d="M407.27,553v-2H430v2h-2.88V571.1h-2.5V553H420.3v7.17a6.73,6.73,0,0,1-.4,2.45,5.06,5.06,0,0,1-1.12,1.76,4.47,4.47,0,0,1-1.71,1.07,6.6,6.6,0,0,1-2.18.35,5.28,5.28,0,0,1-3.82-1.42,5.57,5.57,0,0,1-1.49-4.21V553Zm4.81,7.11a4.1,4.1,0,0,0,.72,2.73,2.56,2.56,0,0,0,2.06.82,2.75,2.75,0,0,0,2.19-.85,4,4,0,0,0,.75-2.7V553h-5.72Z"/><path d="M308.63,550.94a3.47,3.47,0,0,1-.34-.83,4.31,4.31,0,0,1,.4-3.18,5,5,0,0,1,1.6-1.65,8.26,8.26,0,0,1,2.58-1.09,14.37,14.37,0,0,1,3.44-.38,20.58,20.58,0,0,1,5.58.7,21,21,0,0,1,4.48,1.78,18.67,18.67,0,0,1,3.42,2.35,21.2,21.2,0,0,1,2.42,2.43l.45.55L331,552.8l-.51-.58a18.89,18.89,0,0,0-5.94-4.52A18.11,18.11,0,0,0,316.4,546a9.92,9.92,0,0,0-2.54.29,5.33,5.33,0,0,0-1.78.8,3.36,3.36,0,0,0-1,1.17,3.12,3.12,0,0,0-.33,1.42,2.48,2.48,0,0,0,.28,1.28h3.2v2h-2.87V571.1h-2.5V553h-2.88v-2Z"/><path d="M325,559.65a4.12,4.12,0,0,1,1.37,1.39,4.54,4.54,0,0,1,.67,2.58,5.24,5.24,0,0,1-.43,2.16,4.88,4.88,0,0,1-1.2,1.66,5.39,5.39,0,0,1-1.82,1.06,7,7,0,0,1-2.27.36,7.6,7.6,0,0,1-2.42-.36,6.39,6.39,0,0,1-1.89-1,7.08,7.08,0,0,1-1.42-1.52,9.53,9.53,0,0,1-1-1.85l1.86-1a8.48,8.48,0,0,0,1.95,2.64,4.15,4.15,0,0,0,2.85,1,3.86,3.86,0,0,0,1.23-.19,2.94,2.94,0,0,0,1-.58,2.65,2.65,0,0,0,.72-1,3.49,3.49,0,0,0,.27-1.44,3.37,3.37,0,0,0-1.28-2.94,5.63,5.63,0,0,0-3.39-.93h-1.05v-2.08h11.77V553H313.55v-2h22.31v2H333V571.1h-2.5V559.65Z"/><path d="M339.76,567.74a6,6,0,0,0,.64,2.92,5.85,5.85,0,0,0,1.7,2,8.41,8.41,0,0,0,2.38,1.24,24.09,24.09,0,0,0,2.67.73l-1,2.21a15.18,15.18,0,0,1-3.32-1A10.24,10.24,0,0,1,340,574a8.44,8.44,0,0,1-2-2.67,8.23,8.23,0,0,1-.75-3.63,7.19,7.19,0,0,1,.43-2.62,5.69,5.69,0,0,1,1.2-1.92,5.91,5.91,0,0,1-1.25-1.54,4.2,4.2,0,0,1-.51-2.11,3.43,3.43,0,0,1,1.07-2.64,4.29,4.29,0,0,1,3.06-1h5.82V553H335.22v-2h18.62v2h-4.45v4.87h-7.1a3.58,3.58,0,0,0-1.89.46,1.62,1.62,0,0,0-.77,1.49,2.54,2.54,0,0,0,.28,1.23,3.83,3.83,0,0,0,.62.91,8.09,8.09,0,0,1,2.08-.72A11.77,11.77,0,0,1,345,561a6.73,6.73,0,0,1,4.91,1.65,6,6,0,0,1,1.68,4.46v5.6h-2.24v-1.79a3.29,3.29,0,0,1-1.23.64,5.6,5.6,0,0,1-1.52.19,4.74,4.74,0,0,1-1.57-.25,4.06,4.06,0,0,1-1.29-.72,3.18,3.18,0,0,1-.88-1.14,3.44,3.44,0,0,1-.32-1.53,3.31,3.31,0,0,1,.3-1.44,3,3,0,0,1,.82-1.08,3.6,3.6,0,0,1,1.21-.65,5.1,5.1,0,0,1,3.06,0,3.81,3.81,0,0,1,1.23.66l.13-.06a3.54,3.54,0,0,0-1.33-1.8,4.8,4.8,0,0,0-2.8-.7,6,6,0,0,0-4,1.2A4.35,4.35,0,0,0,339.76,567.74Zm9.6-.64a3.53,3.53,0,0,0-1.09-.49,4.34,4.34,0,0,0-1.18-.18,4.25,4.25,0,0,0-1.84.35,1.39,1.39,0,0,0-.72,1.38,1.59,1.59,0,0,0,.64,1.39,2.83,2.83,0,0,0,1.7.47,3.1,3.1,0,0,0,.84-.12,2.5,2.5,0,0,0,.8-.35,2.19,2.19,0,0,0,.61-.56,1.24,1.24,0,0,0,.24-.77Z"/><path d="M356.08,553H353.2v-2h8.26v2h-2.88V571.1h-2.5Z"/><path d="M225.46,558.69v-2.08h10.6v2.08H235a4,4,0,0,0-2.78.89,3,3,0,0,0-1,2.31,3,3,0,0,0,.28,1.36,2.76,2.76,0,0,0,.8.93,3.8,3.8,0,0,0,1.17.54,5.24,5.24,0,0,0,1.39.18,5.53,5.53,0,0,0,2.61-.63,6.15,6.15,0,0,0,2-1.65V553H224.18v-2h20.74v2H242V571.1h-2.5v-5.85a4.31,4.31,0,0,1-.76.64,7.17,7.17,0,0,1-1.11.59,6.67,6.67,0,0,1-1.37.43,7.31,7.31,0,0,1-1.56.16,7.64,7.64,0,0,1-2.43-.38,6,6,0,0,1-1.93-1.07A4.78,4.78,0,0,1,229.1,564a4.88,4.88,0,0,1-.47-2.15,3.75,3.75,0,0,1,.5-1.93,2.83,2.83,0,0,1,1.23-1.2Z"/><path d="M260.89,580a12.86,12.86,0,0,1-2.88-.33,13,13,0,0,1-2.75-1,12.7,12.7,0,0,1-2.48-1.58,11.77,11.77,0,0,1-2.07-2.16l1.67-1.54a14.21,14.21,0,0,0,3.68,3.28,8.84,8.84,0,0,0,4.67,1.2,5.17,5.17,0,0,0,3.25-.85,2.66,2.66,0,0,0,1.07-2.19,2.06,2.06,0,0,0-.63-1.6,2.47,2.47,0,0,0-1.74-.58,3.05,3.05,0,0,0-1.23.26,4.5,4.5,0,0,0-1.11.7L259.1,572a3,3,0,0,1,.86-.67,7.22,7.22,0,0,1,1.15-.51v-9.28a5.84,5.84,0,0,1-1.6.48,12.69,12.69,0,0,1-2.14.16,7.88,7.88,0,0,1-2.32-.39,9,9,0,0,1-2.16-.92,22.06,22.06,0,0,0-2,1.2,9.22,9.22,0,0,0-1.36,1.08,3.71,3.71,0,0,0-.77,1.09,3.06,3.06,0,0,0-.24,1.2,2.9,2.9,0,0,0,.29,1.35,2.33,2.33,0,0,0,.75.86,3.1,3.1,0,0,0,1.08.46,5.13,5.13,0,0,0,1.24.15,3.61,3.61,0,0,0,.95-.13,2.33,2.33,0,0,0,.81-.35l-.83-2.63a2.55,2.55,0,0,1,2.05-.92,2.2,2.2,0,0,1,1.76.7,2.43,2.43,0,0,1,.61,1.66,2.93,2.93,0,0,1-.27,1.3,3.39,3.39,0,0,1-.63.91l1.51,4-2.31.83-1-3.74a3.21,3.21,0,0,1-1.1.41,6.53,6.53,0,0,1-1.46.16,8.76,8.76,0,0,1-2.24-.28,5.8,5.8,0,0,1-1.94-.92,4.61,4.61,0,0,1-1.37-1.64,5.46,5.46,0,0,1-.53-2.5,4.84,4.84,0,0,1,.26-1.65A4.18,4.18,0,0,1,247,562a8.67,8.67,0,0,1,1.62-1.39,28.4,28.4,0,0,1,2.51-1.54c.59-.34,1.11-.66,1.53-1a6.13,6.13,0,0,0,1.06-.89,2.71,2.71,0,0,0,.59-1,3.59,3.59,0,0,0,.18-1.17,2.42,2.42,0,0,0-.66-1.72,2.2,2.2,0,0,0-1.68-.71,2.58,2.58,0,0,0-.85.15,2.33,2.33,0,0,0-.76.41,2.13,2.13,0,0,0-.56.67,1.94,1.94,0,0,0-.23,1,2.73,2.73,0,0,0,.4,1.52,4.79,4.79,0,0,0,1,1.13l-1.79,1.25a5.43,5.43,0,0,1-1.58-1.71,4.57,4.57,0,0,1-.56-2.35,3.47,3.47,0,0,1,.35-1.54,4,4,0,0,1,1-1.31,5.23,5.23,0,0,1,1.54-.93,5.5,5.5,0,0,1,2-.35,5.19,5.19,0,0,1,2,.38,4.87,4.87,0,0,1,1.53,1,4.79,4.79,0,0,1,1,1.51,4.66,4.66,0,0,1,.35,1.77,5.41,5.41,0,0,1-.53,2.42,6,6,0,0,1-1.68,2,8,8,0,0,0,2.21.29,8.45,8.45,0,0,0,2.4-.32,4.94,4.94,0,0,0,1.66-.8V553h-2v-2h7.36v2h-2.88v17.67a4.11,4.11,0,0,1,4,4.28,4.39,4.39,0,0,1-.48,2,4.71,4.71,0,0,1-1.36,1.6,6.85,6.85,0,0,1-2.13,1.06A9.52,9.52,0,0,1,260.89,580Z"/><path d="M276.34,570l-2.17,1.44-6.18-9a7.75,7.75,0,0,1-.69-1.14,2,2,0,0,1-.17-.75,1.15,1.15,0,0,1,.51-1,2,2,0,0,1,1.18-.36l.68.87a2.14,2.14,0,0,0,.8.7,2.47,2.47,0,0,0,1.05.19,2.72,2.72,0,0,0,2.11-1,3.84,3.84,0,0,0,.87-2.68,6.34,6.34,0,0,0-.45-2.5,7.51,7.51,0,0,0-1-1.73h-7v-2h22v2H285V571.1h-2.49v-8.28a8.3,8.3,0,0,1-3.59.64,6.82,6.82,0,0,1-2.24-.39,7.54,7.54,0,0,1-1.95-1,5.12,5.12,0,0,1-3,.87h-.25a1,1,0,0,1-.26,0Zm2.21-8.76a7.56,7.56,0,0,0,2.32-.32,5.37,5.37,0,0,0,1.59-.8V553h-7.11a7.19,7.19,0,0,1,1,1.75,6.42,6.42,0,0,1,.51,2.6,6.06,6.06,0,0,1-.9,3.36,5.71,5.71,0,0,0,1.19.39A7,7,0,0,0,278.55,561.22Z"/><path d="M288,577.22l-1,1.53-6.4-4.25,1.31-1.8Z"/><path d="M170.13,556.06a6.07,6.07,0,0,1,4.7,2v-5H152.69v-2h27.52v2h-2.88V571.1h-2.5v-5a6.9,6.9,0,0,1-1.65,1.15,6,6,0,0,1-2.89.58,7.66,7.66,0,0,1-2.47-.4,6,6,0,0,1-2-1.19,5.52,5.52,0,0,1-1.39-1.92,6.34,6.34,0,0,1-.51-2.64,6,6,0,0,1,.29-1.95h-3.33a3.58,3.58,0,0,0-2.82,1,3.77,3.77,0,0,0-.86,2.53,8.38,8.38,0,0,0,.72,3.38,24.46,24.46,0,0,0,2.06,3.66l-2.14,1.12a22.62,22.62,0,0,1-2.32-4,10.3,10.3,0,0,1-.88-4.27,5.44,5.44,0,0,1,1.52-4.15,5.86,5.86,0,0,1,4.24-1.45h5.25A6.66,6.66,0,0,1,170.13,556.06Zm4.7,4.52a5.3,5.3,0,0,0-1.66-1.64,4.56,4.56,0,0,0-2.56-.73,4.66,4.66,0,0,0-3,.88,3.16,3.16,0,0,0-1.14,2.67,4.69,4.69,0,0,0,.32,1.81,3,3,0,0,0,.88,1.2,3.47,3.47,0,0,0,1.35.65,6.57,6.57,0,0,0,1.71.21,4.59,4.59,0,0,0,1.57-.27,4.31,4.31,0,0,0,1.29-.74,3.35,3.35,0,0,0,.88-1.1,3.11,3.11,0,0,0,.32-1.38Z"/><path d="M193.17,571.1h-2.43v-5.24a3.54,3.54,0,0,1-1.56,1.24,5.37,5.37,0,0,1-2.22.45,6.3,6.3,0,0,1-2.16-.38,5.39,5.39,0,0,1-3.15-3,6.64,6.64,0,0,1-.48-2.63,5.57,5.57,0,0,1,.46-2.35,5,5,0,0,1,1.23-1.68,5.21,5.21,0,0,1,1.8-1,6.89,6.89,0,0,1,2.14-.33,5,5,0,0,1,3.94,1.66V553H179.57v-2h25v2H193.17v5.22a3.84,3.84,0,0,1,1.68-1.41,5.74,5.74,0,0,1,2.51-.54,6.52,6.52,0,0,1,2.08.33,5,5,0,0,1,1.74,1,4.82,4.82,0,0,1,1.2,1.66,5.46,5.46,0,0,1,.45,2.28,6.16,6.16,0,0,1-.48,2.54,4.94,4.94,0,0,1-1.29,1.76,5.33,5.33,0,0,1-1.91,1,7.43,7.43,0,0,1-2.27.34,6.73,6.73,0,0,1-.83-.06,4.52,4.52,0,0,1-.74-.16l.48-2.05a5.56,5.56,0,0,0,1,.09,4.34,4.34,0,0,0,1.32-.19,2.89,2.89,0,0,0,1.11-.62,3,3,0,0,0,.75-1.09,4.29,4.29,0,0,0,.27-1.62,2.93,2.93,0,0,0-.88-2.28,3.3,3.3,0,0,0-2.35-.82,3.61,3.61,0,0,0-2.9,1.14,4.46,4.46,0,0,0-1,3Zm-2.4-11.26a5,5,0,0,0-1.65-1.22,5,5,0,0,0-1.9-.35,4.07,4.07,0,0,0-1.3.21,3,3,0,0,0-1.1.64,3.43,3.43,0,0,0-.79,1.07,3.54,3.54,0,0,0-.3,1.51,3.72,3.72,0,0,0,.94,2.72,3.29,3.29,0,0,0,2.45,1,4.54,4.54,0,0,0,1.39-.21,3.11,3.11,0,0,0,1.17-.67,3.17,3.17,0,0,0,.8-1.17,4.63,4.63,0,0,0,.29-1.73Z"/><path d="M196.24,577.22l-1.06,1.53-6.4-4.25,1.32-1.8Z"/><path d="M98.73,555.26a5.39,5.39,0,0,1-.24,1.65,5.8,5.8,0,0,1-.64,1.38,6.63,6.63,0,0,1-.91,1.13,7.85,7.85,0,0,1-1,.9,7.6,7.6,0,0,0,1.24.51c.47.15,1,.29,1.46.4a12.69,12.69,0,0,0,1.54.27,10.83,10.83,0,0,0,1.45.1V550.94H107v2h-2.88V571.1h-2.5v-6.2l-10,5.76-1.86-2.34,9.28-4.61v-.13c-.3,0-.65-.11-1.07-.2s-.85-.23-1.31-.39-.93-.35-1.42-.57a8.84,8.84,0,0,1-1.38-.79,14.32,14.32,0,0,1-2.77,1.17c-1.1.35-2.21.67-3.34.94l-1.28-2.36c1.15-.26,2.19-.54,3.13-.84a21.06,21.06,0,0,0,2.88-1.15,8.86,8.86,0,0,0,2.69-1.85,3.33,3.33,0,0,0,1-2.34,2.6,2.6,0,0,0-.64-1.81,2.12,2.12,0,0,0-1.66-.72,2.58,2.58,0,0,0-.85.15,2.38,2.38,0,0,0-.77.41,2.44,2.44,0,0,0-.56.67,1.93,1.93,0,0,0-.22,1,2.73,2.73,0,0,0,.4,1.52,4.59,4.59,0,0,0,1,1.13l-1.79,1.25A5.47,5.47,0,0,1,89.5,557a4.67,4.67,0,0,1-.56-2.35,3.58,3.58,0,0,1,.35-1.54,4.2,4.2,0,0,1,1-1.31,5,5,0,0,1,1.53-.93,5.59,5.59,0,0,1,2-.35,5.14,5.14,0,0,1,2,.38,4.92,4.92,0,0,1,1.54,1,4.6,4.6,0,0,1,1,1.51A4.47,4.47,0,0,1,98.73,555.26Z"/><path d="M99.25,543.58a6.16,6.16,0,0,1,1.39-.49,7.15,7.15,0,0,1,1.74-.21,6.19,6.19,0,0,1,3.87,1.17,9.54,9.54,0,0,1,2.63,3.25l1.92,3.64h3.77v2h-2.88V571.1H109.2V553h-2.88v-2h2.4l-1.83-2.75A11,11,0,0,0,106,547a5.1,5.1,0,0,0-1-.89,3.7,3.7,0,0,0-1.17-.55,5.4,5.4,0,0,0-1.47-.17,5,5,0,0,0-1.23.14,7.06,7.06,0,0,0-1,.34Z"/><path d="M127.69,571.1H125.2v-7l-7.46,4.71-1.41-2.24,8.26-4.58-2-1.57a5.72,5.72,0,0,0-3.23-1.44,5,5,0,0,0-1.57.26,10.23,10.23,0,0,0-1.73.8l-1.15-2.24a10.57,10.57,0,0,1,2.24-.9,8.4,8.4,0,0,1,2-.25,5.76,5.76,0,0,1,2.65.57,10.89,10.89,0,0,1,2.34,1.7l1.06,1V553H113.93v-2h16.64v2h-2.88Z"/></g></svg>