<svg id="Layer_1" data-name="Layer 1" xmlns="http://www.w3.org/2000/svg" viewBox="0 0 841.89 595.28">
  <defs>
    <style>
      .cls-1 {
        font-size: 50px;
        fill: #231f20;
        font-family: Helvetica-Light, Helvetica;
      }

      .cls-2 {
        font-family: Helvetica, Helvetica;
      }

      .cls-3 {
        fill: #87c540;
      }

      .cls-4 {
        fill: #fff;
      }

      .cls-5 {
        fill: #3976bb;
      }

      .cls-6 {
        fill: #2356a7;
      }

      .cls-7 {
        fill: #9f59a3;
      }
    </style>
  </defs>
  <title>Gurave</title>
  <text class="cls-1" transform="translate(153.52 184.5)">Om<tspan class="cls-2" x="80.55" y="0">̐</tspan><tspan x="80.55" y="0" xml:space="preserve"> namaḥ śivāya gurave</tspan><tspan x="0" y="100">saccidānanda mūrtaye |</tspan><tspan x="0" y="200">niṣprapañcāya śāntāya</tspan><tspan x="0" y="300">nirālambāya tejase ||</tspan></text>
  <g>
    <circle class="cls-3" cx="175.47" cy="116.22" r="22.16"/>
    <path class="cls-4" d="M179,112.18a3.59,3.59,0,0,0-.79-.89,3.66,3.66,0,0,0-1.07-.6,3.71,3.71,0,0,0-1.26-.21,4.16,4.16,0,0,0-2,.46,3.85,3.85,0,0,0-1.36,1.25,5.44,5.44,0,0,0-.76,1.78,8.84,8.84,0,0,0-.24,2.06,8.22,8.22,0,0,0,.24,2,5.33,5.33,0,0,0,.76,1.73,3.88,3.88,0,0,0,1.36,1.23,4.15,4.15,0,0,0,2,.46,3.29,3.29,0,0,0,2.55-1,4.61,4.61,0,0,0,1.12-2.63H183a8.24,8.24,0,0,1-.7,2.74,6.55,6.55,0,0,1-1.49,2.08,6.35,6.35,0,0,1-2.17,1.31,8,8,0,0,1-2.74.45,8.28,8.28,0,0,1-3.34-.65A7.14,7.14,0,0,1,170,122a7.85,7.85,0,0,1-1.56-2.66,9.76,9.76,0,0,1-.54-3.29,10.11,10.11,0,0,1,.54-3.36A8.08,8.08,0,0,1,170,110a7.13,7.13,0,0,1,2.5-1.81,8.66,8.66,0,0,1,5.86-.27,6.82,6.82,0,0,1,2.13,1.12,6.08,6.08,0,0,1,1.55,1.82,6.51,6.51,0,0,1,.77,2.49h-3.44A2.9,2.9,0,0,0,179,112.18Z"/>
  </g>
  <g>
    <circle class="cls-5" cx="175.47" cy="220.45" r="22.16"/>
    <path class="cls-4" d="M181,212v3h-8.53v3.46h7.83v2.76h-7.83v4h8.72v3H169V212Z"/>
  </g>
  <g>
    <circle class="cls-5" cx="174.71" cy="418.31" r="22.16"/>
    <path class="cls-4" d="M180.29,409.86v3h-8.53v3.46h7.83v2.76h-7.83v4h8.72v3H168.2V409.86Z"/>
  </g>
  <g>
    <circle class="cls-6" cx="514.39" cy="321.09" r="22.16"/>
    <path class="cls-4" d="M520.08,312.64v3h-7.81v3.73H519v2.76h-6.77v6.68h-3.55V312.64Z"/>
  </g>
  <g>
    <circle class="cls-7" cx="175.47" cy="323.6" r="22.16"/>
    <path class="cls-4" d="M177.49,331.2a5.94,5.94,0,0,1-2.33.49,8.28,8.28,0,0,1-3.34-.65,7.14,7.14,0,0,1-2.5-1.78,7.85,7.85,0,0,1-1.56-2.66,9.76,9.76,0,0,1-.54-3.29,10.11,10.11,0,0,1,.54-3.36,8.08,8.08,0,0,1,1.56-2.7,7.13,7.13,0,0,1,2.5-1.81,8.15,8.15,0,0,1,3.34-.66,7.83,7.83,0,0,1,2.41.37,6.83,6.83,0,0,1,2.11,1.1,5.94,5.94,0,0,1,2.3,4.23h-3.4a3.4,3.4,0,0,0-1.22-2,3.56,3.56,0,0,0-2.2-.68,4.16,4.16,0,0,0-2,.46,3.85,3.85,0,0,0-1.36,1.25,5.44,5.44,0,0,0-.76,1.78,8.84,8.84,0,0,0-.24,2.06,8.22,8.22,0,0,0,.24,2,5.33,5.33,0,0,0,.76,1.73,3.88,3.88,0,0,0,1.36,1.23,4.15,4.15,0,0,0,2,.46,3.47,3.47,0,0,0,3.85-3.49h-3.58v-2.65h6.79v8.74H180l-.36-1.83A5.31,5.31,0,0,1,177.49,331.2Z"/>
  </g>
</svg>
