<svg xmlns="http://www.w3.org/2000/svg" xmlns:xlink="http://www.w3.org/1999/xlink" viewBox="0 0 3000 3000"><defs><style>.a{fill:none;}.b{clip-path:url(#a);}.c{fill:#e9c100;}.d{fill:#0053a2;}.e{fill:#91d0d7;}.f{fill:#8a1e82;}.g{fill:#e30613;}.h{font-size:107.44px;font-family:Fira Sans;}.h,.i{fill:#fff;}.j{fill:#facbb1;}.k{fill:#fddbb0;}.l{fill:#fdd39b;}</style><clipPath id="a"><rect class="a" width="3000" height="3000"/></clipPath></defs><title>hand-elements</title><g class="b"><polygon class="c" points="0 0 0 3000 1268.189 3000 390.963 0 0 0"/><polygon class="d" points="390.963 0 1268.189 3000 1016.243 0 390.963 0"/><polygon class="e" points="1592.5 0 1268.189 3000 2446.851 0 1592.5 0"/><polygon class="f" points="2446.851 0 1268.189 3000 3000 3000 3000 0 2446.851 0"/><polygon class="g" points="1016.243 0 1268.189 3000 1592.5 0 1016.243 0"/><text class="h" transform="translate(2106.62 1223.75)">ПРОСТРАНСТВО</text><text class="h" transform="translate(673.538 593.456)">ВОДА</text><text class="h" transform="translate(193.625 1013.424)">ЗЕМЛЯ</text><text class="h" transform="translate(1666.278 593.456)">ВОЗДУХ</text><text class="h" transform="translate(1118.117 301.061)">ОГОНЬ</text><path class="i" d="M1920.112,969.276L1787.072,738.868l-11.541-20.355-11.751,20.355L1630.738,969.276,1619.2,989.421h312.667Zm-254.54-6.715L1775.53,772.233l109.748,190.328H1665.572Z"/><path class="i" d="M993.16,718.513H703.576l11.751,20.145L848.368,969.276l11.541,20.145,11.751-20.145L1004.7,738.658l11.541-20.145H993.16ZM859.91,935.7L750.161,745.373H969.868Z"/><path class="i" d="M494,1162.195H204.626l11.541,20.145,133.041,230.618L360.96,1433.1l11.541-20.145L505.542,1182.34l11.751-20.145H494ZM360.96,1379.383l-55.609-96.108H416.358Zm70.927-122.968H289.823L251,1189.055H470.708Z"/><path class="i" d="M1430.086,694.391L1297.045,463.773l-11.751-20.145-11.541,20.145L1140.5,694.391l-11.541,20.145h312.667ZM1285.294,497.348l55.609,96.108H1229.9ZM1175.546,687.676l38.821-67.36h142.064l38.821,67.36H1175.546Z"/><path class="i" d="M2315.7,1343.185c-72.238,0-130.942,58.914-130.942,131.152s58.7,131.152,130.942,131.152,131.152-58.914,131.152-131.152S2387.936,1343.185,2315.7,1343.185Zm0,235.445a104.292,104.292,0,1,1,104.292-104.292A103.957,103.957,0,0,1,2315.7,1578.629Z"/><path class="i" d="M1492.746,2755.372c0.186-3.079.411-6.107,0.586-9.1C1493.158,2749.265,1492.932,2752.292,1492.746,2755.372Z"/><path class="i" d="M1491.716,2775.051q0.217-4.866.484-9.638Q1491.938,2770.185,1491.716,2775.051Z"/><path class="i" d="M1490.46,2939.368c-0.082-4.222-.165-8.486-0.227-12.636C1490.3,2930.883,1490.378,2935.146,1490.46,2939.368Z"/><path class="i" d="M1495.537,2718.947c0.248-2.781.536-5.5,0.825-8.238C1496.072,2713.448,1495.784,2716.167,1495.537,2718.947Z"/><path class="i" d="M1494.023,2736.65c0.216-2.924.452-5.777,0.711-8.629C1494.476,2730.873,1494.24,2733.725,1494.023,2736.65Z"/><path class="i" d="M1490.048,2913.015q-0.092-6.133-.144-12.182Q1489.951,2906.872,1490.048,2913.015Z"/><path class="i" d="M1489.955,2839.693c0.032-3.656.093-7.291,0.155-10.9C1490.028,2832.4,1489.987,2836.037,1489.955,2839.693Z"/><path class="i" d="M1490.9,2795.658c0.1-3.408.236-6.776,0.37-10.113C1491.139,2788.881,1491.005,2792.25,1490.9,2795.658Z"/><path class="i" d="M1490.316,2817.181c0.093-3.512.155-6.992,0.257-10.442C1490.471,2810.189,1490.408,2813.669,1490.316,2817.181Z"/><path class="i" d="M1506.823,2644.709c0.443-1.947.927-3.749,1.422-5.613C1507.75,2640.96,1507.266,2642.762,1506.823,2644.709Z"/><path class="i" d="M1497.278,2702.172c0.288-2.636.638-5.169,0.947-7.734C1497.916,2697,1497.566,2699.536,1497.278,2702.172Z"/><path class="i" d="M573.929,1455.565c25.354-12.4,72.622-11.471,115.535,58.442,42.9,69.955,130.281,192.07,164.687,234.653s73.158,102.754,94.547,90.458,11.883-86.9-7.055-141.629c-18.938-54.714-57.762-185.8-69.77-248.535-11.956-62.736-60.295-209.381-65.033-240.8-4.737-31.378,12.255-65.249,49.318-79.851,37.114-14.608,75.764.277,103.6,76.463,27.8,76.217,51.717,178.076,64.538,223.068,12.821,45.012,99.49,275.474,117.481,306.595,18,31.079,56.948,12.481,53.993-32.718-2.977-45.218-.289-190.988,4.212-254.1,4.51-63.138,9.906-175.511,10.936-216.878,1.071-41.4-.7-137.831.5-163.462,1.236-25.643,6.046-76.932,69-78.312,62.984-1.411,83.94,55.218,84.96,102.482,1.05,47.247,2.11,124.03,7.373,169.208,5.273,45.157,10.061,173.029,9.4,232.139-0.68,59.111-21.348,224.973,22.388,227.939,43.756,2.986,92.374-202.914,107.172-246.558,14.778-43.653,38.289-138.694,53.19-176.437s38.844-201.724,126.038-178.044c87.163,23.67,61.475,108.9,48.838,160.392-12.651,51.46-61.566,243.561-77.606,318.768-16.075,75.176-85.6,314.977-54.214,398.989,31.4,83.96,46.563,56.063,84.763,2.039,38.155-53.983,79.482-143.525,144.447-189.28,38.284-26.929,115.787-62.632,159.94-26.167,44.112,36.424-.741,55.157-27.29,101.014-26.6,45.878-84.66,179.1-119.149,223.211-34.474,44.065-41.558,117.409-59.642,152.947-34.9,68.689-108.948,148.128-141.413,194.15-32.47,46-113.506,114.794-128.716,146.594a188.918,188.918,0,0,0-11.05,30.452q-11.6.479-23.243,0.412c-79.388-.65-158.508-32.748-228.185-75.928a671.149,671.149,0,0,1-134.164,77.2,243.974,243.974,0,0,1-61.037,17.27c-9.422,6.612-21.884,12.77-32.244,18.259-10.649,5.623-25.478,10.442-35.478,14.88v0.062c0-33.8-16.362-93.98-33.7-137.253-18.763-46.846-67.2-175.707-77.456-230.627-10.257-54.888-36.164-168.569-46.524-209.689-15.664-62.108-24.246-131.353-24.246-131.353s-83.633-137.964-116.186-184.511c-32.531-46.536-117.914-170.711-140.817-227.279C533.644,1507.654,548.626,1467.923,573.929,1455.565Z"/><path class="i" d="M1266.064,2539.555c17.64-81.056,5.489-125.246,62.345-242.418s258.41-212.738,291.977-228.145a148.624,148.624,0,0,0,33.778-21.461,61.532,61.532,0,0,0,11.668-11.07,169.448,169.448,0,0,0,26.1-35.456c0.268-.382.525-0.752,0.8-1.133,38.155-53.983,79.482-143.525,144.447-189.28,38.284-26.929,115.787-62.632,159.94-26.167,44.112,36.424-.741,55.157-27.29,101.014-26.6,45.878-84.66,179.1-119.149,223.211-34.474,44.065-41.558,117.409-59.642,152.947-34.9,68.689-108.948,148.128-141.413,194.15-32.47,46-113.506,114.794-128.716,146.594a188.918,188.918,0,0,0-11.05,30.452q-11.6.479-23.243,0.412c-67.72-.557-154.357,5.221-224.9-74.7C1263.16,2552.19,1264.684,2545.9,1266.064,2539.555Z"/><path class="i" d="M1491.839,2994.349c-0.134-4.294-.277-8.65-0.391-12.873C1491.562,2985.7,1491.706,2990.055,1491.839,2994.349Z"/><path class="i" d="M1491.067,2966.432c-0.113-4.274-.206-8.6-0.319-12.8C1490.862,2957.832,1490.955,2962.158,1491.067,2966.432Z"/><path class="i" d="M1501.531,2671.5c0.37-2.276.782-4.449,1.2-6.662C1502.313,2667.055,1501.9,2669.229,1501.531,2671.5Z"/><path class="i" d="M1499.264,2686.354c0.35-2.461.7-4.81,1.082-7.188C1499.965,2681.544,1499.614,2683.893,1499.264,2686.354Z"/><path class="i" d="M1504.033,2657.6c0.422-2.111.875-4.119,1.308-6.148C1504.919,2653.482,1504.455,2655.49,1504.033,2657.6Z"/><path class="i" d="M1030.978,2670.011c10.36-5.489,21.539-11.647,30.972-18.259a249.012,249.012,0,0,0,61.678-17.27,674.628,674.628,0,0,0,134.469-77.2c69.677,43.18,148.96,75.278,228.327,75.928,7.786,0.051,15.622-.093,23.366-0.412h0c-0.566,2.029-1.072,4.2-1.608,6.3-0.473,1.864-.927,3.667-1.38,5.613-0.5,2.163-.978,4.49-1.472,6.745-0.433,2.029-.871,4.037-1.293,6.148-0.464,2.348-.888,4.82-1.3,7.24-0.422,2.213-.835,4.387-1.206,6.662-0.423,2.481-.8,5.087-1.185,7.662-0.382,2.378-.732,4.726-1.082,7.188-0.36,2.647-.69,5.365-1.04,8.084-0.309,2.565-.659,5.1-0.947,7.734-0.32,2.8-.629,5.674-0.917,8.537-0.289,2.739-.577,5.457-0.825,8.238-0.309,2.966-.545,6.035-0.8,9.073-0.258,2.852-.495,5.7-0.711,8.629-0.248,3.152-.464,6.364-0.691,9.618-0.175,3-.4,6.025-0.586,9.1-0.2,3.3-.371,6.642-0.546,10.041q-0.263,4.772-.484,9.638c-0.165,3.46-.309,6.973-0.443,10.494-0.134,3.337-.268,6.7-0.37,10.113-0.114,3.645-.227,7.332-0.33,11.081-0.1,3.45-.165,6.93-0.257,10.442-0.072,3.852-.165,7.714-0.206,11.617-0.062,3.6-.123,7.239-0.155,10.9-0.052,4.026-.72,82.406-0.628,87.039,0.051,4.151.608,8.414,0.659,12.636,0.1,4.726.411,9.433,0.515,14.262,0.123,4.2.35,8.527,0.453,12.8,0.113,4.994.3,9.958,0.432,15.045,0.123,4.222.288,8.579,0.422,12.873,0.165,5.3.34,10.586,0.515,15.973,0.134,4.026.3,8.166,0.443,12.234,0.2,5.808.391,11.565,0.6,17.477,0.134,3.212.277,6.529,0.4,9.783q0.834,21.75,1.874,44.457c0.082,2.368.175,4.685,0.288,7.075,0.289,6.467.618,13.1,0.917,19.669,0.206,4.336.4,8.6,0.617,12.986,0.3,6.23.608,12.584,0.937,18.887,0.237,4.912.495,9.742,0.741,14.705,0.32,6.5.68,13.14,1.03,19.742,0.247,4.86.495,9.681,0.772,14.623,0.361,6.5.721,13.13,1.091,19.721,0.279,5.345.577,10.659,0.866,16.055,0.381,6.55.772,13.192,1.153,19.813,0.309,5.448.6,10.885,0.948,16.395,0.381,6.755.782,13.655,1.195,20.514,0.34,5.726.679,11.442,1.029,17.208,0.4,6.642.8,13.367,1.216,20.1,0.37,6.1.741,12.183,1.111,18.331,0.432,6.92.875,13.923,1.3,20.915q0.587,8.989,1.133,18.072c0.453,7.364.927,14.809,1.411,22.275q0.555,8.76,1.133,17.6c0.484,7.713,1,15.5,1.483,23.305q0.573,8.882,1.154,17.856,0.772,11.708,1.545,23.552c0.412,6.478.854,13.037,1.288,19.608,0.473,7.394.968,14.788,1.452,22.275q0.71,10.69,1.442,21.5c0.495,7.62,1.009,15.251,1.5,22.943,0.432,6.437.865,12.955,1.308,19.463,0.577,8.784,1.174,17.548,1.761,26.436,0.329,5.015.669,10.1,1.02,15.179,0.72,10.886,1.451,21.791,2.2,32.852,0.052,0.9.114,1.792,0.175,2.687,1.422,21.338,2.895,43.088,4.367,65.043,0.453,6.755.906,13.46,1.359,20.287,0.391,5.881.782,11.874,1.195,17.8,0.7,10.463,1.4,20.926,2.111,31.533,0.453,6.7.927,13.552,1.359,20.339,0.638,9.422,1.277,18.824,1.906,28.382q3.32,49.972,6.755,101.889c0.061,0.906.123,1.833,0.186,2.74q1.59,24.22,3.2,48.854c0.452,6.9.906,13.933,1.359,20.9,0.7,10.7,1.39,21.348,2.1,32.192,0.473,7.457.958,15.046,1.452,22.564,0.67,10.5,1.359,20.977,2.029,31.595,0.515,8.166,1.04,16.445,1.575,24.674,0.629,10.031,1.277,20.051,1.915,30.184,0.546,8.609,1.082,17.332,1.638,26,0.618,9.938,1.256,19.856,1.864,29.906,0.566,8.959,1.122,18.022,1.688,27.074,0.618,10.02,1.236,20.04,1.864,30.173,0.545,8.959,1.111,18.011,1.637,27.042,0.65,10.236,1.257,20.474,1.895,30.8,0.557,9.31,1.123,18.681,1.668,28.042,0.618,10.2,1.216,20.39,1.843,30.678,0.546,9.495,1.134,19.02,1.679,28.587,0.618,10.536,1.225,21.07,1.854,31.677q0.819,14.228,1.647,28.578,0.927,15.925,1.844,32.007,0.834,14.829,1.688,29.812,0.881,15.679,1.761,31.5,0.865,15.247,1.7,30.6,0.913,16.359,1.8,32.881,0.8,14.907,1.618,29.917c0.607,11.194,1.194,22.47,1.8,33.767,0.545,10.154,1.081,20.287,1.617,30.5q0.9,17.131,1.792,34.406c0.525,10.206,1.04,20.39,1.565,30.637,0.587,11.421,1.164,22.934,1.751,34.426,0.526,10.628,1.061,21.214,1.6,31.925,0.577,11.616,1.133,23.325,1.709,35.023,0.505,10.536,1.02,21.019,1.534,31.595,0.6,12.585,1.205,25.272,1.793,37.939,0.463,9.856.926,19.68,1.4,29.607,0.627,13.635,1.256,27.424,1.884,41.2,0.422,9.248.845,18.475,1.261,27.774,0.664,14.614,1.3,29.391,1.952,44.148,0.375,8.589.756,17.095,1.133,25.725,1.02,23.336,2.008,658.348,2.986,682.012l-756.1,38.978c21.925-741.958,57.258-1740.782,80.593-2255.4,16.579-365.747,54.826-913.206,54.785-922.288-0.021-2.42-2.978-5.1-2.978-7.9v-0.062C1005.5,2680.453,1020.33,2675.634,1030.978,2670.011Z"/><path class="j" d="M1492.746,2755.372c0.186-3.079.411-6.107,0.586-9.1C1493.158,2749.265,1492.932,2752.292,1492.746,2755.372Z"/><path class="j" d="M1491.716,2775.051q0.217-4.866.484-9.638Q1491.938,2770.185,1491.716,2775.051Z"/><path class="j" d="M1490.46,2939.368c-0.082-4.222-.165-8.486-0.227-12.636C1490.3,2930.883,1490.378,2935.146,1490.46,2939.368Z"/><path class="j" d="M1495.537,2718.947c0.248-2.781.536-5.5,0.825-8.238C1496.072,2713.448,1495.784,2716.167,1495.537,2718.947Z"/><path class="j" d="M1494.023,2736.65c0.216-2.924.452-5.777,0.711-8.629C1494.476,2730.873,1494.24,2733.725,1494.023,2736.65Z"/><path class="j" d="M1490.048,2913.015q-0.092-6.133-.144-12.182Q1489.951,2906.872,1490.048,2913.015Z"/><path class="j" d="M1489.955,2839.693c0.032-3.656.093-7.291,0.155-10.9C1490.028,2832.4,1489.987,2836.037,1489.955,2839.693Z"/><path class="j" d="M1490.9,2795.658c0.1-3.408.236-6.776,0.37-10.113C1491.139,2788.881,1491.005,2792.25,1490.9,2795.658Z"/><path class="j" d="M1490.316,2817.181c0.093-3.512.155-6.992,0.257-10.442C1490.471,2810.189,1490.408,2813.669,1490.316,2817.181Z"/><path class="j" d="M1506.823,2644.709c0.443-1.947.927-3.749,1.422-5.613C1507.75,2640.96,1507.266,2642.762,1506.823,2644.709Z"/><path class="j" d="M1497.278,2702.172c0.288-2.636.638-5.169,0.947-7.734C1497.916,2697,1497.566,2699.536,1497.278,2702.172Z"/><path class="k" d="M573.929,1455.565c25.354-12.4,72.622-11.471,115.535,58.442,42.9,69.955,130.281,192.07,164.687,234.653s73.158,102.754,94.547,90.458,11.883-86.9-7.055-141.629c-18.938-54.714-57.762-185.8-69.77-248.535-11.956-62.736-60.295-209.381-65.033-240.8-4.737-31.378,12.255-65.249,49.318-79.851,37.114-14.608,75.764.277,103.6,76.463,27.8,76.217,51.717,178.076,64.538,223.068,12.821,45.012,99.49,275.474,117.481,306.595,18,31.079,56.948,12.481,53.993-32.718-2.977-45.218-.289-190.988,4.212-254.1,4.51-63.138,9.906-175.511,10.936-216.878,1.071-41.4-.7-137.831.5-163.462,1.236-25.643,6.046-76.932,69-78.312,62.984-1.411,83.94,55.218,84.96,102.482,1.05,47.247,2.11,124.03,7.373,169.208,5.273,45.157,10.061,173.029,9.4,232.139-0.68,59.111-21.348,224.973,22.388,227.939,43.756,2.986,92.374-202.914,107.172-246.558,14.778-43.653,38.289-138.694,53.19-176.437s38.844-201.724,126.038-178.044c87.163,23.67,61.475,108.9,48.838,160.392-12.651,51.46-61.566,243.561-77.606,318.768-16.075,75.176-85.6,314.977-54.214,398.989,31.4,83.96,46.563,56.063,84.763,2.039,38.155-53.983,79.482-143.525,144.447-189.28,38.284-26.929,115.787-62.632,159.94-26.167,44.112,36.424-.741,55.157-27.29,101.014-26.6,45.878-84.66,179.1-119.149,223.211-34.474,44.065-41.558,117.409-59.642,152.947-34.9,68.689-108.948,148.128-141.413,194.15-32.47,46-113.506,114.794-128.716,146.594a188.918,188.918,0,0,0-11.05,30.452q-11.6.479-23.243,0.412c-79.388-.65-158.508-32.748-228.185-75.928a671.149,671.149,0,0,1-134.164,77.2,243.974,243.974,0,0,1-61.037,17.27c-9.422,6.612-21.884,12.77-32.244,18.259-10.649,5.623-25.478,10.442-35.478,14.88v0.062c0-33.8-16.362-93.98-33.7-137.253-18.763-46.846-67.2-175.707-77.456-230.627-10.257-54.888-36.164-168.569-46.524-209.689-15.664-62.108-24.246-131.353-24.246-131.353s-83.633-137.964-116.186-184.511c-32.531-46.536-117.914-170.711-140.817-227.279C533.644,1507.654,548.626,1467.923,573.929,1455.565Z"/><path class="l" d="M1266.064,2539.555c17.64-81.056,5.489-125.246,62.345-242.418s258.41-212.738,291.977-228.145a148.624,148.624,0,0,0,33.778-21.461,61.532,61.532,0,0,0,11.668-11.07,169.448,169.448,0,0,0,26.1-35.456c0.268-.382.525-0.752,0.8-1.133,38.155-53.983,79.482-143.525,144.447-189.28,38.284-26.929,115.787-62.632,159.94-26.167,44.112,36.424-.741,55.157-27.29,101.014-26.6,45.878-84.66,179.1-119.149,223.211-34.474,44.065-41.558,117.409-59.642,152.947-34.9,68.689-108.948,148.128-141.413,194.15-32.47,46-113.506,114.794-128.716,146.594a188.918,188.918,0,0,0-11.05,30.452q-11.6.479-23.243,0.412c-67.72-.557-154.357,5.221-224.9-74.7C1263.16,2552.19,1264.684,2545.9,1266.064,2539.555Z"/><path class="j" d="M1491.839,2994.349c-0.134-4.294-.277-8.65-0.391-12.873C1491.562,2985.7,1491.706,2990.055,1491.839,2994.349Z"/><path class="j" d="M1491.067,2966.432c-0.113-4.274-.206-8.6-0.319-12.8C1490.862,2957.832,1490.955,2962.158,1491.067,2966.432Z"/><path class="j" d="M1501.531,2671.5c0.37-2.276.782-4.449,1.2-6.662C1502.313,2667.055,1501.9,2669.229,1501.531,2671.5Z"/><path class="j" d="M1499.264,2686.354c0.35-2.461.7-4.81,1.082-7.188C1499.965,2681.544,1499.614,2683.893,1499.264,2686.354Z"/><path class="j" d="M1504.033,2657.6c0.422-2.111.875-4.119,1.308-6.148C1504.919,2653.482,1504.455,2655.49,1504.033,2657.6Z"/><path class="l" d="M1030.978,2670.011c10.36-5.489,21.539-11.647,30.972-18.259a249.012,249.012,0,0,0,61.678-17.27,674.628,674.628,0,0,0,134.469-77.2c69.677,43.18,148.96,75.278,228.327,75.928,7.786,0.051,15.622-.093,23.366-0.412h0c-0.566,2.029-1.072,4.2-1.608,6.3-0.473,1.864-.927,3.667-1.38,5.613-0.5,2.163-.978,4.49-1.472,6.745-0.433,2.029-.871,4.037-1.293,6.148-0.464,2.348-.888,4.82-1.3,7.24-0.422,2.213-.835,4.387-1.206,6.662-0.423,2.481-.8,5.087-1.185,7.662-0.382,2.378-.732,4.726-1.082,7.188-0.36,2.647-.69,5.365-1.04,8.084-0.309,2.565-.659,5.1-0.947,7.734-0.32,2.8-.629,5.674-0.917,8.537-0.289,2.739-.577,5.457-0.825,8.238-0.309,2.966-.545,6.035-0.8,9.073-0.258,2.852-.495,5.7-0.711,8.629-0.248,3.152-.464,6.364-0.691,9.618-0.175,3-.4,6.025-0.586,9.1-0.2,3.3-.371,6.642-0.546,10.041q-0.263,4.772-.484,9.638c-0.165,3.46-.309,6.973-0.443,10.494-0.134,3.337-.268,6.7-0.37,10.113-0.114,3.645-.227,7.332-0.33,11.081-0.1,3.45-.165,6.93-0.257,10.442-0.072,3.852-.165,7.714-0.206,11.617-0.062,3.6-.123,7.239-0.155,10.9-0.052,4.026-.72,82.406-0.628,87.039,0.051,4.151.608,8.414,0.659,12.636,0.1,4.726.411,9.433,0.515,14.262,0.123,4.2.35,8.527,0.453,12.8,0.113,4.994.3,9.958,0.432,15.045,0.123,4.222.288,8.579,0.422,12.873,0.165,5.3.34,10.586,0.515,15.973,0.134,4.026.3,8.166,0.443,12.234,0.2,5.808.391,11.565,0.6,17.477,0.134,3.212.277,6.529,0.4,9.783q0.834,21.75,1.874,44.457c0.082,2.368.175,4.685,0.288,7.075,0.289,6.467.618,13.1,0.917,19.669,0.206,4.336.4,8.6,0.617,12.986,0.3,6.23.608,12.584,0.937,18.887,0.237,4.912.495,9.742,0.741,14.705,0.32,6.5.68,13.14,1.03,19.742,0.247,4.86.495,9.681,0.772,14.623,0.361,6.5.721,13.13,1.091,19.721,0.279,5.345.577,10.659,0.866,16.055,0.381,6.55.772,13.192,1.153,19.813,0.309,5.448.6,10.885,0.948,16.395,0.381,6.755.782,13.655,1.195,20.514,0.34,5.726.679,11.442,1.029,17.208,0.4,6.642.8,13.367,1.216,20.1,0.37,6.1.741,12.183,1.111,18.331,0.432,6.92.875,13.923,1.3,20.915q0.587,8.989,1.133,18.072c0.453,7.364.927,14.809,1.411,22.275q0.555,8.76,1.133,17.6c0.484,7.713,1,15.5,1.483,23.305q0.573,8.882,1.154,17.856,0.772,11.708,1.545,23.552c0.412,6.478.854,13.037,1.288,19.608,0.473,7.394.968,14.788,1.452,22.275q0.71,10.69,1.442,21.5c0.495,7.62,1.009,15.251,1.5,22.943,0.432,6.437.865,12.955,1.308,19.463,0.577,8.784,1.174,17.548,1.761,26.436,0.329,5.015.669,10.1,1.02,15.179,0.72,10.886,1.451,21.791,2.2,32.852,0.052,0.9.114,1.792,0.175,2.687,1.422,21.338,2.895,43.088,4.367,65.043,0.453,6.755.906,13.46,1.359,20.287,0.391,5.881.782,11.874,1.195,17.8,0.7,10.463,1.4,20.926,2.111,31.533,0.453,6.7.927,13.552,1.359,20.339,0.638,9.422,1.277,18.824,1.906,28.382q3.32,49.972,6.755,101.889c0.061,0.906.123,1.833,0.186,2.74q1.59,24.22,3.2,48.854c0.452,6.9.906,13.933,1.359,20.9,0.7,10.7,1.39,21.348,2.1,32.192,0.473,7.457.958,15.046,1.452,22.564,0.67,10.5,1.359,20.977,2.029,31.595,0.515,8.166,1.04,16.445,1.575,24.674,0.629,10.031,1.277,20.051,1.915,30.184,0.546,8.609,1.082,17.332,1.638,26,0.618,9.938,1.256,19.856,1.864,29.906,0.566,8.959,1.122,18.022,1.688,27.074,0.618,10.02,1.236,20.04,1.864,30.173,0.545,8.959,1.111,18.011,1.637,27.042,0.65,10.236,1.257,20.474,1.895,30.8,0.557,9.31,1.123,18.681,1.668,28.042,0.618,10.2,1.216,20.39,1.843,30.678,0.546,9.495,1.134,19.02,1.679,28.587,0.618,10.536,1.225,21.07,1.854,31.677q0.819,14.228,1.647,28.578,0.927,15.925,1.844,32.007,0.834,14.829,1.688,29.812,0.881,15.679,1.761,31.5,0.865,15.247,1.7,30.6,0.913,16.359,1.8,32.881,0.8,14.907,1.618,29.917c0.607,11.194,1.194,22.47,1.8,33.767,0.545,10.154,1.081,20.287,1.617,30.5q0.9,17.131,1.792,34.406c0.525,10.206,1.04,20.39,1.565,30.637,0.587,11.421,1.164,22.934,1.751,34.426,0.526,10.628,1.061,21.214,1.6,31.925,0.577,11.616,1.133,23.325,1.709,35.023,0.505,10.536,1.02,21.019,1.534,31.595,0.6,12.585,1.205,25.272,1.793,37.939,0.463,9.856.926,19.68,1.4,29.607,0.627,13.635,1.256,27.424,1.884,41.2,0.422,9.248.845,18.475,1.261,27.774,0.664,14.614,1.3,29.391,1.952,44.148,0.375,8.589.756,17.095,1.133,25.725,1.02,23.336,2.008,658.348,2.986,682.012l-756.1,38.978c21.925-741.958,57.258-1740.782,80.593-2255.4,16.579-365.747,54.826-913.206,54.785-922.288-0.021-2.42-2.978-5.1-2.978-7.9v-0.062C1005.5,2680.453,1020.33,2675.634,1030.978,2670.011Z"/></g></svg>