<?xml version="1.0" encoding="utf-8"?>
<!-- Generator: Adobe Illustrator 24.3.0, SVG Export Plug-In . SVG Version: 6.00 Build 0)  -->
<svg version="1.1" id="yantra" xmlns="http://www.w3.org/2000/svg" xmlns:xlink="http://www.w3.org/1999/xlink" x="0px" y="0px"
	 viewBox="0 0 1020.5 1587.4" style="enable-background:new 0 0 1020.5 1587.4;" xml:space="preserve">
<style type="text/css">
	.st0{fill:#F2FAFE;}
	.st1{fill:#F36B21;}
	.st2{fill:#FBA919;}
	.st3{fill:#FBEE3F;}
	.st4{fill:#D1D3D4;}
	.st5{fill:#FFFFFF;}
	.st6{fill:#292928;}
	.st7{fill:#939598;}
	.st8{fill:url(#niyati_1_);}
	.st9{fill:url(#kaala_1_);}
	.st10{fill:#B3B3B2;}
	.st11{fill:#BDAF9F;}
	.st12{fill:#7D989E;}
	.st13{fill:#FCF8C4;}
	.st14{fill:#7453A2;}
	.st15{fill:#7B73B5;}
	.st16{fill:#82ADDC;}
	.st17{fill:#8AD5EE;}
	.st18{fill:#78D0E7;}
	.st19{fill:#65C8D0;}
	.st20{fill:#7FC78B;}
	.st21{fill:#4BB862;}
	.st22{fill:#EF4526;}
	.st23{fill:#F37224;}
	.st24{fill:#F99F20;}
	.st25{fill:#FFC61B;}
	.st26{opacity:0.75;fill:#FFFFFF;enable-background:new    ;}
	.st27{fill:#56B29D;}
	.st28{fill:#8AC762;}
	.st29{fill:#C5C760;}
	.st30{fill:#ED9327;}
	.st31{opacity:0.5;fill:#939598;enable-background:new    ;}
	.st32{fill:#443414;}
	.st33{fill:#77401A;}
	.st34{fill:#AD4D25;}
	.st35{opacity:0.5;fill:#231F20;enable-background:new    ;}
	.st36{fill:#EDEA5F;}
	.st37{fill:#878BC4;}
	.st38{opacity:0.25;fill:#FFFFFF;enable-background:new    ;}
	.st39{opacity:0.5;fill:#FFFFFF;enable-background:new    ;}
	.st40{fill:#ED1E2D;}
	.st41{fill:#FEDD00;}
	.st42{fill:#231F20;}
	.st43{fill:#E4F5FD;}
	.st44{fill:#EC8223;}
	.st45{fill:#FFCC57;}
	.st46{fill:#FDEE0A;}
	.st47{fill:#ED2024;}
	.st48{fill:#1FB24B;}
	.st49{fill:#84C669;}
	.st50{fill:#BCE4E8;}
	.st51{fill:#80B9E5;}
	.st52{fill:#5B87C5;}
	.st53{fill:#3E59A8;}
	.st54{fill:#EAEAEA;}
	.st55{fill:#A47EB9;}
</style>
<g id="main">
	<rect id="paramashiva" class="st0" width="1020.5" height="1587.4"/>
	<path id="sadakhya" class="st1" d="M510.2,556.2c214.8,0,403.3-112.1,510.3-281V0H0v275.2C107,444.1,295.5,556.2,510.2,556.2z"/>
	<path id="ishvara" class="st2" d="M510.2,350.7c193.7,0,350.7-157,350.7-350.7H159.5C159.5,193.7,316.5,350.7,510.2,350.7z"/>
	<path id="sadashiva" class="st3" d="M510.2,199.6c110.3,0,199.7-89.3,199.7-199.6H310.6C310.6,110.3,400,199.6,510.2,199.6z"/>
	<path id="shakti" class="st4" d="M410.4,172.9c30.3,17.5,64.8,26.8,99.8,26.7c35.1,0.1,69.5-9.1,99.9-26.7L510.2,0L410.4,172.9z"/>
	<polygon id="shiva" class="st5" points="610.5,173.6 510.2,0 410,173.6 	"/>
	<path id="maya" class="st6" d="M510.2,556.2C295.5,556.2,107,444.1,0,275.2v1312.2h1020.5V275.2C913.5,444.1,725,556.2,510.2,556.2
		z"/>
	<path id="prakriti" class="st7" d="M510.2,769.4C240.8,769.4,20,561.2,0,296.8v1290.6h1020.5V296.8
		C1000.5,561.2,779.7,769.4,510.2,769.4z"/>
	<g id="kanchuka">
		
			<linearGradient id="niyati_1_" gradientUnits="userSpaceOnUse" x1="225.7" y1="-20.4894" x2="510.2" y2="-20.4894" gradientTransform="matrix(1 0 0 1 0 505.8898)">
			<stop  offset="0" style="stop-color:#39C6F4"/>
			<stop  offset="1.000000e-02" style="stop-color:#3DC7F4"/>
			<stop  offset="0.15" style="stop-color:#70D6F7"/>
			<stop  offset="0.29" style="stop-color:#9CE2F9"/>
			<stop  offset="0.43" style="stop-color:#C0EDFB"/>
			<stop  offset="0.57" style="stop-color:#DBF5FD"/>
			<stop  offset="0.71" style="stop-color:#EFFAFE"/>
			<stop  offset="0.86" style="stop-color:#FBFEFF"/>
			<stop  offset="1" style="stop-color:#FFFFFF"/>
		</linearGradient>
		<path id="niyati" class="st8" d="M225.7,485c15.6,19.4,33.2,37.2,52.4,53.1c65.5,53.4,147.5,82.5,232.1,82.2V350.5
			C403.8,350.2,298.2,396.1,225.7,485z"/>
		
			<linearGradient id="kaala_1_" gradientUnits="userSpaceOnUse" x1="794.8" y1="-20.4898" x2="510.2" y2="-20.4898" gradientTransform="matrix(1 0 0 1 0 505.8898)">
			<stop  offset="0" style="stop-color:#F38DBA"/>
			<stop  offset="7.000000e-02" style="stop-color:#F59CC3"/>
			<stop  offset="0.25" style="stop-color:#F8C0D9"/>
			<stop  offset="0.44" style="stop-color:#FBDBEA"/>
			<stop  offset="0.62" style="stop-color:#FDEFF5"/>
			<stop  offset="0.81" style="stop-color:#FFFBFD"/>
			<stop  offset="1" style="stop-color:#FFFFFF"/>
		</linearGradient>
		<path id="kaala" class="st9" d="M741.4,433.2c-65.2-53.4-146.9-82.6-231.2-82.7v269.8c106.5-0.2,212.2-46.5,284.6-135.3
			C779.4,466.2,761,449.2,741.4,433.2z"/>
		<path id="raga" class="st10" d="M375.3,485.6c-0.1,74.6,60.3,135,134.9,135.1c74.6,0.1,135-60.3,135.1-134.9
			c0.1-74.6-60.3-135-134.9-135.1c-0.1,0-0.1,0-0.2,0C435.7,350.7,375.3,411.1,375.3,485.6L375.3,485.6z"/>
		<path id="vidya" class="st11" d="M794.8,485c-15.4-18.8-33.8-35.8-53.4-51.8c-156.9-128-387.8-105.1-515.7,51.8
			c0-157.1,127.4-283.9,284.5-283.9S794.8,327.9,794.8,485z"/>
		<path id="kalaa" class="st12" d="M225.7,485c15.6,19.4,33.2,37.2,52.4,53.1C435,666,666.8,641.9,794.8,485
			c0,157.2-127.4,285.2-284.6,285.2S225.7,642.2,225.7,485z"/>
	</g>
	<path id="purusha" class="st13" d="M580.8,485.6c0.1,39-31.5,70.6-70.5,70.7s-70.6-31.5-70.7-70.5s31.5-70.6,70.5-70.7h0.1
		C549.2,415.1,580.7,446.6,580.8,485.6z"/>
	<g id="ham">
		<path id="akasha" class="st14" d="M0,655.5v931.9h1020.5V655.5C865.9,729,692.9,770.2,510.2,770.2S154.6,729,0,655.5z"/>
		<path id="shabda" class="st15" d="M468,770.2c-752.9-33.5-352.6,1014,42.2,735.5c394.8,278.5,795.2-769,42.3-735.5L468,770.2z"/>
		<path id="vaak" class="st16" d="M468,770.2c-603,52.1-224.5,873.9,42.2,735.5c266.8,138.4,645.2-683.4,42.3-735.5L468,770.2z"/>
		<path id="shrotra" class="st17" d="M468,770.2c-158.9,27.9-234.8,208.4-222.6,385.6c7.3,106.1,37.4,153,56.9,186.9
			c43.7,63,124.3,140.2,207.9,163c83.6-22.8,164.3-100,208-163c19.5-33.9,55.1-93.5,56.9-186.9c15.5-177-63.8-357.7-222.6-385.6
			L468,770.2z"/>
	</g>
	<g id="yam">
		<path id="vayu" class="st18" d="M0,871.4v716h1020.5v-716c-168.9,25.1-339.5,37.7-510.3,37.7C339.4,909.1,168.9,896.5,0,871.4z"/>
		<path id="sparsha" class="st19" d="M119.4,887.1c-222.3,257.9,85.9,833.7,390.8,618.6c304.9,215.1,613.1-360.7,390.9-618.6
			c-129.8,14.7-260.3,22-390.9,22S249.2,901.8,119.4,887.1z"/>
		<path id="pani" class="st20" d="M202.7,895.5c-178.4,238.6,98.7,718.5,307.5,610.2c208.8,108.3,486-371.6,307.5-610.2
			c-101.3,9-203.8,13.5-307.5,13.6C406.5,909.2,304,904.6,202.7,895.5z"/>
		<path id="tvak" class="st21" d="M293.9,902.4c-39.6,71.5-54.7,162.8-48.5,253.4c7.3,106.1,37.4,153,56.9,186.9
			c43.7,63,124.3,140.2,207.9,163c83.6-22.8,164.3-100,208-163c19.5-33.9,55.1-93.5,56.9-186.9c7.9-90.5-8.9-181.9-48.5-253.4
			c-71.6,4.4-143.7,6.6-216.4,6.7C437.5,909.2,365.4,906.9,293.9,902.4z"/>
	</g>
	<g id="ram">
		<rect id="agni" y="1053.3" class="st22" width="1020.5" height="534.1"/>
		<path id="rupa" class="st23" d="M47.5,1053.3c-38,275.5,213.5,628.2,462.7,452.4c249.3,175.8,500.8-176.9,462.8-452.4H47.5z"/>
		<path id="pada" class="st24" d="M146.6,1053.3c-18.7,243,194.8,540,363.6,452.4c168.8,87.6,382.4-209.4,363.6-452.4H146.6z"/>
		<path id="cakshus" class="st25" d="M247,1053.3c-4.1,33.5-4,68-1.6,102.5c7.3,106.1,37.4,153,56.9,186.9
			c43.7,63,124.3,140.2,207.9,163c83.6-22.8,164.3-100,208-163c19.5-33.9,55.1-93.5,56.9-186.9c3-34.1,2.4-68.5-1.6-102.5H247z"/>
	</g>
	<polyline id="buddhi" class="st26" points="840.2,1262.6 510.2,697.1 180.3,1262.6 	"/>
	<g id="vam">
		<path id="apas" class="st27" d="M1020.5,1367.9c-141.8-108.3-318.6-172.6-510.3-172.6S141.8,1259.6,0,1367.9v219.5h1020.5V1367.9z
			"/>
		<path id="rasa" class="st28" d="M510.2,1195.3c-149.3-0.2-295.9,39.6-424.7,115.2c77.6,184.6,251.7,317.2,424.7,195.2
			c173.1,122,347.1-10.6,424.7-195.2C806.2,1234.9,659.5,1195.1,510.2,1195.3z"/>
		<path id="upastha" class="st29" d="M510.2,1195.3c-113.4-0.1-225.6,22.8-329.9,67.3c64.9,171,208.9,305.9,329.9,243.1
			c121.1,62.8,265.1-72.1,330-243.1C735.9,1218.1,623.6,1195.2,510.2,1195.3z"/>
		<path id="jihva" class="st30" d="M510.2,1195.3c-86.3-0.1-172.1,13.2-254.4,39.3c12.5,53.6,32.7,84.1,46.5,108.1
			c43.7,63,124.3,140.2,207.9,163c83.6-22.8,164.3-100,208-163c13.3-23.1,34.1-58.3,46.6-108.1
			C682.5,1208.5,596.6,1195.2,510.2,1195.3z"/>
	</g>
	<polyline id="manas" class="st31" points="757.1,1410.1 510.2,982.5 262.1,1408.6 	"/>
	<g id="lam">
		<path id="prithivi" class="st32" d="M125.3,1587.4h769.9C834.4,1434.3,685,1326,510.2,1326S186,1434.3,125.3,1587.4z"/>
		<path id="gandha" class="st33" d="M826.3,1472.6C750.4,1383,637,1326,510.2,1326s-240.1,57-316.1,146.6
			c87.1,83.2,201.9,113.7,316.1,33.1C624.5,1586.3,739.2,1555.8,826.3,1472.6z"/>
		<path id="payu" class="st34" d="M510.2,1326c-89.5-0.1-176.5,28.9-248.1,82.6c71.7,90.4,165.3,140.1,248.1,97.1
			c82.9,43,176.5-6.7,248.2-97.1C686.8,1354.9,599.7,1325.9,510.2,1326z"/>
		<path id="ghrana" class="st1" d="M697.2,1370.5c-117.6-59.3-256.3-59.3-373.9,0c46,56.3,115.4,115.7,186.9,135.2
			C581.8,1486.2,651.2,1426.8,697.2,1370.5z"/>
	</g>

	<g id="nadi">
		<path id="pingala" class="st36" d="M539.2,1332.3c3.3-33.4-10.6-51.3-33.2-66c-151.8-98.8,29.2-155,68.4-184.9
			c129.3-98.5-221.2-80.3-209.6-182.8c5.3-45.9,84.5-64.3,130.7-67.6c14.6-1,30.9-0.7,59-7.2c105.3-24.3,219.7-104.3-0.3-124.6
			l-10.2-1.1c-0.6-0.2-0.9-0.8-0.7-1.4c0.1-0.3,0.4-0.6,0.8-0.7c272.3-3.4,123.9,148.2-37,156.1c-113.3,5.6-188.4,59.6-38.8,110
			c36.4,12.3,204.2,41.6,130,115.7c-49.3,49.3-200.6,73.9-119.6,157.8c28.5,29.5,104.6,50.5,43.6,155c-3.4,5.9-7.2,11.7-11.2,17.2
			c-0.3,0.5-1,0.6-1.4,0.2c-0.5-0.3-0.6-1-0.3-1.4l0,0C509.4,1406.6,535.3,1371.1,539.2,1332.3z"/>
		<path id="ida" class="st37" d="M498.2,1390.6c-80.2-137.6,78.5-129.7,64.4-206c-11.7-63-147.1-72.1-157.8-136.2
			c-7.3-43.9,66.9-63.8,108.9-74.9c157.9-41.8,171.8-104.9-10.7-122C382.1,840.1,236.1,730.2,394.5,701c39.8-7.3,121.7-7.3,61.8-0.7
			c-218.4,23.9-77.4,103.4,9.8,123.5c38.2,8.9,157.5,4.1,185.8,61.9c54.2,110.8-338.2,94.8-205.8,195.7
			c45,34.3,93.1,39.7,117.7,81.1c7.7,13,10.6,27.7,6.3,42.6c-19.1,67.6-137.3,59.8-69.5,184.2c9.5,17.5,12,17.5,10.3,18.7
			S499.1,1392.2,498.2,1390.6z"/>
		<g id="sushumna">
			<path class="st38" d="M501.7,770.2h17c0.8,0,1.4,0.6,1.4,1.4v634.1c0,0.8-0.6,1.4-1.4,1.4h-17c-0.8,0-1.4-0.6-1.4-1.4V771.6
				C500.3,770.8,500.9,770.2,501.7,770.2z"/>
			<path class="st38" d="M504.5,697.1h11.4c0.8,0,1.4,0.6,1.4,1.4V1262c0,0.8-0.6,1.4-1.4,1.4h-11.4c-0.8,0-1.4-0.6-1.4-1.4V698.5
				C503.1,697.7,503.7,697.1,504.5,697.1z"/>
			<path class="st39" d="M507.4,620.6h5.7c0.8,0,1.4,0.6,1.4,1.4v498c0,0.8-0.6,1.4-1.4,1.4h-5.7c-0.8,0-1.4-0.6-1.4-1.4V622
				C506,621.2,506.6,620.6,507.4,620.6z"/>
			<rect x="508.8" y="556.2" class="st5" width="2.8" height="425"/>
		</g>
	</g>
	<g id="chakras">
		<g id="muladhara">
			<g>
				<g>
					
						<ellipse transform="matrix(0.7071 -0.7071 0.7071 0.7071 -840.6035 762.395)" class="st40" cx="500" cy="1395.9" rx="12.2" ry="14.5"/>
					
						<ellipse transform="matrix(0.7071 -0.7071 0.7071 0.7071 -849.1378 782.9204)" class="st40" cx="520.5" cy="1416.5" rx="12.2" ry="14.5"/>
				</g>
				<g>
					
						<ellipse transform="matrix(0.7071 -0.7071 0.7071 0.7071 -834.5994 776.887)" class="st40" cx="520.5" cy="1395.9" rx="14.5" ry="12.2"/>
					
						<ellipse transform="matrix(0.7071 -0.7071 0.7071 0.7071 -855.142 768.4283)" class="st40" cx="500" cy="1416.5" rx="14.5" ry="12.2"/>
				</g>
			</g>
			<circle cx="510.2" cy="1406.2" r="16.8"/>
			<rect x="501.8" y="1397.9" class="st41" width="16.8" height="16.8"/>
		</g>
		<g id="svadhisthana">
			<path class="st42" d="M518.8,1248.6L518.8,1248.6c-8.3-4.7-18.8-1.8-23.5,6.5c-1.4,2.5-2.2,5.4-2.2,8.3l0,0
				c0,9.4,7.7,17.1,17.1,17.1s17.1-7.7,17.1-17.1C527.3,1257.3,524.1,1251.7,518.8,1248.6z"/>
			<path class="st43" d="M517.5,1273.3c-5.6,4-13.3,2.7-17.3-2.9c-2-2.8-2.7-6.2-2.1-9.5c2.8,13,21.3,13.1,24.2,0
				C523.3,1265.6,521.4,1270.5,517.5,1273.3z"/>
			<g>
				<path class="st44" d="M501.7,1248.6c-5.3,3-8.6,8.7-8.6,14.8c-4.9-2.9-8-8-8.4-13.6c-0.1-0.4-0.1-0.8-0.1-1.2
					c2.1-1.3,4.5-2,7-2.3C495.1,1246,498.7,1246.8,501.7,1248.6z"/>
				<path class="st44" d="M510.2,1233.8c5.3,3,8.6,8.7,8.6,14.8l0,0c-5.3-3.1-11.8-3.1-17.1,0
					C501.7,1242.5,504.9,1236.8,510.2,1233.8z"/>
				<path class="st44" d="M535.9,1278.2c-1.3,0.7-2.7,1.3-4.2,1.7c-2.3,0.6-4.7,0.7-7.1,0.3c-2-0.3-4-1-5.8-2
					c5.3-3.1,8.5-8.7,8.5-14.8C532.6,1266.4,535.9,1272.1,535.9,1278.2z"/>
				<path class="st44" d="M535.9,1248.6c0,0.4,0,0.8-0.1,1.2c-0.4,5.7-3.6,10.7-8.5,13.6c0-6.1-3.2-11.7-8.5-14.8
					c3-1.8,6.6-2.6,10.1-2.3C531.4,1246.6,533.7,1247.4,535.9,1248.6z"/>
				<path class="st44" d="M501.7,1278.2c-5.3,3-11.8,3-17.1,0c0-6.1,3.2-11.7,8.5-14.8C493.2,1269.5,496.4,1275.1,501.7,1278.2z"/>
				<path class="st44" d="M518.8,1278.2c0,6.1-3.3,11.7-8.6,14.8c-5.3-3.1-8.5-8.7-8.5-14.8C507,1281.2,513.5,1281.2,518.8,1278.2z"
					/>
			</g>
		</g>
		<g id="manipura">
			<path d="M512,1104.6c-16.1-1.9-25,18.9-13,29.6c10.3,9.1,27.2,3.5,28-12.8C527,1112.8,520.5,1105.6,512,1104.6z"/>
			<g>
				<g>
					<path class="st45" d="M517.3,1143.3c-1.5,3.3-4,6-7.1,7.8c-3.1-1.8-5.5-4.5-7-7.8c2.1-1.2,3.9-2.9,5.3-4.8h3.5
						C512.4,1139.4,514.8,1141.8,517.3,1143.3z"/>
					<path class="st45" d="M503.2,1099.9c-1,2.2-1.5,4.6-1.5,7c-1,0.6-1.9,1.3-2.8,2.1c-2.3-0.8-4.7-1.1-7.1-0.8
						c-0.7-3.5-0.3-7.2,1.1-10.5C496.5,1097.4,500.1,1098.1,503.2,1099.9z"/>
					<path class="st45" d="M494.8,1128.3c-1.5,2-2.5,4.3-3,6.7c-3.6-0.4-6.9-1.9-9.6-4.3c0.7-3.5,2.6-6.7,5.3-9.1
						c1.8,1.6,4,2.9,6.3,3.6C494.1,1126.3,494.4,1127.3,494.8,1128.3z"/>
					<path class="st45" d="M538.3,1130.7c-2.7,2.4-6,3.9-9.6,4.3c-0.5-2.4-1.6-4.7-3.1-6.7c0.5-1,0.8-2,1-3.1
						c2.4-0.7,4.6-1.9,6.4-3.6C535.7,1124,537.5,1127.2,538.3,1130.7z"/>
					<path class="st45" d="M527.6,1097.7c1.4,3.3,1.8,7,1.1,10.5c-2.4-0.3-4.9,0-7.2,0.8c-0.8-0.8-1.7-1.5-2.7-2.1
						c0-2.4-0.5-4.8-1.5-7C520.4,1098.1,524,1097.4,527.6,1097.7z"/>
				</g>
				<g>
					<path class="st46" d="M498.9,1109c-4.5,4.1-6.4,10.3-5.1,16.2c-6.1-2.3-10.3-6.4-11.6-12.7C486.7,1108.4,493.1,1107,498.9,1109
						z"/>
					<path class="st46" d="M518.8,1106.9c-5.3-3.1-11.8-3.1-17.1,0c0-6.1,3.2-11.7,8.5-14.8C515.5,1095.1,518.8,1100.8,518.8,1106.9
						z"/>
					<path class="st46" d="M538.3,1112.5c-1.4,6.4-6.9,11.6-11.7,12.7c0.6-2.4,0.6-4.8,0-7.2c-0.2-1.1-0.5-2.2-0.9-3.2
						c-1-2.2-2.4-4.2-4.2-5.8C527.3,1107,533.7,1108.4,538.3,1112.5z"/>
					<path class="st46" d="M508.5,1138.5c-0.8,0.8-5.7,8-15.6,6.9c-3.2-7.2-0.3-14.9,1.9-17.1
						C497.2,1133.9,502.4,1137.8,508.5,1138.5z"/>
					<path class="st46" d="M529,1139.9c-0.2,1.9-0.7,3.7-1.4,5.5c-3.6,0.4-7.2-0.3-10.3-2.1c-2.1-1.2-3.9-2.8-5.3-4.8
						c6.1-0.7,11.3-4.6,13.6-10.2C528.1,1131.6,529.3,1135.7,529,1139.9z"/>
				</g>
			</g>
			<polygon class="st47" points="521.4,1113.7 510.2,1133.1 499,1113.7 			"/>
		</g>
		<g id="anahata">
			<path class="st42" d="M524.9,988.1c-1.5,2.6-3.6,4.8-6.2,6.4c-2.5,1.5-5.4,2.3-8.4,2.3h-0.1c-3,0-5.9-0.8-8.5-2.3
				c-1.1,0-9.5-6.6-8.1-16.9c1.1-9.2,9.4-15.7,18.5-14.7c2.3,0.3,4.5,1,6.5,2.2C524.9,968.2,530,978.3,524.9,988.1z"/>
			<g>
				<path class="st48" d="M510.2,950.2c2.6,1.5,4.8,3.6,6.3,6.2c-2.6,1.5-4.8,3.7-6.3,6.3l0,0c-1.5-2.6-3.6-4.7-6.2-6.2
					C505.5,953.9,507.6,951.7,510.2,950.2z"/>
				<path class="st48" d="M535.8,994.5c-2.6,1.5-5.5,2.3-8.5,2.3c0-3-0.8-5.9-2.3-8.5c3,0,5.9-0.8,8.5-2.3
					C535,988.6,535.8,991.5,535.8,994.5z"/>
				<path class="st48" d="M535.8,965c0,3-0.8,5.9-2.3,8.5c-2.6-1.5-5.5-2.3-8.5-2.3c1.5-2.6,2.3-5.5,2.3-8.5
					C530.3,962.7,533.2,963.5,535.8,965z"/>
				<path class="st48" d="M516.5,1003c-1.5,2.6-3.7,4.8-6.3,6.3c-2.6-1.5-4.7-3.7-6.2-6.3c2.6-1.5,4.7-3.6,6.2-6.2h0.1
					C511.8,999.4,513.9,1001.5,516.5,1003z"/>
				<path class="st48" d="M495.5,988.3c-1.5,2.6-2.3,5.5-2.3,8.5c-3,0-5.9-0.8-8.5-2.3c0-3,0.8-5.9,2.3-8.5
					C489.6,987.5,492.5,988.3,495.5,988.3z"/>
				<path class="st48" d="M495.5,971.2c-3,0-6,0.8-8.6,2.3c-1.4-2.6-2.2-5.5-2.2-8.5c2.6-1.5,5.5-2.3,8.5-2.3
					C493.2,965.7,494,968.6,495.5,971.2z"/>
			</g>
			<g>
				<path class="st49" d="M510.2,962.7L510.2,962.7c-2.9,0-5.8,0.8-8.3,2.3h-0.2v0.2c-2.5,1.4-4.5,3.5-5.9,6h-0.3
					c-3.1-5.2-3.1-11.8,0-17C501.6,954.2,507.2,957.4,510.2,962.7L510.2,962.7z"/>
				<path class="st49" d="M525,971.2h-0.3c-1.4-2.5-3.5-4.5-5.9-6V965h-0.2c-2.5-1.5-5.4-2.3-8.3-2.3h-0.1c3.1-5.3,8.7-8.5,14.8-8.5
					C528.1,959.4,528.1,966,525,971.2z"/>
				<path class="st49" d="M539.8,979.7c-3.1,5.3-8.7,8.5-14.8,8.6c0-0.1-0.1-0.1-0.1-0.2c1.4-2.5,2.1-5.3,2.1-8.2l0.3-0.2H527
					c0-2.8-0.8-5.6-2.1-8.1v-0.3C531,971.2,536.7,974.4,539.8,979.7z"/>
				<path class="st49" d="M510.2,996.8c-3,5.3-8.6,8.5-14.7,8.5c-3.1-5.2-3.1-11.8,0-17h0.2c1.4,2.5,3.5,4.7,6,6.2l0,0
					C504.3,996,507.2,996.8,510.2,996.8z"/>
				<path class="st49" d="M495.6,988.1v0.2c-6.1,0-11.8-3.3-14.8-8.6c3.1-5.3,8.7-8.5,14.8-8.5v0.3c-1.4,2.5-2.1,5.3-2.1,8.1h-0.3
					c0.1,0.1,0.2,0.1,0.2,0.2C493.5,982.7,494.2,985.5,495.6,988.1z"/>
				<path class="st49" d="M525,1005.3c-6.1,0-11.7-3.2-14.7-8.5c3,0,5.9-0.8,8.4-2.3h0.1c2.5-1.5,4.6-3.7,6-6.2h0.2
					C528.1,993.6,528.1,1000,525,1005.3z"/>
			</g>
			<polygon class="st50" points="520.9,973.6 520.9,985.9 510.3,992 499.6,985.9 499.6,973.6 510.3,967.5 			"/>
		</g>
		<g id="vishuddhi">
			<g>
				<path class="st51" d="M539.6,838.1c-2.3,3.9-6,6.7-10.3,7.8c1.1,2,1.8,4.1,2.1,6.3l0,0c0.3,2.2,0.2,4.4-0.4,6.5
					c-4.4,1.2-9,0.5-12.9-1.7c-1.1,4.4-4,8.1-7.9,10.3c-3.9-2.2-6.7-5.9-7.8-10.3c-3.9,2.2-8.5,2.8-12.9,1.7
					c-0.6-2.1-0.7-4.3-0.4-6.5l0,0c0.3-2.2,1-4.4,2.1-6.3c-4.3-1.1-8.1-3.9-10.3-7.8c1.1-2,2.6-3.7,4.4-5c1.7-1.4,3.7-2.4,5.9-2.9
					c-2.3-3.9-2.9-8.5-1.7-12.9c4.4-1.1,9-0.5,12.9,1.7c1.1-4.3,3.9-8.1,7.8-10.3c3.9,2.2,6.8,5.9,7.9,10.3
					c3.9-2.2,8.5-2.8,12.9-1.7c1.2,4.4,0.5,9-1.7,12.9l0,0C533.6,831.4,537.3,834.2,539.6,838.1L539.6,838.1z"/>
				<g>
					<path class="st52" d="M537.3,826.8c-0.3,2.2-1,4.4-2.1,6.3c-1.8-1.4-3.8-2.3-5.9-2.9c1.1-2,1.8-4.1,2.1-6.3
						C533.5,824.5,535.5,825.5,537.3,826.8z"/>
					<path class="st52" d="M521.5,811c1.3,1.8,2.3,3.8,2.9,5.9c-2.2,0.3-4.3,1-6.3,2.1c-0.5-2.2-1.5-4.2-2.9-5.9
						C517.1,812,519.3,811.2,521.5,811z"/>
					<path class="st52" d="M505.3,813.1c-1.4,1.7-2.4,3.7-2.9,5.9c-2-1.1-4.1-1.8-6.3-2.1c0.6-2.1,1.6-4.1,2.9-5.9
						C501.2,811.3,503.4,812,505.3,813.1z"/>
					<path class="st52" d="M502.4,857.1c0.5,2.2,1.5,4.2,2.9,5.9c-1.9,1.1-4.1,1.9-6.3,2.2c-1.3-1.8-2.3-3.8-2.9-6
						C498.3,858.9,500.4,858.2,502.4,857.1z"/>
					<path class="st52" d="M491.2,830.2c-2.2,0.5-4.2,1.5-5.9,2.9c-1.1-1.9-1.9-4.1-2.2-6.3c1.8-1.3,3.8-2.3,6-2.9
						C489.4,826.1,490.1,828.3,491.2,830.2z"/>
					<path class="st52" d="M524.4,859.2c-0.6,2.2-1.6,4.2-2.9,6c-2.2-0.3-4.4-1.1-6.3-2.2c1.4-1.7,2.4-3.7,2.9-5.9
						C520.1,858.2,522.2,858.9,524.4,859.2z"/>
					<path class="st52" d="M491.2,845.9c-1.1,1.9-1.8,4.1-2.1,6.3c-2.2-0.6-4.2-1.6-6-2.9c0.3-2.2,1.1-4.4,2.2-6.3
						C487,844.4,489,845.4,491.2,845.9z"/>
					<path class="st52" d="M537.3,849.3c-1.8,1.3-3.8,2.3-5.9,2.9c-0.3-2.2-1-4.3-2.1-6.3c2.2-0.5,4.2-1.5,5.9-2.9
						C536.3,844.9,537,847.1,537.3,849.3z"/>
				</g>
			</g>
			<ellipse transform="matrix(0.7071 -0.7071 0.7071 0.7071 -443.1203 606.2302)" cx="510.2" cy="838" rx="16.9" ry="16.9"/>
			<path class="st53" d="M513.7,848.5c5.8-2,8.8-8.4,6.8-14.1c-0.6-1.7-1.6-3.3-3-4.6c-7-6-17.7-1.5-18.2,7.5
				c-0.4,5,2.7,9.6,7.4,11.2C509,849,511.4,849,513.7,848.5z"/>
		</g>
		<g id="ajna">
			<path class="st54" d="M501.8,681.7c-11,6.4-11.2,22.6-0.1,29.3c8,4.7,18.3,2,23-6c1.5-2.6,2.3-5.6,2.3-8.6
				C527,683.1,512.8,675.1,501.8,681.7z"/>
			<g>
				<path class="st55" d="M501.8,681.7c-8.1,4.8-10.8,15.2-6.1,23.3c1.4,2.4,3.4,4.5,5.9,5.9l-0.3,0.4c-9.1,6.7-17.3-3.3-20.6-15
					C484.1,684.4,492.6,674.3,501.8,681.7z"/>
				<path class="st55" d="M518.7,681.7c9.1-7.4,17.6,2.5,21.1,14.6c-3.4,11.6-11.6,21.7-20.7,15l-0.2-0.4c8-4.9,10.6-15.3,5.7-23.3
					C523.2,685.1,521.1,683.1,518.7,681.7z"/>
			</g>
		</g>
	</g>
</g>
</svg>
