<svg id="yantra" xmlns="http://www.w3.org/2000/svg" xmlns:xlink="http://www.w3.org/1999/xlink"
  viewBox="0 0 1020.5 1587.4">
  <defs>
    <style>
      * {
        transition: opacity 300ms ease;
        cursor: pointer;
      }
      .active, .active * {
        opacity: 1 !important;
      }

      .has-active :not(.active):not(g) {
        opacity: 0.05;
      }

      .cls-1 {
        fill: #f2fafe;
      }

      .cls-2 {
        fill: #f36b21;
      }

      .cls-3 {
        fill: #fba919;
      }

      .cls-4 {
        fill: #fbee3f;
      }

      .cls-5 {
        fill: #d1d3d4;
      }

      .cls-27,
      .cls-39,
      .cls-40,
      .cls-6 {
        fill: #fff;
      }

      .cls-7 {
        fill: #292928;
      }

      .cls-32,
      .cls-8 {
        fill: #939598;
      }

      .cls-9 {
        fill: url(#linear-gradient);
      }

      .cls-10 {
        fill: url(#linear-gradient-2);
      }

      .cls-11 {
        fill: #b3b3b2;
      }

      .cls-12 {
        fill: #bdaf9f;
      }

      .cls-13 {
        fill: #7d989e;
      }

      .cls-14 {
        fill: #fcf8c4;
      }

      .cls-15 {
        fill: #7453a2;
      }

      .cls-16 {
        fill: #7b73b5;
      }

      .cls-17 {
        fill: #82addc;
      }

      .cls-18 {
        fill: #8ad5ee;
      }

      .cls-19 {
        fill: #78d0e7;
      }

      .cls-20 {
        fill: #65c8d0;
      }

      .cls-21 {
        fill: #7fc78b;
      }

      .cls-22 {
        fill: #4bb862;
      }

      .cls-23 {
        fill: #ef4526;
      }

      .cls-24 {
        fill: #f37224;
      }

      .cls-25 {
        fill: #f99f20;
      }

      .cls-26 {
        fill: #ffc61b;
      }

      .cls-27 {
        opacity: 0.75;
      }

      .cls-28 {
        fill: #56b29d;
      }

      .cls-29 {
        fill: #8ac762;
      }

      .cls-30 {
        fill: #c5c760;
      }

      .cls-31 {
        fill: #ed9327;
      }

      .cls-32,
      .cls-36,
      .cls-40 {
        opacity: 0.5;
      }

      .cls-33 {
        fill: #443414;
      }

      .cls-34 {
        fill: #77401a;
      }

      .cls-35 {
        fill: #ad4d25;
      }

      .cls-36,
      .cls-43 {
        fill: #231f20;
      }

      .cls-37 {
        fill: #edea5f;
      }

      .cls-38 {
        fill: #878bc4;
      }

      .cls-39 {
        opacity: 0.25;
      }

      .cls-41 {
        fill: #ed1e2d;
      }

      .cls-42 {
        fill: #fedd00;
      }

      .cls-44 {
        fill: #e4f5fd;
      }

      .cls-45 {
        fill: #ec8223;
      }

      .cls-46 {
        fill: #ffcc57;
      }

      .cls-47 {
        fill: #fdee0a;
      }

      .cls-48 {
        fill: #ed2024;
      }

      .cls-49 {
        fill: #1fb24b;
      }

      .cls-50 {
        fill: #84c669;
      }

      .cls-51 {
        fill: #bce4e8;
      }

      .cls-52 {
        fill: #80b9e5;
      }

      .cls-53 {
        fill: #5b87c5;
      }

      .cls-54 {
        fill: #3e59a8;
      }

      .cls-55 {
        fill: #eaeaea;
      }

      .cls-56 {
        fill: #a47eb9;
      }
    </style>
    <linearGradient id="linear-gradient" x1="225.67" y1="485.4" x2="510.23" y2="485.4" gradientUnits="userSpaceOnUse">
      <stop offset="0" stop-color="#39c6f4" />
      <stop offset="0.01" stop-color="#3dc7f4" />
      <stop offset="0.15" stop-color="#70d6f7" />
      <stop offset="0.29" stop-color="#9ce2f9" />
      <stop offset="0.43" stop-color="#c0edfb" />
      <stop offset="0.57" stop-color="#dbf5fd" />
      <stop offset="0.71" stop-color="#effafe" />
      <stop offset="0.86" stop-color="#fbfeff" />
      <stop offset="1" stop-color="#fff" />
    </linearGradient>
    <linearGradient id="linear-gradient-2" x1="794.79" y1="485.4" x2="510.23" y2="485.4" gradientUnits="userSpaceOnUse">
      <stop offset="0" stop-color="#f38dba" />
      <stop offset="0.07" stop-color="#f59cc3" />
      <stop offset="0.25" stop-color="#f8c0d9" />
      <stop offset="0.44" stop-color="#fbdbea" />
      <stop offset="0.62" stop-color="#fdeff5" />
      <stop offset="0.81" stop-color="#fffbfd" />
      <stop offset="1" stop-color="#fff" />
    </linearGradient>
  </defs>
  <title>santana-web</title>
  <g id="aham">
    <rect id="paramashiva" class="cls-1" width="1020.5" height="1587.4" />
    <path id="sadakhya" class="cls-2"
      d="M510.2,556.2c214.8,0,403.3-112.1,510.3-281V0H0V275.2C107,444.1,295.5,556.2,510.2,556.2Z"
      />
    <path id="ishvara" class="cls-3"
      d="M510.2,350.7c193.7,0,350.7-157,350.7-350.7H159.5C159.5,193.7,316.5,350.7,510.2,350.7Z"
      />
    <path id="sadashiva" class="cls-4"
      d="M510.2,199.6c110.3,0,199.7-89.3,199.7-199.6H310.6C310.6,110.3,400,199.6,510.2,199.6Z"
      />
    <path id="shakti" class="cls-5" d="M410.4,172.9a198.8,198.8,0,0,0,99.8,26.7,198.9,198.9,0,0,0,99.9-26.7L510.2,0Z"
      />
    <polygon id="shiva" class="cls-6" points="610.5 173.6 510.2 0 410 173.6 610.5 173.6" />
    <path id="maya" class="cls-7"
      d="M510.2,556.2C295.5,556.2,107,444.1,0,275.2V1587.4H1020.5V275.2C913.5,444.1,725,556.2,510.2,556.2Z"
      />
    <path id="prakriti" class="cls-8"
      d="M510.2,769.4C240.8,769.4,20,561.2,0,296.8V1587.4H1020.5V296.8C1000.5,561.2,779.7,769.4,510.2,769.4Z"
      />
    <g id="kanchuka">
      <path id="niyati" class="cls-9"
        d="M225.7,485a370,370,0,0,0,52.4,53.1,365.1,365.1,0,0,0,232.1,82.2V350.5C403.8,350.2,298.2,396.1,225.7,485Z"
        />
      <path id="kaala" class="cls-10"
        d="M741.4,433.2a366.1,366.1,0,0,0-231.2-82.7V620.3c106.5-.2,212.2-46.5,284.6-135.3C779.4,466.2,761,449.2,741.4,433.2Z"
        />
      <path id="raga" class="cls-11" d="M375.3,485.6A135,135,0,1,0,510.2,350.7,134.9,134.9,0,0,0,375.3,485.6Z"
        />
      <path id="vidya" class="cls-12"
        d="M794.8,485c-15.4-18.8-33.8-35.8-53.4-51.8C584.5,305.2,353.6,328.1,225.7,485c0-157.1,127.4-283.9,284.5-283.9S794.8,327.9,794.8,485Z"
        />
      <path id="kalaa" class="cls-13"
        d="M225.7,485a370,370,0,0,0,52.4,53.1C435,666,666.8,641.9,794.8,485c0,157.2-127.4,285.2-284.6,285.2S225.7,642.2,225.7,485Z"
        />
    </g>
    <path id="purusha" class="cls-14" d="M580.8,485.6a70.6,70.6,0,1,1-70.6-70.5A70.6,70.6,0,0,1,580.8,485.6Z"
      />
    <g id="ham">
      <path id="akasha" class="cls-15"
        d="M0,655.5v931.9H1020.5V655.5C865.9,729,692.9,770.2,510.2,770.2S154.6,729,0,655.5Z"
        />
      <path id="shabda" class="cls-16"
        d="M468,770.2c-752.9-33.5-352.6,1014,42.2,735.5,394.8,278.5,795.2-769,42.3-735.5Z" />
      <path id="vaak" class="cls-17" d="M468,770.2c-603,52.1-224.5,873.9,42.2,735.5,266.8,138.4,645.2-683.4,42.3-735.5Z"
        />
      <path id="shrotra" class="cls-18"
        d="M468,770.2c-158.9,27.9-234.8,208.4-222.6,385.6,7.3,106.1,37.4,153,56.9,186.9,43.7,63,124.3,140.2,207.9,163,83.6-22.8,164.3-100,208-163,19.5-33.9,55.1-93.5,56.9-186.9,15.5-177-63.8-357.7-222.6-385.6Z"
        />
    </g>
    <g id="yam">
      <path id="vayu" class="cls-19"
        d="M0,871.4v716H1020.5v-716a3462.2,3462.2,0,0,1-510.3,37.7A3460.9,3460.9,0,0,1,0,871.4Z"
        />
      <path id="sparsha" class="cls-20"
        d="M119.4,887.1c-222.3,257.9,85.9,833.7,390.8,618.6,304.9,215.1,613.1-360.7,390.9-618.6a3479.4,3479.4,0,0,1-390.9,22A3477.6,3477.6,0,0,1,119.4,887.1Z"
        />
      <path id="pani" class="cls-21"
        d="M202.7,895.5C24.3,1134.1,301.4,1614,510.2,1505.7,719,1614,996.2,1134.1,817.7,895.5q-152,13.5-307.5,13.6T202.7,895.5Z"
        />
      <path id="tvak" class="cls-22"
        d="M293.9,902.4c-39.6,71.5-54.7,162.8-48.5,253.4,7.3,106.1,37.4,153,56.9,186.9,43.7,63,124.3,140.2,207.9,163,83.6-22.8,164.3-100,208-163,19.5-33.9,55.1-93.5,56.9-186.9,7.9-90.5-8.9-181.9-48.5-253.4q-107.4,6.6-216.4,6.7T293.9,902.4Z"
        />
    </g>
    <g id="ram">
      <rect id="agni" class="cls-23" y="1053.3" width="1020.5" height="534.12" />
      <path id="rupa" class="cls-24"
        d="M47.5,1053.3c-38,275.5,213.5,628.2,462.7,452.4C759.5,1681.5,1011,1328.8,973,1053.3Z"
        />
      <path id="pada" class="cls-25"
        d="M146.6,1053.3c-18.7,243,194.8,540,363.6,452.4,168.8,87.6,382.4-209.4,363.6-452.4Z"
        />
      <path id="cakshus" class="cls-26"
        d="M247,1053.3c-4.1,33.5-4,68-1.6,102.5,7.3,106.1,37.4,153,56.9,186.9,43.7,63,124.3,140.2,207.9,163,83.6-22.8,164.3-100,208-163,19.5-33.9,55.1-93.5,56.9-186.9a500.8,500.8,0,0,0-1.6-102.5Z"
        />
    </g>
    <polyline id="buddhi" class="cls-27" points="840.2 1262.6 510.2 697.1 180.3 1262.6" />
    <g id="vam">
      <path id="apas" class="cls-28"
        d="M1020.5,1367.9c-141.8-108.3-318.6-172.6-510.3-172.6S141.8,1259.6,0,1367.9v219.5H1020.5Z"
        />
      <path id="rasa" class="cls-29"
        d="M510.2,1195.3A836.7,836.7,0,0,0,85.5,1310.5c77.6,184.6,251.7,317.2,424.7,195.2,173.1,122,347.1-10.6,424.7-195.2A836.5,836.5,0,0,0,510.2,1195.3Z"
        />
      <path id="upastha" class="cls-30"
        d="M510.2,1195.3a837.7,837.7,0,0,0-329.9,67.3c64.9,171,208.9,305.9,329.9,243.1,121.1,62.8,265.1-72.1,330-243.1A838.2,838.2,0,0,0,510.2,1195.3Z"
        />
      <path id="jihva" class="cls-31"
        d="M510.2,1195.3a839.3,839.3,0,0,0-254.4,39.3c12.5,53.6,32.7,84.1,46.5,108.1,43.7,63,124.3,140.2,207.9,163,83.6-22.8,164.3-100,208-163,13.3-23.1,34.1-58.3,46.6-108.1A840.6,840.6,0,0,0,510.2,1195.3Z"
        />
    </g>
    <polyline id="manas" class="cls-32" points="757.1 1410.1 510.2 982.5 262.1 1408.6" />
    <g id="lam">
      <path id="prithivi" class="cls-33"
        d="M125.3,1587.4H895.2C834.4,1434.3,685,1326,510.2,1326S186,1434.3,125.3,1587.4Z" />
      <path id="gandha" class="cls-34"
        d="M826.3,1472.6C750.4,1383,637,1326,510.2,1326s-240.1,57-316.1,146.6c87.1,83.2,201.9,113.7,316.1,33.1C624.5,1586.3,739.2,1555.8,826.3,1472.6Z"
        />
      <path id="payu" class="cls-35"
        d="M510.2,1326a412.7,412.7,0,0,0-248.1,82.6c71.7,90.4,165.3,140.1,248.1,97.1,82.9,43,176.5-6.7,248.2-97.1A412.8,412.8,0,0,0,510.2,1326Z"
        />
      <path id="ghrana" class="cls-2"
        d="M697.2,1370.5a415,415,0,0,0-373.9,0c46,56.3,115.4,115.7,186.9,135.2C581.8,1486.2,651.2,1426.8,697.2,1370.5Z"
        />
    </g>
    <path id="ahankara" class="cls-36" d="M607.3,1337.5a415.7,415.7,0,0,0-194.2,0l97.1,168.2Z"
      />
    <g id="nadi">
      <path id="pingala" class="cls-37"
        d="M539.2,1332.3c3.3-33.4-10.6-51.3-33.2-66-151.8-98.8,29.2-155,68.4-184.9,129.3-98.5-221.2-80.3-209.6-182.8,5.3-45.9,84.5-64.3,130.7-67.6,14.6-1,30.9-.7,59-7.2,105.3-24.3,219.7-104.3-.3-124.6L544,698.1a1.1,1.1,0,0,1,.1-2.1c272.3-3.4,123.9,148.2-37,156.1-113.3,5.6-188.4,59.6-38.8,110,36.4,12.3,204.2,41.6,130,115.7-49.3,49.3-200.6,73.9-119.6,157.8,28.5,29.5,104.6,50.5,43.6,155a187.3,187.3,0,0,1-11.2,17.2,1,1,0,0,1-1.7-1.2S535.3,1371.1,539.2,1332.3Z"
        />
      <path id="ida" class="cls-38"
        d="M498.2,1390.6c-80.2-137.6,78.5-129.7,64.4-206-11.7-63-147.1-72.1-157.8-136.2-7.3-43.9,66.9-63.8,108.9-74.9,157.9-41.8,171.8-104.9-10.7-122C382.1,840.1,236.1,730.2,394.5,701c39.8-7.3,121.7-7.3,61.8-.7-218.4,23.9-77.4,103.4,9.8,123.5,38.2,8.9,157.5,4.1,185.8,61.9,54.2,110.8-338.2,94.8-205.8,195.7,45,34.3,93.1,39.7,117.7,81.1,7.7,13,10.6,27.7,6.3,42.6-19.1,67.6-137.3,59.8-69.5,184.2,9.5,17.5,12,17.5,10.3,18.7S499.1,1392.2,498.2,1390.6Z"
        />
      <g id="sushumna">
        <rect class="cls-39" x="500.3" y="770.2" width="19.8" height="636.87" rx="1.4" />
        <rect class="cls-39" x="503.1" y="697.1" width="14.2" height="566.28" rx="1.4" />
        <rect class="cls-40" x="506" y="620.6" width="8.5" height="500.85" rx="1.4" />
        <rect class="cls-6" x="508.8" y="556.2" width="2.8" height="424.96" />
      </g>
    </g>
    <g id="chakras">
      <g id="muladhara">
        <g>
          <g>
            <ellipse class="cls-41" cx="500" cy="1395.9" rx="12.2" ry="14.5"
              transform="translate(-840.6 762.4) rotate(-45)" />
            <ellipse class="cls-41" cx="520.5" cy="1416.5" rx="12.2" ry="14.5"
              transform="translate(-849.2 782.9) rotate(-45)" />
          </g>
          <g>
            <ellipse class="cls-41" cx="520.5" cy="1395.9" rx="14.5" ry="12.2"
              transform="translate(-834.6 776.9) rotate(-45)" />
            <ellipse class="cls-41" cx="500" cy="1416.5" rx="14.5" ry="12.2"
              transform="translate(-855.2 768.4) rotate(-45)" />
          </g>
        </g>
        <circle cx="510.2" cy="1406.2" r="16.8" />
        <rect class="cls-42" x="501.8" y="1397.9" width="16.8" height="16.77" />
      </g>
      <g id="svadhisthana">
        <path class="cls-43" d="M518.8,1248.6h0a17.2,17.2,0,0,0-25.7,14.8h0a17.1,17.1,0,1,0,25.7-14.8Z"
          />
        <path class="cls-44"
          d="M517.5,1273.3a12.4,12.4,0,0,1-19.4-12.4c2.8,13,21.3,13.1,24.2,0A12.2,12.2,0,0,1,517.5,1273.3Z"
          />
        <g>
          <path class="cls-45"
            d="M501.7,1248.6a16.9,16.9,0,0,0-8.6,14.8,17.2,17.2,0,0,1-8.4-13.6,4.9,4.9,0,0,1-.1-1.2,17.5,17.5,0,0,1,7-2.3A16.7,16.7,0,0,1,501.7,1248.6Z"
            />
          <path class="cls-45"
            d="M510.2,1233.8a17,17,0,0,1,8.6,14.8h0a16.9,16.9,0,0,0-17.1,0A16.9,16.9,0,0,1,510.2,1233.8Z"
            />
          <path class="cls-45"
            d="M535.9,1278.2a19.4,19.4,0,0,1-4.2,1.7,17,17,0,0,1-7.1.3,17.4,17.4,0,0,1-5.8-2,17.1,17.1,0,0,0,8.5-14.8A17,17,0,0,1,535.9,1278.2Z"
            />
          <path class="cls-45"
            d="M535.9,1248.6a4.9,4.9,0,0,1-.1,1.2,17.3,17.3,0,0,1-8.5,13.6,17,17,0,0,0-8.5-14.8,16.7,16.7,0,0,1,10.1-2.3A18.1,18.1,0,0,1,535.9,1248.6Z"
            />
          <path class="cls-45"
            d="M501.7,1278.2a17.4,17.4,0,0,1-17.1,0,17.1,17.1,0,0,1,8.5-14.8A17.4,17.4,0,0,0,501.7,1278.2Z"
            />
          <path class="cls-45"
            d="M518.8,1278.2a17.2,17.2,0,0,1-8.6,14.8,17.1,17.1,0,0,1-8.5-14.8A17.4,17.4,0,0,0,518.8,1278.2Z"
            />
        </g>
      </g>
      <g id="manipura">
        <path d="M512,1104.6c-16.1-1.9-25,18.9-13,29.6,10.3,9.1,27.2,3.5,28-12.8A17,17,0,0,0,512,1104.6Z"
          />
        <g>
          <g>
            <path class="cls-46"
              d="M517.3,1143.3a17.8,17.8,0,0,1-7.1,7.8,17.6,17.6,0,0,1-7-7.8,18,18,0,0,0,5.3-4.8H512C512.4,1139.4,514.8,1141.8,517.3,1143.3Z"
              />
            <path class="cls-46"
              d="M503.2,1099.9a16.3,16.3,0,0,0-1.5,7,18.6,18.6,0,0,0-2.8,2.1,16.6,16.6,0,0,0-7.1-.8,17.6,17.6,0,0,1,1.1-10.5A17.5,17.5,0,0,1,503.2,1099.9Z"
              />
            <path class="cls-46"
              d="M494.8,1128.3a17.6,17.6,0,0,0-3,6.7,17.5,17.5,0,0,1-9.6-4.3,16.6,16.6,0,0,1,5.3-9.1,17.4,17.4,0,0,0,6.3,3.6A21.5,21.5,0,0,0,494.8,1128.3Z"
              />
            <path class="cls-46"
              d="M538.3,1130.7a17.5,17.5,0,0,1-9.6,4.3,16.7,16.7,0,0,0-3.1-6.7,11.8,11.8,0,0,0,1-3.1,16.3,16.3,0,0,0,6.4-3.6A17.2,17.2,0,0,1,538.3,1130.7Z"
              />
            <path class="cls-46"
              d="M527.6,1097.7a18.6,18.6,0,0,1,1.1,10.5,16.9,16.9,0,0,0-7.2.8,13.9,13.9,0,0,0-2.7-2.1,16.6,16.6,0,0,0-1.5-7A17.5,17.5,0,0,1,527.6,1097.7Z"
              />
          </g>
          <g>
            <path class="cls-47"
              d="M498.9,1109a17.1,17.1,0,0,0-5.1,16.2c-6.1-2.3-10.3-6.4-11.6-12.7A16.8,16.8,0,0,1,498.9,1109Z"
              />
            <path class="cls-47"
              d="M518.8,1106.9a16.7,16.7,0,0,0-17.1,0,17.1,17.1,0,0,1,8.5-14.8A17,17,0,0,1,518.8,1106.9Z"
              />
            <path class="cls-47"
              d="M538.3,1112.5c-1.4,6.4-6.9,11.6-11.7,12.7a15.9,15.9,0,0,0,0-7.2,16.8,16.8,0,0,0-.9-3.2,17.3,17.3,0,0,0-4.2-5.8A17,17,0,0,1,538.3,1112.5Z"
              />
            <path class="cls-47"
              d="M508.5,1138.5c-.8.8-5.7,8-15.6,6.9-3.2-7.2-.3-14.9,1.9-17.1A17.1,17.1,0,0,0,508.5,1138.5Z"
              />
            <path class="cls-47"
              d="M529,1139.9a20.2,20.2,0,0,1-1.4,5.5,16.8,16.8,0,0,1-10.3-2.1,17.1,17.1,0,0,1-5.3-4.8,16.7,16.7,0,0,0,13.6-10.2A16.8,16.8,0,0,1,529,1139.9Z"
              />
          </g>
        </g>
        <polygon class="cls-48" points="521.4 1113.7 510.2 1133.1 499 1113.7 521.4 1113.7" />
      </g>
      <g id="anahata">
        <path class="cls-43"
          d="M524.9,988.1a17.7,17.7,0,0,1-6.2,6.4,16.3,16.3,0,0,1-8.4,2.3h-.1a16.4,16.4,0,0,1-8.5-2.3c-1.1,0-9.5-6.6-8.1-16.9a16.7,16.7,0,0,1,25-12.5C524.9,968.2,530,978.3,524.9,988.1Z"
          />
        <g>
          <path class="cls-49"
            d="M510.2,950.2a17.8,17.8,0,0,1,6.3,6.2,18.1,18.1,0,0,0-6.3,6.3h0a16.1,16.1,0,0,0-6.2-6.2A17.8,17.8,0,0,1,510.2,950.2Z"
            />
          <path class="cls-49"
            d="M535.8,994.5a17.1,17.1,0,0,1-8.5,2.3,17.5,17.5,0,0,0-2.3-8.5,17.4,17.4,0,0,0,8.5-2.3A16.9,16.9,0,0,1,535.8,994.5Z"
            />
          <path class="cls-49"
            d="M535.8,965a17.3,17.3,0,0,1-2.3,8.5,16.4,16.4,0,0,0-8.5-2.3,16.5,16.5,0,0,0,2.3-8.5A16.9,16.9,0,0,1,535.8,965Z"
            />
          <path class="cls-49"
            d="M516.5,1003a17.3,17.3,0,0,1-6.3,6.3,17.8,17.8,0,0,1-6.2-6.3,16.1,16.1,0,0,0,6.2-6.2h.1A16.1,16.1,0,0,0,516.5,1003Z"
            />
          <path class="cls-49"
            d="M495.5,988.3a16.5,16.5,0,0,0-2.3,8.5,17.1,17.1,0,0,1-8.5-2.3A16.9,16.9,0,0,1,487,986,17.4,17.4,0,0,0,495.5,988.3Z"
            />
          <path class="cls-49"
            d="M495.5,971.2a17.8,17.8,0,0,0-8.6,2.3,18.2,18.2,0,0,1-2.2-8.5,16.7,16.7,0,0,1,8.5-2.3A16.9,16.9,0,0,0,495.5,971.2Z"
            />
        </g>
        <g>
          <path class="cls-50"
            d="M510.2,962.7h0a15.7,15.7,0,0,0-8.3,2.3h-.2v.2a16.1,16.1,0,0,0-5.9,6h-.3a16.7,16.7,0,0,1,0-17,16.9,16.9,0,0,1,14.7,8.5Z"
            />
          <path class="cls-50"
            d="M525,971.2h-.3a16.9,16.9,0,0,0-5.9-6V965h-.2a15.7,15.7,0,0,0-8.3-2.3h-.1a17.1,17.1,0,0,1,14.8-8.5A16.7,16.7,0,0,1,525,971.2Z"
            />
          <path class="cls-50"
            d="M539.8,979.7a17.3,17.3,0,0,1-14.8,8.6c0-.1-.1-.1-.1-.2a16.7,16.7,0,0,0,2.1-8.2l.3-.2H527a17.8,17.8,0,0,0-2.1-8.1v-.3A17.1,17.1,0,0,1,539.8,979.7Z"
            />
          <path class="cls-50"
            d="M510.2,996.8a17,17,0,0,1-14.7,8.5,16.7,16.7,0,0,1,0-17h.2a17,17,0,0,0,6,6.2h0A16.4,16.4,0,0,0,510.2,996.8Z"
            />
          <path class="cls-50"
            d="M495.6,988.1v.2a17,17,0,0,1-14.8-8.6,17.1,17.1,0,0,1,14.8-8.5v.3a16.3,16.3,0,0,0-2.1,8.1h-.3c.1.1.2.1.2.2A18.2,18.2,0,0,0,495.6,988.1Z"
            />
          <path class="cls-50"
            d="M525,1005.3a17,17,0,0,1-14.7-8.5,16,16,0,0,0,8.4-2.3h.1a17,17,0,0,0,6-6.2h.2A16.9,16.9,0,0,1,525,1005.3Z"
            />
        </g>
        <polygon class="cls-51"
          points="520.9 973.6 520.9 985.9 510.3 992 499.6 985.9 499.6 973.6 510.3 967.5 520.9 973.6" />
      </g>
      <g id="vishuddhi">
        <g>
          <path class="cls-52"
            d="M539.6,838.1a17,17,0,0,1-10.3,7.8,18,18,0,0,1,2.1,6.3h0a15.8,15.8,0,0,1-.4,6.5,17.1,17.1,0,0,1-12.9-1.7,16.4,16.4,0,0,1-7.9,10.3,16.4,16.4,0,0,1-7.8-10.3,17.2,17.2,0,0,1-12.9,1.7,15.8,15.8,0,0,1-.4-6.5h0a16.2,16.2,0,0,1,2.1-6.3,16.6,16.6,0,0,1-10.3-7.8,15.2,15.2,0,0,1,4.4-5,15.4,15.4,0,0,1,5.9-2.9,17,17,0,0,1-1.7-12.9,17.2,17.2,0,0,1,12.9,1.7,16.6,16.6,0,0,1,7.8-10.3,16.4,16.4,0,0,1,7.9,10.3,17.2,17.2,0,0,1,12.9-1.7,17.1,17.1,0,0,1-1.7,12.9h0a17,17,0,0,1,10.3,7.9Z"
            />
          <g>
            <path class="cls-53"
              d="M537.3,826.8a16.8,16.8,0,0,1-2.1,6.3,16.6,16.6,0,0,0-5.9-2.9,18,18,0,0,0,2.1-6.3A17.1,17.1,0,0,1,537.3,826.8Z"
              />
            <path class="cls-53"
              d="M521.5,811a17.1,17.1,0,0,1,2.9,5.9,18,18,0,0,0-6.3,2.1,15.5,15.5,0,0,0-2.9-5.9A15.7,15.7,0,0,1,521.5,811Z"
              />
            <path class="cls-53"
              d="M505.3,813.1a14.2,14.2,0,0,0-2.9,5.9,18,18,0,0,0-6.3-2.1A17.1,17.1,0,0,1,499,811,16.2,16.2,0,0,1,505.3,813.1Z"
              />
            <path class="cls-53"
              d="M502.4,857.1a14.2,14.2,0,0,0,2.9,5.9,18.2,18.2,0,0,1-6.3,2.2,18.6,18.6,0,0,1-2.9-6A18,18,0,0,0,502.4,857.1Z"
              />
            <path class="cls-53"
              d="M491.2,830.2a15.1,15.1,0,0,0-5.9,2.9,17.6,17.6,0,0,1-2.2-6.3,17.7,17.7,0,0,1,6-2.9A17.4,17.4,0,0,0,491.2,830.2Z"
              />
            <path class="cls-53"
              d="M524.4,859.2a18.6,18.6,0,0,1-2.9,6,17.5,17.5,0,0,1-6.3-2.2,15.5,15.5,0,0,0,2.9-5.9A18,18,0,0,0,524.4,859.2Z"
              />
            <path class="cls-53"
              d="M491.2,845.9a16.2,16.2,0,0,0-2.1,6.3,18.6,18.6,0,0,1-6-2.9,18.1,18.1,0,0,1,2.2-6.3A14.2,14.2,0,0,0,491.2,845.9Z"
              />
            <path class="cls-53"
              d="M537.3,849.3a17.1,17.1,0,0,1-5.9,2.9,18,18,0,0,0-2.1-6.3,14.2,14.2,0,0,0,5.9-2.9A16.2,16.2,0,0,1,537.3,849.3Z"
              />
          </g>
        </g>
        <circle cx="510.2" cy="838" r="16.9" />
        <path class="cls-54"
          d="M513.7,848.5a11.1,11.1,0,0,0,3.8-18.7c-7-6-17.7-1.5-18.2,7.5a11,11,0,0,0,7.4,11.2A16.2,16.2,0,0,0,513.7,848.5Z"
          />
      </g>
      <g id="ajna">
        <path class="cls-55"
          d="M501.8,681.7c-11,6.4-11.2,22.6-.1,29.3A16.8,16.8,0,0,0,527,696.4C527,683.1,512.8,675.1,501.8,681.7Z"
          />
        <g>
          <path class="cls-56"
            d="M501.8,681.7a17,17,0,0,0-.2,29.2l-.3.4c-9.1,6.7-17.3-3.3-20.6-15C484.1,684.4,492.6,674.3,501.8,681.7Z"
            />
          <path class="cls-56"
            d="M518.7,681.7c9.1-7.4,17.6,2.5,21.1,14.6-3.4,11.6-11.6,21.7-20.7,15l-.2-.4A17,17,0,0,0,518.7,681.7Z"
            />
        </g>
      </g>
    </g>
  </g>
</svg>