<?xml version="1.0" encoding="utf-8"?>
<!-- Generator: Adobe Illustrator 24.0.1, SVG Export Plug-In . SVG Version: 6.00 Build 0)  -->
<svg version="1.1" xmlns="http://www.w3.org/2000/svg" xmlns:xlink="http://www.w3.org/1999/xlink" x="0px" y="0px"
	 viewBox="0 0 2000 2000" style="enable-background:new 0 0 2000 2000;" xml:space="preserve">
<style type="text/css">

      * {
        transition: opacity 300ms ease;
        cursor: pointer;
      }
      .active, .active * {
        opacity: 1 !important;
      }

      .has-active :not(.active):not(g) {
        opacity: 0.05;
      }
	.st0{clip-path:url(#SVGID_2_);fill:#160029;}
	.st1{clip-path:url(#SVGID_2_);}
	.st2{fill:#84469B;}
	.st3{fill:#63489D;}
	.st4{fill:#685BA7;}
	.st5{fill:#6085C4;}
	.st6{fill:#57C9E8;}
	.st7{fill:#70C8B9;}
	.st8{fill:#70C38D;}
	.st9{fill:#70C05C;}
	.st10{fill:#F15D22;}
	.st11{fill:#F6851F;}
	.st12{fill:#F8971D;}
	.st13{fill:#FFCE06;}
	.st14{fill:#384A9F;}
	.st15{fill:#0C8899;}
	.st16{fill:#4BAB4D;}
	.st17{fill:#9CA839;}
	.st18{fill:#6D421F;}
	.st19{fill:#994422;}
	.st20{fill:#D04B27;}
	.st21{fill:#CB3D27;}
	.st22{fill:#E3FFFE;}
	.st23{fill:#FFEBF2;}
	.st24{fill:#BFBFBF;}
	.st25{fill:#DFE0D3;}
	.st26{fill:#8498A1;}
	.st27{fill:#F9FFCC;}
	.st28{fill:#91CF75;}
	.st29{fill:#FEE600;}
	.st30{fill:#F78F1E;}
	.st31{fill:#D92529;}
	.st32{fill:#3ABFEF;}
	.st33{opacity:0.5;fill:#FFFFFF;}
	.st34{opacity:0.5;fill:#FFB194;}
	.st35{opacity:0.5;fill:#808080;}
	.st36{display:none;}
	.st37{display:inline;}
	.st38{fill:#FF0D00;}
	.st39{fill:#E2EB00;}
	.st40{opacity:0.5;fill:none;stroke:#FFFB00;stroke-width:8;stroke-linecap:round;stroke-miterlimit:10;}
	.st41{opacity:0.5;fill:none;stroke:#E8E8E8;stroke-width:3;stroke-linecap:round;stroke-miterlimit:10;}
	.st42{fill:none;stroke:#FFFFFF;stroke-width:0.5;stroke-linecap:round;stroke-miterlimit:10;}
	.st43{fill:#BFF0FF;}
	.st44{fill:#DE996D;}
	.st45{fill:#FFA912;}
	.st46{fill:#FFFFFF;}
	.st47{fill:none;stroke:#FFFFFF;stroke-linecap:round;stroke-miterlimit:10;}
	.st48{fill:#FFDC51;}
	.st49{fill:#FFEF1B;}
	.st50{fill:#FFB12B;}
	.st51{fill:#FF2400;}
	.st52{opacity:0.5;fill:none;stroke:#E8E8E8;stroke-width:5;stroke-linecap:round;stroke-miterlimit:10;}
	.st53{fill:none;stroke:#FFFFFF;stroke-width:2;stroke-linecap:round;stroke-miterlimit:10;}
	.st54{fill:#69CF77;}
	.st55{fill:#7EF78E;}
	.st56{fill:#90D6D2;}
	.st57{fill:#D3E8E6;}
	.st58{fill:none;stroke:#FFFFFF;stroke-width:3;stroke-linecap:round;stroke-miterlimit:10;}
	.st59{fill:#50C3DE;}
	.st60{fill:#92EBFF;}
	.st61{fill:#2EB8FF;}
	.st62{fill:#366EFF;}
	.st63{opacity:0.5;fill:none;stroke:#FFFB00;stroke-width:10;stroke-linecap:round;stroke-miterlimit:10;}
	.st64{opacity:0.5;fill:none;stroke:#E8E8E8;stroke-width:7;stroke-linecap:round;stroke-miterlimit:10;}
	.st65{fill:none;stroke:#FFFFFF;stroke-width:5;stroke-linecap:round;stroke-miterlimit:10;}
	.st66{fill:#8AD0FF;}
	.st67{fill:#CCFCFF;}
	.st68{fill:none;stroke:#FFFFFF;stroke-width:6;stroke-linecap:round;stroke-miterlimit:10;}
</style>
<g id="main">
	<g>
		<defs>
			<rect id="SVGID_1_" x="-70" y="-70" width="2140" height="2140"/>
		</defs>
		<clipPath id="SVGID_2_">
			<use xlink:href="#SVGID_1_"  style="overflow:visible;"/>
		</clipPath>
		<polygon id="maya" class="st0" points="2070,2070.11 -70,2070.11 -70,-70.11 192.97,-70.11 2070,-70.11 		"/>
		<g id="pratishthakala" class="st1">
			<g id="ham">
				<path id="akasha" class="st2" d="M1748.26,433.64C1748.26,433.64,1748.26,433.64,1748.26,433.64c-0.04,0.08-0.09,0.15-0.13,0.23
					C1598.72,691.96,1319.67,865.6,1000,865.6c-319.63,0-598.65-173.59-748.07-431.62l-0.19-0.33L0.22,0.21H0.1l-70.01-135.13
					l-1.2,841.63L0.1,752.87l0,325.51v233.85v239.87v224.44V2000h169.16h257.13h1166.13h237.77h169.61v-223.45v-224.44v-175.67
					v-277.32V753.68l70.1-57.53v-819.91L1999.9,0.21h-0.12L1748.26,433.64z"/>
				<path id="shabda" class="st3" d="M1748.26,433.67h-0.01C1598.86,691.87,1319.75,865.6,1000,865.6
					c-319.75,0-598.86-173.72-748.24-431.92h-0.02c-413.44,521.52,0,1719.22,748.26,1289.43
					C1748.26,2152.89,2161.7,955.19,1748.26,433.67z"/>
				<path id="vaak" class="st4" d="M1748.33,433.77c-0.02-0.03-0.05-0.06-0.07-0.09h-0.01C1598.86,691.87,1319.75,865.6,1000,865.6
					c-319.75,0-598.86-173.72-748.24-431.92h-0.02c-0.02,0.02-0.03,0.04-0.05,0.07c-67.84,126.1-61.06,272.13-61.06,427.89
					c0,476.02,362.37,861.47,809.38,861.47s809.38-385.45,809.38-861.47C1809.38,705.9,1816.14,559.85,1748.33,433.77z"/>
				<path id="shrotra" class="st5" d="M1748.24,433.67C1598.86,691.87,1319.75,865.6,1000,865.6
					c-319.75,0-598.86-173.72-748.24-431.92h-0.02C251.75,971.3,552.64,1464.14,1000,1723.1
					c447.36-258.96,748.25-751.8,748.26-1289.42c0,0,0-0.01-0.01-0.01H1748.24z"/>
			</g>
			<g id="yam">
				<path id="vayu" class="st6" d="M1000.65,1037.15c-367.12,0-709.92-104.07-1000.55-284.28l-71.21-46.16l1.11,1363.4h2140V696.15
					l-70.1,57.53C1709.54,933.39,1367.22,1037.15,1000.65,1037.15z"/>
				<path id="sparsha" class="st7" d="M98.89,810.02C17.42,1369.77,401.64,2066.79,1000,1723.1
					c598.12,343.55,982.28-352.79,901.21-912.43c-268.06,144.44-574.71,226.48-900.55,226.48
					C674.32,1037.15,367.23,954.86,98.89,810.02z"/>
				<path id="pani" class="st8" d="M190.62,856.31c0,1.77,0.01,3.54,0.01,5.32c0,476.02,362.37,861.47,809.38,861.47
					s809.38-385.45,809.38-861.47c0-1.57,0-3.14,0.01-4.71c-245.42,115.54-519.5,180.23-808.73,180.23
					C710.91,1037.15,436.37,972.24,190.62,856.31z"/>
				<path id="tvak" class="st9" d="M1665.22,917.63c-206.87,77.23-430.76,119.52-664.57,119.52
					c-234.37,0-458.78-42.49-666.06-120.08c118.72,338.42,357.32,627.69,665.41,806.03
					C1307.92,1544.86,1546.43,1255.81,1665.22,917.63z"/>
			</g>
			<g id="ram">
				<polygon id="agni" class="st10" points="2070,1209.13 114.7,1209.13 0.1,1209.13 -70,1214.02 -70,2070.11 2070,2070.11 				"/>
				<path id="rupa" class="st11" d="M114.7,1209.13c93.62,429.16,426.51,777.49,885.3,513.97
					c458.79,263.52,791.68-84.81,885.3-513.97H114.7z"/>
				<path id="pada" class="st12" d="M1000,1723.1c330.86,0,615.31-211.2,740.81-513.97H259.19
					C384.69,1511.9,669.14,1723.1,1000,1723.1z"/>
				<path id="cakshus" class="st13" d="M1526.03,1209.13H473.97c130.18,211.29,311.2,389.61,526.03,513.97
					C1214.83,1598.74,1395.86,1420.42,1526.03,1209.13z"/>
			</g>
			<g id="vam">
				<path id="apas" class="st14" d="M1999.9,1664.59c-290.36-179.71-632.68-283.47-999.24-283.47
					c-367.12,0-709.92,104.07-1000.55,284.28l-71.21,47.33l1.11,357.38h2140v-372.1L1999.9,1664.59z"/>
				<path id="rasa" class="st15" d="M1000.65,1381.12c-268.21,0-523.42,55.61-754.81,155.81
					c157.33,247.74,422.93,376.43,754.16,186.18c331.43,190.37,597.15,61.42,754.44-186.62
					C1523.31,1436.56,1268.47,1381.12,1000.65,1381.12z"/>
				<path id="upastha" class="st16" d="M1000,1723.1c224.32,0,427.31-97.09,573.9-253.96c-180.89-57.16-373.46-88.03-573.25-88.03
					c-200.17,0-393.08,30.98-574.26,88.35C572.96,1626.15,775.83,1723.1,1000,1723.1z"/>
				<path id="jihva" class="st17" d="M1371.9,1417.44c-120.07-23.79-244.18-36.32-371.24-36.32c-127.45,0-251.94,12.61-372.35,36.55
					c106.46,120.8,231.93,224.53,371.7,305.44C1139.85,1642.15,1265.39,1538.33,1371.9,1417.44z"/>
			</g>
			<g id="lam">
				<path id="prithivi" class="st18" d="M241.93,2000l-39.21,70.11l1578.45-0.11l-25.79-70
					c-147.14-266.43-430.84-446.9-756.72-446.9S389.06,1733.57,241.93,2000z"/>
				<path id="gandha" class="st19" d="M1545.37,1748.11c-148.93-121.87-339.27-195.01-546.72-195.01
					c-206.92,0-396.81,72.78-545.57,194.09c147.5,88.65,333.59,98.45,546.91-24.08C1212.58,1845.21,1398.12,1835.91,1545.37,1748.11
					z"/>
				<path id="payu" class="st20" d="M1361.26,1632.72c-110.27-51.07-233.09-79.62-362.6-79.62c-128.95,0-251.27,28.3-361.17,78.95
					c109.06,58.23,232.18,91.05,362.52,91.05C1129.84,1723.1,1252.51,1690.53,1361.26,1632.72z"/>
				<path id="ghrana" class="st21" d="M1206.67,1578.37c-66.63-16.47-136.29-25.27-208.02-25.27c-70.98,0-139.93,8.62-205.93,24.76
					c64.72,54.12,134.02,102.83,207.28,145.24C1073.03,1680.83,1142.12,1632.29,1206.67,1578.37z"/>
			</g>
		</g>
		<g id="vidyakala" class="st1">
			<path id="kaala" class="st22" d="M251.74,433.64C401.11,691.86,680.24,865.6,1000,865.6V0.16
				C680.24,0.16,401.11,175.42,251.74,433.64z"/>
			<path id="niyati" class="st23" d="M1000,0.16C1000,0.16,1000,0.16,1000,0.16l0,865.44c0,0,0,0,0,0
				c319.76,0,598.89-173.74,748.26-431.96C1598.89,175.42,1319.76,0.16,1000,0.16z"/>
			<path id="raga" class="st24" d="M1200.11,433.4c0,110.52-89.59,200.11-200.11,200.11S799.89,543.92,799.89,433.4
				S889.48,233.3,1000,233.3c52.37,0,100.03,20.11,135.7,53.04C1175.3,322.9,1200.11,375.25,1200.11,433.4z"/>
			<path id="vidya" class="st25" d="M999.7,233.3c272.52,0,528.56,72.94,748.57,200.34C1598.81,175.71,1319.55,0.16,1000,0.16
				c-319.55,0-598.81,175.55-748.26,433.48C471.74,306.24,727.17,233.3,999.7,233.3z"/>
			<path id="kalaa" class="st26" d="M1000,633.51c-272.53,0-528.25-72.46-748.26-199.87C401.11,691.86,680.24,865.6,1000,865.6
				c319.76,0,598.89-173.74,748.26-431.96C1528.25,561.05,1272.53,633.51,1000,633.51z"/>
			<path id="purusha" class="st27" d="M883.89,433.67c0-64.13,51.98-116.11,116.11-116.11c24.05,0,46.39,7.31,64.92,19.83
				c30.89,20.87,51.19,56.2,51.19,96.28c0,64.13-51.98,116.11-116.11,116.11S883.89,497.8,883.89,433.67z"/>
		</g>
		<g id="sukshma" class="st1">
			<path id="anahata" class="st28" d="M1000.65,1037.15c-146.67,0-289.46-16.62-426.59-48.06l127.69,220.04h596.5l127.49-219.7
				C1289.07,1020.64,1146.79,1037.15,1000.65,1037.15z"/>
			<path id="manipura" class="st29" d="M1192.86,1390.76l105.4-181.62h-596.5l105.47,181.75c63.6-6.45,128.13-9.77,193.44-9.77
				C1065.54,1381.12,1129.65,1384.39,1192.86,1390.76z"/>
			<path id="svadhisthana" class="st30" d="M1095.51,1558.51l97.37-167.79c-63.21-6.35-127.34-9.61-192.22-9.61
				c-65.31,0-129.85,3.3-193.46,9.73l97.13,167.39c30.98-3.38,62.45-5.13,94.33-5.13C1031.4,1553.1,1063.71,1554.95,1095.51,1558.51
				z"/>
			<path id="muladhara" class="st31" d="M1000,1723.1l95.5-164.57c-31.8-3.55-64.1-5.43-96.84-5.43
				c-31.88,0-63.34,1.78-94.32,5.15L1000,1723.1z"/>
			<path id="vishuddhi" class="st32" d="M1000,865.6c-319.44,0-598.32-173.39-747.81-431.17l321.87,554.67
				c137.13,31.44,279.92,48.06,426.59,48.06c146.14,0,288.41-16.51,425.09-47.72l322.22-555.27
				C1598.51,692.09,1319.55,865.6,1000,865.6z"/>
			<g id="antahkarana">
				<polygon id="buddhi" class="st33" points="740.12,1228.9 1259.88,1228.9 1000.02,776.1 				"/>
				<polygon id="ahankara" class="st34" points="834.11,1390.88 1000.02,1037.15 1165.91,1390.88 				"/>
				<polygon id="manas" class="st35" points="867.49,1422.78 1000.01,1600.81 1132.51,1425.11 				"/>
			</g>
		</g>
	</g>
</g>
<g id="pointer" class="st36">
</g>
<g id="chakras" class="st36">
	<g id="mula" class="st37">
		<g id="mula-ch">
			<g>
				<g>
					<g>

							<ellipse transform="matrix(0.7071 -0.7071 0.7071 0.7071 -855.9123 1162.5464)" class="st38" cx="975.36" cy="1614.45" rx="29.28" ry="34.85"/>

							<ellipse transform="matrix(0.7071 -0.7071 0.7071 0.7071 -876.3245 1211.8258)" class="st38" cx="1024.64" cy="1663.73" rx="29.28" ry="34.85"/>
					</g>
					<g>

							<ellipse transform="matrix(0.7071 -0.7071 0.7071 0.7071 -841.4786 1197.3922)" class="st38" cx="1024.64" cy="1614.45" rx="34.85" ry="29.28"/>

							<ellipse transform="matrix(0.7071 -0.7071 0.7071 0.7071 -890.7581 1176.98)" class="st38" cx="975.36" cy="1663.73" rx="34.85" ry="29.28"/>
					</g>
				</g>
				<circle class="st19" cx="1000" cy="1639.09" r="40.23"/>
			</g>
			<rect x="979.84" y="1619.22" class="st39" width="40.23" height="40.23"/>
		</g>
		<g>
			<line class="st40" x1="1000" y1="1466.55" x2="1000" y2="1639.09"/>
			<line class="st41" x1="1000" y1="1466.55" x2="1000" y2="1639.09"/>
			<line class="st42" x1="1000" y1="1466.55" x2="1000" y2="1639.09"/>
		</g>
		<g>
			<g>
				<path class="st43" d="M999.32,1639.6c-5.31-6.27-10.12-12.89-14.65-19.75c-4.52-6.86-8.68-13.98-12.5-21.34
					c-3.75-7.38-7.14-14.99-10.01-22.88c-2.76-7.92-5.05-16.09-6.48-24.54c-1.41-8.43-2.42-17.14-1.99-26.04
					c0.26-4.43,0.8-8.91,1.95-13.28c1.13-4.37,2.74-8.64,4.77-12.68c0.54-1,1.06-2,1.61-2.99l1.75-2.9c0.6-0.96,1.27-1.86,1.91-2.79
					c0.63-0.93,1.31-1.83,2.02-2.69c2.77-3.52,5.88-6.73,9.27-9.54c1.65-1.45,3.45-2.71,5.21-3.98c1.84-1.18,3.63-2.38,5.55-3.37
					c0.96-0.5,1.89-1.02,2.86-1.49c0.98-0.44,1.95-0.89,2.94-1.3c1.94-0.87,4.01-1.5,6.03-2.14c0.46-0.15,0.96,0.11,1.11,0.57
					c0.09,0.29,0.02,0.6-0.16,0.82l-0.03,0.03c-5.38,6.47-10.5,12.48-14.6,18.91c-1.08,1.56-1.99,3.22-2.98,4.79
					c-0.87,1.66-1.84,3.23-2.62,4.9c-0.85,1.62-1.59,3.29-2.32,4.95l-1.05,2.5l-0.93,2.54c-2.41,6.78-4.24,13.69-5.55,20.94
					c-0.66,3.62-1.16,7.33-1.37,11.1c-0.22,3.77-0.15,7.59,0.12,11.42c0.57,7.66,1.95,15.36,3.82,22.98
					c1.82,7.65,4.19,15.24,6.97,22.71c2.72,7.5,5.9,14.87,9.36,22.14c1.73,3.64,3.54,7.24,5.44,10.8c1.88,3.57,3.84,7.13,5.94,10.56
					l0.01,0.02c0.25,0.4,0.12,0.93-0.28,1.17C1000.05,1639.99,999.59,1639.91,999.32,1639.6z"/>
			</g>
			<g>
				<path class="st44" d="M999.32,1638.58c2.1-3.43,4.06-6.99,5.94-10.56c1.9-3.56,3.71-7.17,5.44-10.8
					c3.46-7.27,6.63-14.64,9.36-22.14c2.78-7.47,5.14-15.06,6.97-22.71c1.87-7.63,3.25-15.32,3.82-22.98
					c0.27-3.83,0.34-7.65,0.12-11.42c-0.21-3.77-0.7-7.48-1.37-11.1c-1.31-7.26-3.14-14.16-5.55-20.94l-0.93-2.54l-1.05-2.5
					c-0.73-1.66-1.47-3.33-2.32-4.95c-0.78-1.67-1.75-3.24-2.62-4.9c-0.99-1.57-1.91-3.23-2.98-4.79
					c-4.1-6.44-9.22-12.44-14.6-18.91l-0.02-0.03c-0.31-0.37-0.26-0.93,0.11-1.24c0.24-0.2,0.55-0.25,0.83-0.16
					c2.02,0.64,4.09,1.26,6.03,2.14c0.99,0.41,1.96,0.86,2.94,1.3c0.97,0.47,1.9,0.99,2.86,1.49c1.92,0.99,3.71,2.2,5.55,3.37
					c1.76,1.27,3.56,2.53,5.21,3.98c3.39,2.8,6.5,6.02,9.27,9.54c0.72,0.87,1.39,1.76,2.02,2.69c0.63,0.93,1.31,1.83,1.91,2.79
					l1.75,2.9c0.55,0.99,1.07,1.99,1.61,2.99c2.03,4.05,3.64,8.31,4.77,12.68c1.15,4.37,1.69,8.85,1.95,13.28
					c0.43,8.9-0.59,17.6-1.99,26.04c-1.44,8.45-3.73,16.62-6.48,24.54c-2.87,7.89-6.26,15.5-10.01,22.88
					c-3.82,7.35-7.97,14.48-12.5,21.34c-4.53,6.86-9.34,13.48-14.65,19.75c-0.3,0.36-0.84,0.4-1.2,0.1
					c-0.32-0.28-0.39-0.74-0.18-1.09L999.32,1638.58z"/>
			</g>
		</g>
	</g>
	<g id="sva" class="st37">
		<g>
			<g>
				<path class="st44" d="M999.51,1467.37c-16.97-9.31-33.3-20.16-47.66-33.92c-3.54-3.49-6.99-7.11-10.16-11.05
					c-3.17-3.92-6.2-8.04-8.8-12.51c-5.15-8.92-8.92-19.14-9.8-30.02c-0.94-10.85,0.93-22.07,5.06-32.12
					c4.17-10.07,10.7-18.78,18.27-25.85c7.58-7.1,16.05-12.88,24.96-17.54c4.47-2.31,9.05-4.36,13.75-6.06
					c4.7-1.7,9.51-3.13,14.48-3.97c0.51-0.09,0.99,0.26,1.08,0.76c0.06,0.34-0.08,0.66-0.32,0.87c-7.53,6.4-14.83,12.53-21.75,18.86
					c-6.91,6.31-13.44,12.79-19.23,19.56c-2.91,3.37-5.63,6.82-8.17,10.3c-2.53,3.49-4.91,7.03-6.96,10.71
					c-4.09,7.32-6.84,15.41-6.77,23.85c-0.05,8.41,2.19,16.98,6,25.08c3.76,8.14,8.98,15.85,14.96,23.03
					c11.96,14.45,26.71,26.91,42.04,38.53c0.4,0.3,0.48,0.86,0.18,1.26C1000.39,1467.48,999.89,1467.58,999.51,1467.37z"/>
			</g>
			<g>
				<path class="st43" d="M999.52,1465.86c15.33-11.62,30.07-24.08,42.04-38.53c5.99-7.17,11.21-14.88,14.96-23.03
					c3.8-8.1,6.05-16.66,6-25.08c0.07-8.44-2.68-16.53-6.77-23.85c-2.05-3.68-4.43-7.22-6.96-10.71c-2.54-3.49-5.26-6.93-8.17-10.3
					c-5.8-6.77-12.32-13.25-19.23-19.56c-6.92-6.34-14.21-12.46-21.75-18.86c-0.39-0.33-0.45-0.92-0.11-1.31
					c0.22-0.26,0.56-0.37,0.87-0.32c4.97,0.84,9.77,2.28,14.48,3.97c4.71,1.7,9.28,3.76,13.75,6.06
					c8.91,4.66,17.38,10.44,24.96,17.54c7.57,7.07,14.1,15.78,18.27,25.85c4.13,10.06,6,21.28,5.06,32.12
					c-0.88,10.88-4.64,21.11-9.8,30.02c-2.6,4.47-5.63,8.59-8.8,12.51c-3.16,3.94-6.62,7.56-10.16,11.05
					c-14.36,13.76-30.7,24.61-47.66,33.92c-0.44,0.24-0.99,0.08-1.23-0.36C999.05,1466.61,999.17,1466.12,999.52,1465.86z"/>
			</g>
		</g>
		<g id="sva-ch">
			<g>
				<g>
					<g>

							<ellipse transform="matrix(0.5 -0.866 0.866 0.5 -770.15 1634.2484)" class="st45" cx="1030.23" cy="1484.09" rx="20.11" ry="34.85"/>

							<ellipse transform="matrix(0.5 -0.866 0.866 0.5 -770.15 1564.5568)" class="st45" cx="969.87" cy="1449.25" rx="20.11" ry="34.85"/>
					</g>
					<g>
						<ellipse class="st45" cx="1000.05" cy="1501.52" rx="20.11" ry="34.85"/>
						<ellipse class="st45" cx="1000.05" cy="1431.82" rx="20.11" ry="34.85"/>
					</g>
					<g>

							<ellipse transform="matrix(0.866 -0.5 0.5 0.866 -612.1089 683.7665)" class="st45" cx="969.87" cy="1484.09" rx="34.85" ry="20.11"/>

							<ellipse transform="matrix(0.866 -0.5 0.5 0.866 -586.6 709.2755)" class="st45" cx="1030.23" cy="1449.25" rx="34.85" ry="20.11"/>
					</g>
					<g>

							<ellipse transform="matrix(0.5 -0.866 0.866 0.5 -770.15 1564.5568)" class="st45" cx="969.87" cy="1449.25" rx="20.11" ry="34.85"/>

							<ellipse transform="matrix(0.5 -0.866 0.866 0.5 -770.15 1634.2484)" class="st45" cx="1030.23" cy="1484.09" rx="20.11" ry="34.85"/>
					</g>
					<g>
						<ellipse class="st45" cx="1000.05" cy="1431.82" rx="20.11" ry="34.85"/>
						<ellipse class="st45" cx="1000.05" cy="1501.52" rx="20.11" ry="34.85"/>
					</g>
				</g>
				<circle class="st15" cx="1000.05" cy="1466.67" r="40.23"/>
			</g>
			<path class="st46" d="M1000,1483.95c-14.02,0-25.71-9.94-28.43-23.15c-0.39,1.9-0.59,3.86-0.59,5.87
				c0,16.03,12.99,29.02,29.02,29.02s29.02-12.99,29.02-29.02c0-2.01-0.21-3.97-0.59-5.87
				C1025.71,1474.02,1014.02,1483.95,1000,1483.95z"/>
		</g>
		<g>
			<line class="st40" x1="1000" y1="1295.03" x2="1000" y2="1466.55"/>
			<line class="st41" x1="1000" y1="1295.03" x2="1000" y2="1466.55"/>
			<line class="st47" x1="1000" y1="1295.03" x2="1000" y2="1466.55"/>
		</g>
	</g>
	<g id="mani" class="st37">
		<g>
			<g>
				<path class="st44" d="M999.6,1294.26c11.52-6,22.94-12.05,34.09-18.54c11.15-6.47,22.07-13.28,32.45-20.72
					c10.39-7.38,20.33-15.37,28.83-24.34c4.24-4.45,8.19-9.13,11.23-14.11c3.06-4.95,5.36-10.15,6.06-15.21l0.15-0.95
					c0.05-0.31,0.03-0.63,0.06-0.94l0.1-1.86c-0.11-1.22-0.05-2.45-0.32-3.64c-0.11-1.2-0.53-2.36-0.85-3.52
					c-0.15-0.58-0.46-1.14-0.67-1.7c-0.24-0.56-0.42-1.14-0.76-1.68c-2.27-4.41-5.81-8.48-10.1-12.09
					c-1.02-0.94-2.21-1.78-3.29-2.68c-1.08-0.91-2.36-1.67-3.51-2.54c-1.14-0.88-2.43-1.63-3.65-2.46l-1.85-1.22l-1.92-1.16
					c-5.06-3.17-10.48-6.06-15.93-8.96c-11.01-5.7-22.57-10.91-34.31-16.04c-11.75-5.16-23.71-10.13-35.63-15.85l0,0
					c-0.48-0.23-0.69-0.81-0.46-1.29c0.17-0.36,0.53-0.56,0.91-0.55c13.24,0.43,26.31,2.22,39.26,4.9
					c12.94,2.73,25.76,6.44,38.27,11.61c6.23,2.67,12.41,5.6,18.32,9.34c5.92,3.68,11.6,8.02,16.77,13.27
					c5.09,5.29,9.71,11.62,12.61,19.11c0.41,0.9,0.67,1.89,0.96,2.86c0.27,0.98,0.61,1.92,0.8,2.92l0.55,3l0.13,0.75l0.06,0.76
					l0.13,1.52c0.24,2.02,0.09,4.05,0.03,6.06c-0.1,0.99-0.24,1.98-0.37,2.97c-0.07,0.49-0.12,0.99-0.22,1.47l-0.33,1.43
					c-1.68,7.72-5.33,14.33-9.45,20.12c-4.14,5.82-8.97,10.78-13.96,15.39c-10.13,9.07-21.17,16.5-32.47,23.25
					c-22.72,13.32-46.68,23.79-70.92,33.02l-0.02,0.01c-0.49,0.19-1.04-0.06-1.23-0.55C998.97,1294.99,999.17,1294.48,999.6,1294.26
					z"/>
			</g>
			<g>
				<path class="st43" d="M999.61,1295.99c-24.24-9.23-48.2-19.7-70.92-33.02c-11.3-6.75-22.34-14.18-32.47-23.25
					c-5-4.6-9.82-9.57-13.96-15.39c-4.12-5.79-7.77-12.4-9.45-20.12l-0.33-1.43c-0.1-0.48-0.15-0.98-0.22-1.47
					c-0.13-0.99-0.27-1.97-0.37-2.97c-0.05-2.01-0.21-4.03,0.03-6.06l0.13-1.52l0.06-0.76l0.13-0.75l0.55-3
					c0.19-1,0.53-1.95,0.8-2.92c0.29-0.97,0.56-1.96,0.96-2.86c2.9-7.5,7.52-13.82,12.61-19.11c5.17-5.25,10.85-9.59,16.77-13.27
					c5.91-3.74,12.09-6.67,18.32-9.34c12.52-5.17,25.34-8.88,38.27-11.61c12.95-2.68,26.01-4.47,39.26-4.9
					c0.54-0.02,0.98,0.4,1,0.94c0.01,0.4-0.21,0.74-0.55,0.91l-0.01,0c-11.92,5.72-23.89,10.69-35.63,15.85
					c-11.75,5.12-23.3,10.34-34.31,16.04c-5.45,2.9-10.88,5.79-15.93,8.96l-1.92,1.16l-1.85,1.22c-1.22,0.82-2.51,1.58-3.65,2.46
					c-1.15,0.87-2.43,1.63-3.51,2.54c-1.09,0.9-2.27,1.74-3.29,2.68c-4.29,3.61-7.83,7.68-10.1,12.09
					c-0.34,0.54-0.52,1.11-0.76,1.68c-0.21,0.57-0.52,1.12-0.67,1.7c-0.31,1.16-0.74,2.31-0.85,3.52c-0.27,1.19-0.22,2.41-0.32,3.64
					l0.1,1.86c0.02,0.31,0.01,0.62,0.06,0.94l0.15,0.95c0.71,5.06,3.01,10.27,6.06,15.21c3.05,4.97,6.99,9.65,11.23,14.11
					c8.5,8.97,18.45,16.95,28.83,24.34c10.38,7.44,21.3,14.25,32.45,20.72c11.15,6.49,22.57,12.54,34.09,18.54
					c0.47,0.24,0.65,0.82,0.4,1.28c-0.23,0.43-0.74,0.62-1.18,0.45L999.61,1295.99z"/>
			</g>
		</g>
		<g id="mani-ch">
			<g id="petals10">

					<ellipse transform="matrix(0.9511 -0.309 0.309 0.9511 -356.203 362.7036)" class="st48" cx="966.91" cy="1305.84" rx="34.85" ry="20.11"/>

					<ellipse transform="matrix(0.809 -0.5878 0.5878 0.809 -557.5734 817.7275)" class="st48" cx="979.57" cy="1266.88" rx="20.11" ry="34.85"/>

					<ellipse transform="matrix(0.5878 -0.809 0.809 0.5878 -604.2504 1347.8531)" class="st48" cx="1020.53" cy="1266.88" rx="34.85" ry="20.11"/>

					<ellipse transform="matrix(0.309 -0.9511 0.9511 0.309 -528.0114 1884.9335)" class="st48" cx="1033.19" cy="1305.84" rx="20.11" ry="34.85"/>
				<ellipse class="st48" cx="1000.05" cy="1329.92" rx="20.11" ry="34.85"/>

					<ellipse transform="matrix(0.9511 -0.309 0.309 0.9511 -346.304 382.1314)" class="st49" cx="1033.19" cy="1284.3" rx="34.85" ry="20.11"/>

					<ellipse transform="matrix(0.809 -0.5878 0.5878 0.809 -582.8903 852.5734)" class="st49" cx="1020.53" cy="1323.26" rx="20.11" ry="34.85"/>

					<ellipse transform="matrix(0.5878 -0.809 0.809 0.5878 -666.7501 1337.9542)" class="st49" cx="979.57" cy="1323.26" rx="34.85" ry="20.11"/>

					<ellipse transform="matrix(0.309 -0.9511 0.9511 0.309 -553.3283 1807.0159)" class="st49" cx="966.91" cy="1284.3" rx="20.11" ry="34.85"/>
				<ellipse class="st49" cx="1000.05" cy="1260.23" rx="20.11" ry="34.85"/>
				<circle class="st50" cx="1000.05" cy="1295.07" r="40.23"/>
			</g>
			<polygon id="red-triangle" class="st51" points="1000,1322.28 1026.44,1276.49 973.56,1276.49 			"/>
		</g>
		<g id="mani-sushumna">
			<line class="st40" x1="1000" y1="1123.08" x2="1000" y2="1295.03"/>
			<line class="st52" x1="1000" y1="1123.08" x2="1000" y2="1295.03"/>
			<line class="st53" x1="1000" y1="1123.08" x2="1000" y2="1295.03"/>
		</g>
	</g>
	<g id="ana" class="st37">
		<g>
			<g>
				<path class="st44" d="M999.76,1124.11l-12.12-2.44l-12.09-2.62l-12.04-2.88c-4-1.04-8.02-2-12-3.1
					c-3.99-1.1-7.99-2.15-11.95-3.37l-5.95-1.78l-5.93-1.89c-3.96-1.22-7.87-2.65-11.81-3.97l-5.86-2.15l-2.93-1.08l-2.91-1.15
					c-7.77-3.04-15.44-6.44-22.97-10.23c-7.53-3.79-14.93-7.99-22.03-12.91c-7.04-4.98-13.84-10.6-19.72-17.6
					c-2.93-3.5-5.56-7.4-7.76-11.67c-2.21-4.27-3.76-9.09-4.48-14.12c-0.72-5.03-0.48-10.3,0.7-15.26c1.16-4.97,3.1-9.68,5.61-13.86
					c2.5-4.19,5.43-7.97,8.58-11.43c3.18-3.42,6.58-6.49,10.1-9.36c14.25-11.2,30.41-18.32,46.8-23.22
					c16.43-4.89,33.2-7.72,49.96-9.01c16.77-1.28,33.56-1.02,50.14,1.15c0.56,0.07,0.95,0.58,0.87,1.14
					c-0.06,0.43-0.37,0.76-0.77,0.85l-0.03,0.01c-2.03,0.49-4.06,0.9-6.09,1.35c-2.03,0.39-4.05,0.85-6.06,1.28l-12.05,2.6
					c-8,1.74-15.92,3.6-23.77,5.57c-15.69,3.93-31.09,8.45-45.85,14.01c-14.71,5.57-29,11.93-41.36,20.16
					c-3.04,2.08-5.96,4.29-8.6,6.68c-2.6,2.41-4.96,4.97-6.92,7.7c-1.96,2.72-3.42,5.61-4.35,8.59c-0.91,2.98-1.26,6.05-1.02,9.18
					c0.27,3.12,1.03,6.31,2.44,9.42c1.4,3.11,3.19,6.19,5.39,9.12c4.39,5.87,10.05,11.19,16.17,16.03
					c6.12,4.88,12.77,9.28,19.67,13.35c6.9,4.07,14.06,7.84,21.39,11.29c14.59,7.08,29.83,13.02,45.22,18.58
					c3.84,1.41,7.73,2.69,11.6,4.04l11.69,3.83l11.75,3.69l11.81,3.52l0.01,0c0.53,0.16,0.83,0.72,0.67,1.24
					C1000.77,1123.92,1000.26,1124.21,999.76,1124.11z"/>
			</g>
			<g>
				<path class="st43" d="M999.77,1122.17l11.81-3.52l11.75-3.69l11.69-3.83c3.87-1.35,7.76-2.63,11.6-4.04
					c15.39-5.56,30.63-11.5,45.22-18.58c7.33-3.45,14.49-7.22,21.39-11.29c6.9-4.07,13.56-8.48,19.67-13.35
					c6.12-4.84,11.78-10.15,16.17-16.03c2.2-2.93,3.99-6.01,5.39-9.12c1.41-3.12,2.17-6.31,2.44-9.42c0.24-3.13-0.12-6.19-1.02-9.18
					c-0.93-2.98-2.39-5.87-4.35-8.59c-1.95-2.73-4.32-5.28-6.92-7.7c-2.64-2.39-5.56-4.6-8.6-6.68
					c-12.36-8.24-26.65-14.59-41.36-20.16c-14.76-5.57-30.16-10.08-45.85-14.01c-7.85-1.97-15.77-3.83-23.77-5.57l-12.05-2.6
					c-2.02-0.43-4.04-0.89-6.06-1.28c-2.02-0.45-4.06-0.85-6.09-1.35l-0.03-0.01c-0.54-0.13-0.88-0.68-0.75-1.22
					c0.1-0.42,0.45-0.71,0.85-0.77c16.58-2.17,33.38-2.43,50.14-1.15c16.76,1.29,33.53,4.12,49.96,9.01
					c16.39,4.9,32.54,12.03,46.8,23.22c3.52,2.87,6.92,5.94,10.1,9.36c3.15,3.46,6.08,7.23,8.58,11.43
					c2.51,4.18,4.45,8.89,5.61,13.86c1.17,4.96,1.42,10.23,0.7,15.26c-0.71,5.03-2.27,9.85-4.48,14.12
					c-2.2,4.27-4.83,8.18-7.76,11.67c-5.87,7-12.68,12.62-19.72,17.6c-7.09,4.92-14.5,9.11-22.03,12.91
					c-7.53,3.79-15.2,7.18-22.97,10.23l-2.91,1.15l-2.93,1.08l-5.86,2.15c-3.94,1.33-7.85,2.75-11.81,3.97l-5.93,1.89l-5.95,1.78
					c-3.96,1.22-7.96,2.27-11.95,3.37c-3.99,1.1-8.01,2.07-12,3.1l-12.04,2.88l-12.09,2.62l-12.12,2.44
					c-0.54,0.11-1.07-0.24-1.18-0.78c-0.1-0.51,0.2-1.01,0.69-1.16L999.77,1122.17z"/>
			</g>
		</g>
		<g id="anah-ch">
			<g>
				<g>

						<ellipse transform="matrix(0.866 -0.5 0.5 0.866 -440.3424 637.6905)" class="st54" cx="969.77" cy="1140.53" rx="34.85" ry="20.11"/>

						<ellipse transform="matrix(0.866 -0.5 0.5 0.866 -414.8334 663.1994)" class="st54" cx="1030.13" cy="1105.69" rx="34.85" ry="20.11"/>
				</g>
				<g>

						<ellipse transform="matrix(0.5 -0.866 0.866 0.5 -472.6673 1392.6946)" class="st54" cx="969.77" cy="1105.69" rx="20.11" ry="34.85"/>

						<ellipse transform="matrix(0.5 -0.866 0.866 0.5 -472.6673 1462.3861)" class="st54" cx="1030.13" cy="1140.53" rx="20.11" ry="34.85"/>
				</g>
				<g>
					<ellipse class="st54" cx="999.95" cy="1088.27" rx="20.11" ry="34.85"/>
					<ellipse class="st54" cx="999.95" cy="1157.96" rx="20.11" ry="34.85"/>
				</g>
				<g>

						<ellipse transform="matrix(0.5 -0.866 0.866 0.5 -507.5131 1427.5404)" class="st55" cx="982.53" cy="1153.29" rx="34.85" ry="20.11"/>

						<ellipse transform="matrix(0.5 -0.866 0.866 0.5 -437.8215 1427.5403)" class="st55" cx="1017.38" cy="1092.93" rx="34.85" ry="20.11"/>
				</g>
				<g>
					<ellipse class="st55" cx="965.11" cy="1123.11" rx="34.85" ry="20.11"/>
					<ellipse class="st55" cx="1034.8" cy="1123.11" rx="34.85" ry="20.11"/>
				</g>
				<g>

						<ellipse transform="matrix(0.866 -0.5 0.5 0.866 -414.8335 637.6905)" class="st55" cx="982.53" cy="1092.93" rx="20.11" ry="34.85"/>

						<ellipse transform="matrix(0.866 -0.5 0.5 0.866 -440.3424 663.1994)" class="st55" cx="1017.38" cy="1153.29" rx="20.11" ry="34.85"/>
				</g>
				<circle class="st56" cx="999.95" cy="1123.11" r="40.23"/>
			</g>
			<polygon class="st57" points="1025.03,1137.57 1025.03,1108.66 1000,1094.2 974.97,1108.66 974.97,1137.57 1000,1152.02 			"/>
		</g>
		<g>
			<line class="st40" x1="1000" y1="951.02" x2="1000" y2="1123.08"/>
			<line class="st52" x1="1000" y1="951.02" x2="1000" y2="1123.08"/>
			<line class="st58" x1="1000" y1="951.02" x2="1000" y2="1123.08"/>
		</g>
	</g>
	<g id="vish" class="st37">
		<g>
			<g>
				<path class="st44" d="M999.09,950.11c9.41-0.77,18.75-2.13,27.99-3.91c9.25-1.76,18.41-3.94,27.46-6.48
					c18.1-5.06,35.82-11.4,52.94-18.95c17.14-7.48,33.76-16.14,49.26-26.22c7.77-5,15.24-10.38,22.19-16.22
					c6.92-5.83,13.35-12.17,18.48-19.03c1.26-1.72,2.43-3.47,3.51-5.24c1.05-1.77,1.99-3.56,2.78-5.35
					c1.59-3.59,2.45-7.19,2.54-10.49c0.08-3.31-0.64-6.3-2.09-9.12c-1.49-2.81-3.71-5.49-6.54-7.92
					c-5.62-4.97-13.21-8.91-21.17-12.32c-8.02-3.38-16.54-6.27-25.28-8.81c-17.49-5.11-35.76-8.94-54.19-12.49
					c-18.45-3.55-37.13-6.65-55.93-10.43c-0.58-0.11-0.95-0.67-0.83-1.25c0.09-0.46,0.47-0.79,0.92-0.85
					c19.08-2.24,38.25-2.83,57.48-2.22c19.22,0.7,38.53,2.62,57.78,6.9c9.62,2.15,19.22,5,28.65,9.03
					c4.71,2.02,9.38,4.37,13.92,7.18c2.27,1.43,4.5,2.96,6.68,4.66c2.19,1.67,4.31,3.54,6.34,5.57c4.02,4.08,7.69,9.05,10.13,14.88
					c2.45,5.83,3.36,12.48,2.67,18.61c-0.66,6.16-2.68,11.76-5.23,16.68c-2.54,4.96-5.63,9.33-8.95,13.35
					c-6.66,8.01-14.21,14.66-22.08,20.66c-7.88,5.98-16.11,11.28-24.53,16.13c-16.92,9.58-34.58,17.43-52.62,24.04
					c-18.08,6.51-36.54,11.81-55.31,15.6c-9.38,1.88-18.83,3.41-28.33,4.48c-9.5,1.03-19.04,1.62-28.57,1.61
					c-0.58,0-1.05-0.47-1.05-1.05C998.12,950.61,998.55,950.16,999.09,950.11z"/>
			</g>
			<g>
				<path class="st43" d="M1000.14,952.27c-4.46,0.56-8.94,0.54-13.39,0.25c-4.45-0.28-8.86-0.87-13.24-1.57
					c-8.75-1.49-17.38-3.6-25.9-6.03c-17.03-4.92-33.61-11.25-49.82-18.47c-16.17-7.32-31.96-15.58-47.1-25.19
					c-7.54-4.86-14.91-10.06-21.99-15.78c-7.08-5.73-13.88-11.99-20.04-19.23c-3.06-3.65-5.99-7.52-8.52-11.86
					c-1.27-2.16-2.48-4.42-3.52-6.83c-1.05-2.4-1.97-4.93-2.63-7.63c-0.67-2.69-1.12-5.51-1.24-8.44c-0.11-2.92,0.14-5.93,0.75-8.88
					c0.62-2.94,1.6-5.82,2.87-8.49c1.29-2.66,2.84-5.12,4.55-7.38c1.73-2.23,3.62-4.22,5.57-6.08c1.97-1.79,3.98-3.51,6.08-4.98
					c4.17-3,8.5-5.45,12.87-7.53c8.76-4.14,17.7-6.93,26.64-9.06c17.89-4.18,35.79-5.95,53.6-6.53c17.81-0.5,35.55,0.19,53.2,2.48
					c0.58,0.08,1,0.61,0.92,1.19c-0.06,0.46-0.41,0.81-0.84,0.91c-17.36,3.73-34.61,6.73-51.61,10.17
					c-16.98,3.41-33.81,7.1-49.76,12.04c-7.95,2.48-15.7,5.26-22.8,8.58c-3.54,1.67-6.9,3.48-9.93,5.46
					c-1.54,0.99-2.94,2.02-4.28,3.09c-1.29,1.09-2.5,2.21-3.54,3.38c-1.04,1.16-1.95,2.34-2.7,3.56c-0.73,1.22-1.29,2.48-1.71,3.79
					c-0.84,2.61-1.01,5.53-0.48,8.73c0.24,1.59,0.68,3.24,1.26,4.9c0.57,1.66,1.26,3.36,2.13,5.02c1.67,3.35,3.84,6.64,6.22,9.85
					c4.85,6.39,10.67,12.41,16.91,18.04c6.25,5.64,12.95,10.93,19.88,15.95c13.82,10.11,28.6,19.15,43.87,27.31
					c15.24,8.21,31.03,15.51,47.26,21.64c8.12,3.05,16.36,5.78,24.75,7.93c4.19,1.07,8.42,2.02,12.68,2.67
					c4.26,0.67,8.56,1.07,12.84,0.91l0.02,0c0.58-0.02,1.07,0.43,1.09,1.01C1001.08,951.74,1000.67,952.21,1000.14,952.27z"/>
			</g>
		</g>
		<g id="vish-ch">
			<g>
				<g>

						<ellipse transform="matrix(0.7071 -0.7071 0.7071 0.7071 -404.3524 975.5432)" class="st59" cx="975.41" cy="975.87" rx="34.85" ry="20.11"/>

						<ellipse transform="matrix(0.7071 -0.7071 0.7071 0.7071 -355.073 995.9554)" class="st59" cx="1024.69" cy="926.59" rx="34.85" ry="20.11"/>
				</g>
				<g>
					<ellipse class="st59" cx="965.2" cy="951.23" rx="34.85" ry="20.11"/>
					<ellipse class="st59" cx="1034.89" cy="951.23" rx="34.85" ry="20.11"/>
				</g>
				<g>

						<ellipse transform="matrix(0.7071 -0.7071 0.7071 0.7071 -369.5066 961.1096)" class="st59" cx="975.41" cy="926.59" rx="20.11" ry="34.85"/>

						<ellipse transform="matrix(0.7071 -0.7071 0.7071 0.7071 -389.9188 1010.389)" class="st59" cx="1024.69" cy="975.87" rx="20.11" ry="34.85"/>
				</g>
				<g>
					<ellipse class="st59" cx="1000.05" cy="916.38" rx="20.11" ry="34.85"/>
					<ellipse class="st59" cx="1000.05" cy="986.07" rx="20.11" ry="34.85"/>
				</g>
				<g>

						<ellipse transform="matrix(0.3827 -0.9239 0.9239 0.3827 -299.4486 1518.6866)" class="st60" cx="986.71" cy="983.42" rx="34.85" ry="20.11"/>

						<ellipse transform="matrix(0.3827 -0.9239 0.9239 0.3827 -223.4994 1503.5795)" class="st60" cx="1013.38" cy="919.03" rx="34.85" ry="20.11"/>
				</g>
				<g>

						<ellipse transform="matrix(0.9239 -0.3827 0.3827 0.9239 -295.4489 443.8053)" class="st60" cx="967.85" cy="964.56" rx="34.85" ry="20.11"/>

						<ellipse transform="matrix(0.9239 -0.3827 0.3827 0.9239 -280.3417 466.4149)" class="st60" cx="1032.24" cy="937.89" rx="34.85" ry="20.11"/>
				</g>
				<g>

						<ellipse transform="matrix(0.3827 -0.9239 0.9239 0.3827 -269.0276 1473.1584)" class="st60" cx="967.85" cy="937.89" rx="20.11" ry="34.85"/>

						<ellipse transform="matrix(0.3827 -0.9239 0.9239 0.3827 -253.9204 1549.1077)" class="st60" cx="1032.24" cy="964.56" rx="20.11" ry="34.85"/>
				</g>
				<g>

						<ellipse transform="matrix(0.9239 -0.3827 0.3827 0.9239 -276.5905 447.5564)" class="st60" cx="986.71" cy="919.03" rx="20.11" ry="34.85"/>

						<ellipse transform="matrix(0.9239 -0.3827 0.3827 0.9239 -299.2001 462.6637)" class="st60" cx="1013.38" cy="983.42" rx="20.11" ry="34.85"/>
				</g>
				<circle class="st61" cx="1000.05" cy="951.23" r="40.23"/>
			</g>
			<circle class="st62" cx="1000" cy="951.23" r="26.11"/>
		</g>
		<g>
			<line class="st63" x1="1000" y1="777.01" x2="1000" y2="951.02"/>
			<line class="st64" x1="1000" y1="777.01" x2="1000" y2="951.02"/>
			<line class="st65" x1="1000" y1="777.01" x2="1000" y2="951.02"/>
		</g>
	</g>
	<g id="aj" class="st37">
		<g id="ajna">
			<g>
				<ellipse class="st66" cx="1034.94" cy="777.01" rx="34.89" ry="37.11"/>
				<ellipse class="st66" cx="965.16" cy="777.01" rx="34.89" ry="37.11"/>
			</g>
			<circle class="st67" cx="1000.05" cy="777.01" r="40.02"/>
		</g>
		<line id="cit-kundalini" class="st68" x1="1000" y1="433.67" x2="1000" y2="777.01"/>
	</g>
</g>
<g id="dots" class="st36">
	<circle class="st37" cx="999.9" cy="776.85" r="2.5"/>
	<circle class="st37" cx="999.9" cy="951.23" r="2.5"/>
	<circle class="st37" cx="1000" cy="1123.11" r="2.5"/>
	<circle class="st37" cx="1000" cy="1295.07" r="2.5"/>
	<circle class="st37" cx="1000" cy="1466.67" r="2.5"/>
	<circle class="st37" cx="1000" cy="1639.09" r="2.5"/>
</g>
</svg>
