<?xml version="1.0" encoding="utf-8"?>
<!-- Generator: Adobe Illustrator 24.3.0, SVG Export Plug-In . SVG Version: 6.00 Build 0)  -->
<svg version="1.1" id="Слой_1" xmlns="http://www.w3.org/2000/svg" xmlns:xlink="http://www.w3.org/1999/xlink" x="0px"
	y="0px" viewBox="0 0 595.3 595.3" enable-background="new 0 0 595.3 595.3" xml:space="preserve">
	<style>
		* {
			transition: opacity 300ms ease;
			cursor: pointer;
		}

		.active,
		.active * {
			opacity: 1 !important;
		}

		.has-active :not(.active):not(g) {
			opacity: 0.05;
		}
	</style>
	<g id="main">
		<path id="purusha" fill="#FFE05F" d="M297.6,427.6c56.2,0,102.1-45.5,102.1-102.1c0-56.3-45.6-102.1-102.1-102.1
		c-56.3,0-102.1,45.6-102.1,102.1C195.5,381.9,241.2,427.6,297.6,427.6z" />
		<g id="kancuka">
			<g id="vidya">
				<path fill="#63C3D7" d="M204.8,325.1c0,2,23.7-57.3,92.8-57.3c71.2,0,92.8,61.1,92.8,57.3c0-51.2-41.5-92.8-92.8-92.8
				S204.8,273.9,204.8,325.1z" />
			</g>
			<path id="niyati" fill="#A5C4E9" d="M296.5,267.8c-39.4,0.4-74.5,23-91.7,57.4c16.9,34,51.8,57,91.7,57.4
			C265.3,382.1,265.3,268.4,296.5,267.8z" />
			<path id="kaala" fill="#F5A9AA" d="M298.7,382.7c34.3-0.4,65.6-17.5,84.5-45.3c9-13.3,7.1-12.4,5.5-15.3
			c-17.7-32.6-51.7-53.9-90-54.3C330,268.4,330,382.1,298.7,382.7z" />
			<path id="kalaa" fill="#149438" d="M204.8,325.3c0,25.6,10.5,48.9,27.4,65.6c58.5,58.2,158.1,16.2,158.2-65.6
			C352.3,401.8,243,401.8,204.8,325.3z" />
			<ellipse id="raga" fill="#8E4A97" cx="297.6" cy="325.3" rx="57.5" ry="57.5" />
		</g>
		<path id="maya" fill="#010202" d="M349,325.2c4,0-5-51.8-51.4-51.8c-45.4,0-55.9,51.8-51.4,51.8c-3.8,0,5.1,51.6,51.4,51.6
		C342.9,376.8,353.5,325.2,349,325.2z" />
		<g id="mahabhuta">
			<path id="vayu" fill="#89D2F6" d="M297.6,110.1L392,270.2c111.4-62.4,81.6-45.1,126.6-72.6L298.3,39
			C297.6,113.4,297.7,109.9,297.6,110.1z" />
			<path id="agni" fill="#E52520"
				d="M518.7,197.6l-126.6,73.6c108.6,188.2,87.7,157,110.7,177l68.9-212.1L518.7,197.6z" />
			<path id="prithivi" fill="#624423" d="M109.3,434.6L92.8,449l35.5,109.3H467l35.8-110.1l-17.3-14.7
			C96.4,433.5,110.2,432.9,109.3,434.6z" />
			<path id="akasha" fill="#662483" d="M203.3,271.2l94.4-162.5c-0.1-0.2-0.1,3.3,0.6-71.2c-1.1-0.8,16.3-12.9-222.1,160.4
			C122.2,223.3,92.3,206.2,203.3,271.2z" />
			<path id="apas" fill="#009A93" d="M202.7,272.6c-110.8-66.7-83-50.4-126.6-74.7l-52.6,38.2l69.2,212.8
			C115.6,429.1,95.2,459.1,202.7,272.6z" />
		</g>
		<g id="shanti">
			<path id="sadakhya" fill="#E6332A" d="M307.5,292.4h-19.7c-22.8,0-33.9,14.1-27.7,32.8c1.8,5.5,3.5,7.8,13.7,25.6
			c13.1,22.7,34.5,22.7,47.6,0l9.9-17.1C344.3,311.1,333.8,292.4,307.5,292.4z" />
			<path id="ishvara" fill="#F07E1B" d="M269.9,341.2C269.9,341.2,269.9,341.2,269.9,341.2L269.9,341.2c-12.2-21,2.9-48,27.7-48
			c17.9,0,32.1,14.4,32.1,32c0,18.4-15.1,32-32,32c-18.4,0-28.6-16-27.6-16C278.1,345.9,269.9,320.7,269.9,341.2z" />
			<path id="sadashiva" fill="#F6E81E" d="M325.4,341.2c-17.7,10.2-39,9.5-55.5,0c0-20.4,11-38.4,27.7-48.1
			C326.8,310.2,325.3,341.1,325.4,341.2z" />
			<polygon id="shiva" fill="#FDFBE5" points="297.6,293.2 269.9,341.2 325.4,341.2 		" />
		</g>
		<g id="tanmatra">
			<path id="sparsha" fill="#3ABFF0" d="M484.7,217c-37.5-64.5-107.1-108-187-108.4l94.4,162.7L484.7,217z" />
			<path id="rupa" fill="#EB5D0B" d="M484.9,216.8c-13.5,7.9-84.6,49.6-92.9,54.4c2.3,4,85.6,148.7,93.4,162.3
			C522.9,368,524.3,284.9,484.9,216.8z" />
			<path id="gandha" fill="#8F5307"
				d="M108.9,435.5c84.9,144.5,292.8,142.5,376-1.1C91.4,434.3,109.9,433.7,108.9,435.5z" />
			<path id="shabda" fill="#7A6AAD" d="M297.6,108.6c-80,0-151,43.2-188.7,107.6l94.2,55.2L297.6,108.6z" />
			<path id="rasa" fill="#668072" d="M108.6,216c-39.5,67.7-39.5,151.9,0.2,219.5c0.2-0.4,94.2-164.1,94.2-164.1
			C194.4,266.2,118,221.4,108.6,216z" />
		</g>
		<g id="karmendriya">
			<path id="pani" fill="#02AE95" d="M320.9,148.7c9.4,16.3,71,122.3,71.1,122.5c8.2-4.8,47.7-27.9,59.2-34.7
			C424.3,189.7,376.7,156.3,320.9,148.7z" />
			<path id="pada" fill="#FAB200" d="M451.3,236.5c-11.5,6.8-51,29.9-59.2,34.7c2.3,4,60.5,104.9,69.9,121.2
			C482.3,342.5,479,284.7,451.3,236.5z" />
			<path id="payu" fill="#BD4B06"
				d="M155.1,434.3c71.6,92.9,211.4,92.8,282.9,0C436.1,434.3,163.2,434.3,155.1,434.3z" />
			<path id="vaak" fill="#687CBC"
				d="M142.3,235.7l60.8,35.7c0.5-1-7.5,12.9,71.4-122.9C218,155.3,169.7,188.7,142.3,235.7z" />
			<path id="upastha" fill="#91652A" d="M142.3,235.7c-28.9,49.5-31.6,108.9-10.2,159.4l71-123.7
			C194.5,266.3,150.9,240.7,142.3,235.7z" />
		</g>
		<g id="jnanendriya">
			<path id="tvak" fill="#009640" d="M349.3,197.5c13.1,22.6,42.6,73.5,42.8,73.7c8.2-4.8,16.4-9.6,24.6-14.4
			C401.5,230.3,377.8,209.3,349.3,197.5z" />
			<path id="chakshus" fill="#FFED00" d="M433.8,343.5c3.9-29.7-1.8-60.1-17.1-86.8c-8.2,4.8-16.4,9.6-24.6,14.4
			C392.1,271.2,391.1,269.5,433.8,343.5z" />
			<path id="ghrana" fill="#C41B1C" d="M382.1,434.3H211C261.1,473.8,331.9,473.8,382.1,434.3z" />
			<path id="shrotra" fill="#00ACE9"
				d="M176.8,255.9l26.3,15.4c0.7-1.3-5.5,9.4,43.5-75C217.2,207.7,192.6,228.9,176.8,255.9z" />
			<path id="jihva" fill="#F08300" d="M159.7,346.9l43.4-75.6l-26.3-15.4C160.8,283.5,154.9,315.6,159.7,346.9z" />
		</g>
		<g id="antahrakana">
			<path id="buddhi" fill="#FFFFFF" d="M219.3,250.1c52.6-53.9,135.4-37.4,168.8,14.3l-90.4-155.8
			C173.5,322.4,206.6,262.6,219.3,250.1z" />
			<path id="manas" fill="#1E1E1C" d="M297.6,434.3c-72.6-1-126.4-68.3-103.5-142c5.6-18,41.7-78-84.6,142H297.6z" />
			<path id="ahankara" fill="#9E9D9C" d="M297.6,434.4h188.1l-93.7-163.1C433.8,337.9,384.4,434.4,297.6,434.4z" />
		</g>
		<g id="prakriti">
			<path id="XMLID_213_" fill="#FCF6C2" d="M203.1,271.4l5.9,3.4c39.2-68.4,137.9-68.5,177.2-0.1l5.9-3.4
			C350.6,199.2,244.8,198.3,203.1,271.4z" />
			<path id="XMLID_215_" fill="#4A4939" d="M297.6,434.4v-6.7c-78.7,0-127.3-85.3-88.6-152.8l-5.9-3.4
			C161.4,346.3,215.1,434.4,297.6,434.4z" />
			<path id="XMLID_217_" fill="#87866C" d="M297.6,427.7c0,7.4,0.1,6.7,0,6.7c84.6,0,135.5-91.7,94.4-163.1l-5.9,3.4
			C425.7,343.5,374.2,428.7,297.6,427.7z" />
		</g>
	</g>
</svg>