<?xml version="1.0" encoding="utf-8"?>
<!-- Generator: Adobe Illustrator 24.0.1, SVG Export Plug-In . SVG Version: 6.00 Build 0)  -->
<svg version="1.1" id="Layer_1" xmlns="http://www.w3.org/2000/svg" xmlns:xlink="http://www.w3.org/1999/xlink" x="0px"
	y="0px" viewBox="0 0 2000 2000" style="enable-background:new 0 0 2000 2000;" xml:space="preserve">
	<style type="text/css">
	      * {
        transition: opacity 300ms ease;
        cursor: pointer;
      }
      .active, .active * {
        opacity: 1 !important;
      }

      .has-active :not(.active):not(g) {
        opacity: 0.05;
      }
		.st0 {
			fill: #ffaa00;
		}

		.st1 {
			fill: #FFD400;
		}

		.st2 {
			fill: #FFF100;
		}

		.st3 {
			fill: #FFF799;
		}

		.st4 {
			fill: #F9FDFF;
		}

		.st5 {
			opacity: 0.2;
			fill: #F9FDFF;
		}
	</style>
	<g id="main">
		<rect id="sadakhya" x="0" y="0" class="st0" width="2000" height="2003.33" />
		<circle id="ishvara" class="st1" cx="1000" cy="1000" r="1000" />
		<circle id="sadashiva" class="st2" cx="1000" cy="987.96" r="618" />
		<circle id="shakti" class="st3" cx="1000" cy="1000" r="382" />
		<path id="shiva" class="st4" d="M1187.08,1325.35c-54.96,31.96-118.85,50.26-187.01,50.26c-68.13,0-132.32-17.62-187.26-49.55
	L1000,1001.84l187.19,324.23" />
		<path id="spanda" class="st5" d="M1190.24,1331.34c-56.01,32.23-120.97,50.66-190.24,50.66s-134.22-18.43-190.24-50.66L500.1,1867.69
	C646.84,1952.96,818.25,2000,1000.19,2000c181.77,0,352.16-48.74,498.81-133.87L1190.24,1331.34z" />
	</g>
</svg>