<?xml version="1.0" encoding="utf-8"?>
<!-- Generator: Adobe Illustrator 24.3.0, SVG Export Plug-In . SVG Version: 6.00 Build 0)  -->
<svg version="1.1" id="Layer_1" xmlns="http://www.w3.org/2000/svg" xmlns:xlink="http://www.w3.org/1999/xlink" x="0px" y="0px"
	 viewBox="0 0 353.9 353.9" enable-background="new 0 0 353.9 353.9" xml:space="preserve">
<path fill="#EDEDED" d="M176.9,5.4c26.6,70.9,26.6,70.4,26.5,70.5c-33.6,17.5-13.9,227.5-10.1,264.7c-12.7,4.5-19.9,4.5-32.8,0
	c3.9-37.2,23.6-247.1-10.1-264.7C150.4,75.8,150.2,76.7,176.9,5.4z"/>
<path fill="#B2B2B2" d="M77,231.8c-38.9-31.4-5.9-89.9,0.1-115.4C83,91.3,42,61.9,40.8,61.1c1.3,1.2,43.4,38.9,12.5,84.7
	C27.9,183.6,34.8,232.2,70,255.7c59.3,39.6,82.5,6.7,82.5,34.6C155.1,241.7,104.6,254,77,231.8z"/>
<path fill="#DADADA" d="M150.5,75.9l10,29c0,0,5.2,105.1-14.3,117.5c-12.6,8-33.5,4.3-48.2-3.5c-49.3-26.4-2.8-81-7.5-109
	c-4.2-24.6-24.2-43.3-49.7-48.8c0.7,0.7,42.2,30,36.3,55.3c-6,25.5-39,84-0.1,115.4c35.6,28.7,95.4,0.1,68.9,97.1
	c-1.1,4.2,6,8.6,14.6,11.6C164.4,303.4,184.1,93.4,150.5,75.9z"/>
<path fill="#9D9D9C" d="M300.5,145.8c-31.4-46.5,12.5-84.7,12.5-84.7s-42.3,29.8-36.3,55.3s39,84,0.1,115.4
	c-27.6,22.2-78.1,9.9-75.5,58.6c0-27.9,23.2,4.9,82.5-34.6C319,232.2,326,183.6,300.5,145.8z"/>
<path fill="#C6C6C6" d="M276.9,231.8c38.9-31.4,5.9-89.9-0.1-115.4s36.3-55.3,36.3-55.3c-25.4,5.5-45.5,24.2-49.7,48.8
	c-4.7,28,41.8,82.6-7.5,109c-14.7,7.9-35.6,11.6-48.2,3.5c-19.5-12.4-14.3-117.5-14.3-117.5l10-29c-33.6,17.5-13.9,227.5-10.1,264.7
	c8.6-3,15.7-7.5,14.6-11.6C181.5,231.9,241.3,260.5,276.9,231.8z"/>
<polygon fill="#FFFFFF" points="176.9,46.8 188.5,66.7 165.4,66.7 "/>
</svg>
